<?xml version="1.0" standalone="no"?>
<!DOCTYPE svg PUBLIC "-//W3C//DTD SVG 1.1//EN" "http://www.w3.org/Graphics/SVG/1.1/DTD/svg11.dtd" >
<svg xmlns="http://www.w3.org/2000/svg">
<metadata>
Created by FontForge 20120731 at Fri Feb 10 18:21:04 2017
 By admin
</metadata>
<defs>
<font id="iconfont" horiz-adv-x="1024" >
  <font-face 
    font-family="iconfont"
    font-weight="500"
    font-stretch="normal"
    units-per-em="1024"
    panose-1="2 0 6 3 0 0 0 0 0 0"
    ascent="896"
    descent="-128"
    x-height="792"
    bbox="44 -31 956 792"
    underline-thickness="0"
    underline-position="0"
    unicode-range="U+0078-E66C"
  />
<missing-glyph 
 />
    <glyph glyph-name=".notdef" 
 />
    <glyph glyph-name=".notdef" 
 />
    <glyph glyph-name=".null" horiz-adv-x="0" 
 />
    <glyph glyph-name="nonmarkingreturn" horiz-adv-x="341" 
 />
    <glyph glyph-name="x" unicode="x" horiz-adv-x="1001" 
d="M281 543q-27 -1 -53 -1h-83q-18 0 -36.5 -6t-32.5 -18.5t-23 -32t-9 -45.5v-76h912v41q0 16 -0.5 30t-0.5 18q0 13 -5 29t-17 29.5t-31.5 22.5t-49.5 9h-133v-97h-438v97zM955 310v-52q0 -23 0.5 -52t0.5 -58t-10.5 -47.5t-26 -30t-33 -16t-31.5 -4.5q-14 -1 -29.5 -0.5
t-29.5 0.5h-32l-45 128h-439l-44 -128h-29h-34q-20 0 -45 1q-25 0 -41 9.5t-25.5 23t-13.5 29.5t-4 30v167h911zM163 247q-12 0 -21 -8.5t-9 -21.5t9 -21.5t21 -8.5q13 0 22 8.5t9 21.5t-9 21.5t-22 8.5zM316 123q-8 -26 -14 -48q-5 -19 -10.5 -37t-7.5 -25t-3 -15t1 -14.5
t9.5 -10.5t21.5 -4h37h67h81h80h64h36q23 0 34 12t2 38q-5 13 -9.5 30.5t-9.5 34.5q-5 19 -11 39h-368zM336 498v228q0 11 2.5 23t10 21.5t20.5 15.5t34 6h188q31 0 51.5 -14.5t20.5 -52.5v-227h-327z" />
    <glyph glyph-name="certer_attrction" unicode="&#xe650;" 
d="M682 486l84 -20q-27 23 -48 46q-9 10 -18 21.5t-14 18.5l-4 6v69h-1q-4 -23 -42 -23h-254q-38 0 -42 23h-1v-69q-15 -23 -36 -46q-10 -10 -22 -21.5t-19 -18.5l-7 -6l84 20h340zM706 325l97 -21q-39 23 -61 46q-9 11 -18 25t-14 24l-4 9v58h-388v-58q-15 -35 -36 -58
q-10 -10 -25 -21.5t-25 -17.5l-11 -7l97 21h388zM815 143l-49 161h-508l-49 -161h255v57q0 10 7 17t17 7h48q10 0 17 -7t7 -17v-57h255z" />
    <glyph glyph-name="certer_collection" unicode="&#xe651;" 
d="M812 454l-207 31l-93 198l-93 -198l-207 -31l150 -153l-36 -217l186 102l186 -102l-36 217zM285 429l158 21l69 146l68 -145v-1l158 -22l-116 -119l24 -153l-134 77l-136 -77l26 153v1z" />
    <glyph glyph-name="certer_car" unicode="&#xe652;" 
d="M753 382l-26 102q-20 64 -44.5 83t-72.5 19h-13v46q0 18 -12.5 30.5t-30.5 12.5h-82q-18 0 -30.5 -12.5t-12.5 -30.5v-46h-26q-42 0 -64.5 -23t-39.5 -79l-26 -102q-2 0 -6.5 -0.5t-15.5 -4t-19.5 -10t-15.5 -21.5t-7 -35v-61q0 -24 14.5 -43t36.5 -25v-93h78v89h350v-89
h78v93q23 6 37.5 25t14.5 43v61q0 16 -7 29.5t-16.5 21t-19 12.5t-16.5 6zM455 625q0 9 8.5 16.5t20.5 7.5h58q12 0 20.5 -7.5t8.5 -16.5v-36h-116v36zM347 462q8 29 12 40t12.5 24t19.5 16.5t29 3.5h175q38 0 56 -15.5t36 -69.5l17 -79h-382zM306 255q-19 0 -32.5 13
t-13.5 31.5t13.5 31.5t32.5 13t32 -13t13 -31.5t-13 -31.5t-32 -13zM733.5 255q-18.5 0 -32 13t-13.5 31.5t13.5 31.5t32 13t32 -13t13.5 -31.5t-13.5 -31.5t-32 -13zM564 484v0h-3h-1h-0.5h-0.5v0h-1v0h-1h-1h-3v0q-25 -2 -42 -20.5t-17 -43.5q0 -6 1 -13h127q1 7 1 13v0
q0 25 -17 43.5t-42 20.5z" />
    <glyph glyph-name="certer_hotel" unicode="&#xe653;" 
d="M763 189h-20v214q0 11 -8 19t-19 8h-41v173q0 11 -8 19t-19 8h-324q-11 0 -19 -8t-8 -19v-414h-34q-7 0 -7 -6v-40q0 -7 7 -7h500q7 0 7 7v40q0 6 -7 6zM446 256q0 -5 -4 -9t-10 -4h-54q-6 0 -10 4t-4 9v54q0 5 4 9t10 4h54q6 0 10 -4t4 -9v-54zM446 363q0 -6 -4 -9.5
t-10 -3.5h-54q-6 0 -10 3.5t-4 9.5v53q0 6 4 10t10 4h54q6 0 10 -4t4 -10v-53zM446 483q0 -6 -4 -9.5t-10 -3.5h-54q-6 0 -10 3.5t-4 9.5v53q0 6 4 10t10 4h54q6 0 10 -4t4 -10v-53zM513 483v53q0 6 4 10t10 4h54q5 0 9 -4t4 -10v-53q0 -6 -4 -9.5t-9 -3.5h-54q-6 0 -10 3.5
t-4 9.5zM689 189h-41v101q0 8 -6 14t-14 6h-41q-8 0 -14 -6t-6 -14v-101h-40v187h162v-187z" />
    <glyph glyph-name="certer_cruise" unicode="&#xe654;" 
d="M331 240l13 -40q24 0 43 10t27 26q-1 -2 -1 -4q0 -5 3.5 -8.5t8 -3.5t8 3.5t3.5 8.5q0 2 -1 4q9 -16 28.5 -26t44 -10t44.5 10t28 26q-1 -2 -1 -4q0 -5 3.5 -8.5t8 -3.5t8 3.5t3.5 8.5q0 2 -1 4q9 -16 28 -26t44 -10l11 40v0h1l37 128q0 12 -8 20.5t-20 8.5q-9 4 -23 10
v130q0 15 -10 25t-24 10h-57l-1 3q-14 7 -19 31q-2 9 -2 18q-3 12 -16 12h-66q-7 0 -13 -6l-1 1l-3 -9q0 -7 -2 -16q-5 -24 -19 -32l-2 -2h-57q-14 0 -24.5 -10t-10.5 -25v-129l-25 -11q-12 0 -20.5 -8.5t-8.5 -20.5l41 -128v0zM385 514q0 5 3 8.5t8 3.5h223q5 0 8.5 -3.5
t3.5 -8.5v0v-70q0 -5 -3.5 -8.5t-8.5 -3.5h-6q-44 19 -73 30q-10 11 -27 11q-15 0 -25 -9v1q-39 -14 -85 -33h-7q-5 0 -8 3.5t-3 8.5v70zM725 130v0q-21 1 -69 26q-35 19 -57 38v0q-2 3 -5.5 3t-4.5 -3h-1q-25 -29 -79 -29t-79 29v0q-2 3 -5.5 3t-4.5 -3h-1q-27 -19 -60 -36
q-54 -29 -71 -27l-4 -1l64 6q33 10 54 20l11 3h12q28 -19 86 -19t86 19h9l5 -2q19 -10 59 -22z" />
    <glyph glyph-name="certer_oeder" unicode="&#xe655;" 
d="M623 272h-222q-7 0 -12.5 -5.5t-5.5 -13t5.5 -13t12.5 -5.5h222q7 0 12.5 5.5t5.5 13t-5.5 13t-12.5 5.5zM604 678v0h-5h-11.5h-20.5h-221q-31 0 -52.5 -21.5t-21.5 -52.5v-443q0 -30 21.5 -51.5t52.5 -21.5h332q31 0 52.5 21.5t21.5 51.5v333v37zM604 641l111 -110h-74
q-15 0 -26 10.5t-11 26.5v73zM678 125h-332q-15 0 -26 10.5t-11 25.5v443q0 16 11 26.5t26 10.5h221v-73q0 -31 22 -52.5t52 -21.5h74v-333q0 -15 -11 -25.5t-26 -10.5zM623 383h-222q-7 0 -12.5 -5.5t-5.5 -13t5.5 -13t12.5 -5.5h222q7 0 12.5 5.5t5.5 13t-5.5 13
t-12.5 5.5z" />
    <glyph glyph-name="certer_evaluation" unicode="&#xe656;" 
d="M368 350l-79 -159q-5 -14 4 -23t22 -3l159 79q12 2 19 9l282 283q11 10 11 25t-11 26l-64 64q-11 11 -26 11t-25 -11l-283 -282q-7 -7 -9 -19zM672 613q6 5 13.5 5t12.5 -5l39 -39q5 -5 5 -12.5t-5 -13.5l-39 -38l-63 65zM435 259l-98 -59q-7 -3 -11.5 1.5t-1.5 11.5
l59 98zM768 461v-293q0 -15 -12.5 -26t-27.5 -11h-436q-15 0 -25.5 11t-10.5 26v436q0 15 11 27.5t26 12.5h292v36h-292q-30 0 -51.5 -23t-21.5 -53v-436q0 -30 21 -51.5t51 -21.5h436q30 0 53 21.5t23 51.5v293h-36z" />
    <glyph glyph-name="certer_people" unicode="&#xe657;" 
d="M548 361q40 21 63.5 60.5t23.5 86.5q0 70 -48 119t-115.5 49t-115.5 -49t-48 -119q0 -47 23.5 -86.5t62.5 -60.5q-80 -26 -131 -96t-51 -158q0 -8 5.5 -13.5t13 -5.5t13 5.5t5.5 13.5v0v1.5v1.5q0 94 65 161t157 67t157.5 -67t65.5 -161v-1.5v-1.5v0q0 -8 5.5 -13.5
t13 -5.5t13 5.5t5.5 13.5q0 88 -51 158t-132 96zM345 510q0 54 37.5 92.5t90.5 38.5t90.5 -38.5t37.5 -92.5t-37.5 -92.5t-90.5 -38.5t-90.5 38.5t-37.5 92.5zM813 432h-183h-1v-30q0 -1 1 -1h183q1 0 1 1v30h-1zM813 350h-146h-1v0v-31h1h146h1v31h-1zM813 271h-103h-1v-31
h1h103h1v31h-1z" />
    <glyph glyph-name="certer_remove" unicode="&#xe658;" 
d="M744 160v355h-178v160h-106v-160h-178v-353q0 -10 -9 -28.5t-18 -31.5l-9 -14h534v0q-36 50 -36 72zM495 640h36v-125h-36v125zM709 480v-107h-392v107h392zM620 124v107h-36v-107h-53v142h-36v-142h-53v107h-36v-107h-89v213h392v-213h-89z" />
    <glyph glyph-name="certer_sailing" unicode="&#xe659;" 
d="M471 636q-4 -11 -10 -31.5t-25 -77.5t-38.5 -107.5t-47.5 -110.5t-55 -98q32 0 134.5 14t190 28.5t89.5 15.5q-11 70 -39.5 133.5t-61.5 104t-64.5 71.5t-52.5 45zM471 247v360l7 -7q14 -94 14 -169q0 -34 -5.5 -79.5t-10.5 -75.5zM779 255q-30 -8 -161.5 -25t-250 -31
t-119.5 -14q-5 -3 13 -24.5t27 -30.5h393v0q4 3 11.5 9t25 22t30.5 31t22.5 32.5t8.5 30.5z" />
    <glyph glyph-name="certer_trip" unicode="&#xe65a;" 
d="M357 205v341h-19q-26 0 -44.5 -18.5t-18.5 -45.5v-213q0 -27 18.5 -45.5t44.5 -18.5h19zM353 192q-13 0 -22.5 -9.5t-9.5 -23t9.5 -23t22.5 -9.5t22.5 9.5t9.5 23t-9.5 23t-22.5 9.5zM662 192q-13 0 -22.5 -9.5t-9.5 -23t9.5 -23t22.5 -9.5t22.5 9.5t9.5 23t-9.5 23
t-22.5 9.5zM686 546h-28v-341h28q26 0 44.5 18.5t18.5 45.5v213q0 27 -18.5 45.5t-44.5 18.5zM630 546h-36v41q0 22 -14.5 37t-35.5 15h-73q-21 0 -35.5 -15t-14.5 -37v-41h-36v-341h245v341zM567 516q0 -10 -7.5 -17.5t-17.5 -7.5h-69q-10 0 -17.5 7.5t-7.5 17.5v60
q0 11 7.5 18.5t17.5 7.5h69q10 0 17.5 -7.5t7.5 -18.5v-60z" />
    <glyph glyph-name="certer_wallet" unicode="&#xe65b;" 
d="M585 625q13 8 27.5 4t22.5 -17l17 -29h42l-46 79q-7 13 -22 17t-28 -3l-160 -93h73zM797 417h-1v34q0 46 -32.5 78.5t-77.5 32.5h-347q-45 0 -77.5 -32.5t-32.5 -78.5v-255q0 -46 32.5 -78.5t77.5 -32.5h347q45 0 77.5 32.5t32.5 78.5v37h1v36h-138q-18 0 -31.5 13.5
t-13.5 32.5v19q0 19 13.5 32.5t31.5 13.5h138v37zM760 417h-101q-34 0 -58 -24.5t-24 -58.5v-19q0 -34 24 -58t58 -24h101v-37q0 -31 -21.5 -52.5t-51.5 -21.5h-348q-30 0 -51.5 21.5t-21.5 52.5v258q0 30 21.5 51.5t51.5 21.5h348q30 0 51.5 -21.5t21.5 -51.5v-37zM650 330
q0 -13 9.5 -22t22 -9t22 9t9.5 22t-9.5 22.5t-22 9.5t-22 -9.5t-9.5 -22.5z" />
    <glyph glyph-name="certer_ship" unicode="&#xe65c;" 
d="M281 398h252q6 0 9.5 4t3.5 10v38h60q6 0 9.5 4.5t3.5 9.5v51q0 6 -3.5 10t-9.5 4h-188q-6 0 -9.5 -4t-3.5 -10v-38h-124q-6 0 -9.5 -4.5t-3.5 -9.5v-51q0 -6 3.5 -10t9.5 -4zM311 503h38h1.5h0.5h1h1h18q5 0 8.5 4t3.5 10v24q0 6 -3.5 10t-8.5 4h-9v38q0 6 -4 10t-9 4
h-38q-6 0 -9.5 -4t-3.5 -10v-76q0 -6 3.5 -10t9.5 -4zM799 424h-210q-5 0 -9 -4t-4 -10v-12q5 -2 5 -7v-33q0 -7 -7 -7h-26q-6 0 -6 7v14h-317q-6 0 -9.5 -4t-3.5 -10v-76l43 -120h473l84 212v36q0 6 -3.5 10t-9.5 4zM319 275q0 -7 -6 -7h-30q-7 0 -7 7v38q0 7 7 7h30
q6 0 6 -7v-38zM405 275q0 -7 -7 -7h-30q-6 0 -6 7v38q0 7 6 7h30q7 0 7 -7v-38zM491 275q0 -7 -7 -7h-30q-6 0 -6 7v38q0 7 6 7h30q7 0 7 -7v-38z" />
    <glyph glyph-name="certer_lu" unicode="&#xe65d;" 
d="M350 648v-19q12 4 25 7q22 6 60 6q43 -3 45 -39v-17q5 4 9 9q8 10 8 15q0 7 -10 11v6l104 23l-4 -16q24 6 44 6h65q12 0 27 -6q20 -9 20 -26q0 -8 -11 -18q-26 -22 -66 -40q48 -18 98 -28l-2 -6q-50 0 -105 7q-23 3 -47 7q-66 -18 -140 -18l-3 8q42 8 80 23q-12 2 -24 5
q-10 2 -20 2l-4 6l32 25q-22 -8 -51 -13v-20h-45v-40q7 0 19 10l28 -30h-47v-45h9q5 0 19 9l28 -28h-186q-7 0 -19 -8l-28 27h17v73q0 4 -9 6v7l73 8v-94h21v105h-87v52q-1 10 -13 12v9zM567 232l28 -32h-249q-16 0 -45 -13l-28 32h250q12 0 44 13zM431 424q-5 -22 -17 -37
q146 20 207 20q42 0 64 -12q28 -17 28 -50v-8q0 -22 -16 -36q-19 -16 -55 -16q-65 0 -147 16l8 10q74 -4 105 -4q12 0 13 11v44q0 19 -21 19q-32 0 -113 -7q26 -2 39 -5q23 -5 33.5 -10.5t10.5 -10.5q-6 -33 -34 -33q-17 0 -39 22q-26 21 -53 32l2 2q-16 -2 -32 -3v-95h280
q61 0 61 -52v-38q-3 -43 -59 -43q-85 1 -186 26l7 11q100 -7 140 -7q9 0 11 9v40q0 35 -30 35h-307v91q-20 -4 -43 -6l-4 11q17 4 30 14q12 9 12 13q0 9 -13 13v8zM350 567h51v36q-1 11 -11 11q-19 0 -40 -6v-41zM581 514v-12q19 6 33 6h92q47 0 47 -47v-39h-256v39
q-1 13 -15 14v9zM564 601q24 -15 47 -27q32 21 46 40q0 7 -10 7h-16q-30 0 -55 -8q-5 -8 -12 -12zM581 442h83v29q0 17 -17 17h-33q-16 0 -33 -5v-41z" />
    <glyph glyph-name="certer_zhang" unicode="&#xe65e;" 
d="M369 379l13 -8q0 -64 -10 -116q-15 -72 -43 -119l-69 115l9 11q11 -10 19 -11q9 1 24 16q38 41 57 112zM273 503q49 -15 83 -37q30 -21 30 -46q-5 -35 -43 -36q-23 0 -42 28q-17 53 -39 80zM288 644q47 -18 82 -43q29 -24 29 -53q-5 -33 -43 -34q-22 0 -40 28
q-17 61 -39 91zM738 600l28 -33h-39q-10 -29 -39 -52q-27 -18 -56 -29h66q13 0 49 13l28 -32h-327q-17 0 -49 -13l-28 32h112q-6 6 -12 13q-12 43 -27 64q-11 -3 -24 -8l-27 31h156q-14 39 -41 58l4 11q15 0 51 -6q37 -7 52 -21q8 -9 8 -25q-3 -11 -9 -17h80q12 0 44 14z
M503 445v-13q27 10 47 10h135q56 0 56 -56v-109h-118v-40h77q12 0 45 12l27 -32h-149v-74h-92v74h-87q-16 0 -45 -13l-28 33h160v40h-117v111q-1 13 -15 15v11zM531 486h79q21 29 21 47q0 6 -10 9v8l66 17h-211q22 -10 40 -22q24 -18 24 -39q-2 -13 -9 -20zM503 369h148v27
q0 26 -26 26h-75q-21 0 -47 -10v-43zM503 296h148v54h-148v-54z" />
    <glyph glyph-name="certer_gu" unicode="&#xe65f;" 
d="M368 476v-18q12 4 24 6q24 8 64 8q66 -5 68 -58v-43l81 39q13 -63 34 -112q11 23 19 48q14 45 14 79q-2 19 -18 19h-66q-14 0 -47 -13l-23 32h72v85h-10q-18 0 -49 -12l-28 32h87v38q0 5 -12 9v11l106 14v-72h7q14 0 49 13l27 -33h-83v-85h35q46 -4 46 -47q0 -30 -18 -75
q-23 -62 -70 -110q44 -57 88 -88l-1 -8q-38 1 -91 28q-22 11 -41 28q-44 -33 -101 -58l-7 6q10 8 18 17h-210q-16 0 -45 -13l-27 32h147q27 56 28 92q-1 4 -9 7v6l89 23q-6 -50 -38 -88q-23 -25 -49 -40h54q12 0 44 13l22 -25q29 30 52 63q-33 42 -59 104q-7 15 -17 20v-34
h-243v105q-1 13 -18 14v11zM509 613l28 -34h-90v-58q18 1 60 15l28 -34h-178q-21 0 -61 -15l-28 34h94v58h-15q-20 0 -56 -15l-28 34h99v2q0 6 -11 11v12l96 19v-44h7q15 0 55 15zM294 301q43 -19 72 -44q19 -16 19 -33q-3 -38 -34 -41q-29 0 -32 44q-6 36 -34 66zM368 335
h67v90q-3 19 -20 19q-21 0 -47 -9v-100z" />
    <glyph glyph-name="certer_jin" unicode="&#xe660;" 
d="M431 650q-3 -17 -8 -33q89 36 136 36q61 0 84 -5q32 -10 46 -38q14 -29 37 -65q10 -14 19 -14q7 0 15 11l10 -11q-32 -35 -70 -36q-36 0 -60 22q-28 27 -47 78q-11 36 -51 36q-37 0 -128 -38q-12 -27 -31 -46q-39 -43 -118 -67l-9 8q57 45 57 92q0 13 -14 23v16zM713 490
l28 -34h-180v-89h128q16 0 56 14l27 -33h-211v-176h96q23 0 81 19l28 -38h-399q-29 0 -81 -19l-28 38h205v176h-115q-20 0 -56 -16l-27 35h198v89h-83q-22 0 -62 -14l-28 33h361q17 0 62 15zM313 324q50 -23 82 -53q23 -19 23 -39q-4 -42 -38 -45q-35 0 -39 50q-7 42 -36 76
zM738 326q-9 -53 -39 -83q-32 -34 -97 -53l-9 8q41 32 41 66q0 11 -13 19v15z" />
    <glyph glyph-name="certer_swimaround" unicode="&#xe661;" 
d="M703 443q-9 36 -31 67v0q11 11 11 26.5t-10.5 26.5t-26 11t-26.5 -11l-2 -2q-30 20 -66 27v4q0 16 -10.5 27t-26 11t-26.5 -11t-11 -27v-3q-38 -6 -71 -27q-2 3 -4 5q-11 11 -26.5 11t-26.5 -11t-11 -26.5t11 -26.5l2 -2q-23 -32 -33 -69q-15 -1 -25.5 -12t-10.5 -26
q0 -14 9 -24.5t23 -12.5q6 -44 30 -82q-7 -10 -5.5 -23t10.5 -23q20 -19 44 -6q5 -3 9 -6l-52 -92h49l40 73q19 -7 40 -11q9 -25 35 -25q13 0 22.5 7.5t13.5 19.5q16 3 32 9l40 -73h49l-52 92q6 4 11 8q24 -10 42 8q19 20 6 44q23 37 29 80q13 2 22 12.5t9 24.5q0 15 -10 26
t-26 12zM523 554q51 -3 90 -36q3 -4 7 -8q4 -5 10 -7q9 -10 16 -21l-82 -47q-15 21 -41 22v97zM508 555v-99q-24 -4 -37 -24l-92 53q21 32 55 50.5t74 19.5zM351 383q7 10 7 22v0v0q0 10 -5 19q5 25 18 48l94 -54q-2 -8 -2 -16v0v-1q0 -11 4 -22l-99 -58q-15 30 -17 62z
M414 266q0 16 -11 27q-10 11 -25 11q-1 2 -3 4l100 58l4 -4l-58 -101q-4 2 -7 5zM542 236q-11 12 -27 12q-17 0 -28 -13q-15 2 -29 7l53 96l53 -96q-10 -4 -22 -6zM647 308q-16 0 -27 -11q-13 -13 -11 -31q-4 -2 -8 -5l-52 93q6 4 11 9l89 -51zM656 325l-87 51q6 12 6 25v1
q0 10 -4 20l83 47q11 -22 15 -45q-4 -9 -4 -19v0v0q0 -12 7 -22q-2 -30 -16 -58z" />
    <glyph glyph-name="certer_yacht" unicode="&#xe662;" 
d="M865 484q-17 21 -44.5 27.5t-69.5 -2.5t-79 -22t-96 -36q-7 -3 -43.5 -18t-48 -19t-45 -17t-49 -18t-45.5 -15t-49.5 -14t-45.5 -9t-48.5 -7t-43.5 -1q1 -57 64 -193h534q4 52 18.5 93.5t31 67.5t31.5 51.5t23.5 58t4.5 73.5zM600 499l-84 -4l-3 26l156 2l40 12l-21 80
q-63 13 -108 12.5t-108 -13.5l-175 -100v-24l-13 -56l-25 -53l-67 -17v-10q70 6 134 27.5t151 62t123 55.5zM682 585l3 -21l-178 -7l-3 25zM432 552l56 30l-1 -30l-55 -25v25zM432 491l54 29v-30l-54 -25v26zM375 522l38 21v-25l-38 -17v21zM375 461l38 20v-24l-38 -18v22z
M315 489l46 26v-21l-46 -24v19zM299 427l62 27v-21l-62 -25v19z" />
    <glyph glyph-name="certer_island" unicode="&#xe663;" 
d="M555 197q8 178 -112 274q-30 24 -54 34q35 15 60.5 1t41 -31t15.5 -20q-1 102 -66 110q-14 1 -26 -2q4 16 25 26.5t40 12.5l18 3q-40 16 -72 16.5t-48.5 -11.5t-28 -26t-14.5 -26l-3 -11q-107 -9 -112 -74q-1 -15 4 -26q12 17 26.5 29.5t22.5 16.5l9 4q-20 -23 -26 -46.5
t-1.5 -41.5t13 -32.5t15 -22t7.5 -7.5q-9 36 -3.5 60t17.5 36l11 12q-3 -32 5.5 -56t21 -35t29.5 -17.5t24.5 -7.5t11.5 -1q-24 37 -34.5 72.5t-9.5 52.5l2 17q34 -12 60 -39t39 -55t21.5 -58.5t10.5 -45.5t2 -18q-50 4 -96.5 -9t-72 -34t-22.5 -41q2 -17 27 -27.5t49 -11.5
l24 -2q202 -1 208 0q3 0 5.5 0.5t11 1.5t15 2.5t15 4t14 5.5t9.5 7t3 9t-7 11q-55 57 -115 23q-10 -5 -10 -6zM680 513zM622 513q0 -24 17 -41t41 -17t41.5 17t17.5 41t-17.5 41.5t-41.5 17.5t-41 -17.5t-17 -41.5zM780 530q-5 0 -9 -2q-2 13 -8 25q6 2 11 6q7 7 7 17.5
t-7 18t-17.5 7.5t-17.5 -8q-3 -3 -5 -7q-14 10 -29 14v4q0 10 -7 17.5t-17.5 7.5t-18 -7.5t-7.5 -17.5q0 -1 1 -4q-10 -2 -20 -8l-2 2q-7 7 -17.5 7t-18 -7t-7.5 -17.5t8 -18.5l1 -1h1q-8 -14 -11 -28h-0.5h-0.5q-11 0 -18 -7.5t-7 -17.5t7 -17.5t18 -7.5q3 0 6 1
q4 -11 11 -20q-2 -2 -3 -2q-7 -7 -7 -17.5t7.5 -18t17.5 -7.5t18 8q2 2 4 6q8 -4 15 -5q-3 -6 -3 -12q0 -10 7.5 -17.5t18 -7.5t17.5 7.5t7 17.5q0 6 -2 12q13 3 25 10q2 -7 7 -12q7 -7 17.5 -7t18 7.5t7.5 17.5t-8 18q-5 5 -12 6q6 10 9 19q6 -4 13 -4q11 0 18 7.5t7 17.5
t-7 17.5t-18 7.5zM680 438q-31 0 -53 22t-22 53t22 53t53 22t53 -22t22 -53t-22 -53t-53 -22z" />
    <glyph glyph-name="certer_chong" unicode="&#xe664;" 
d="M519 714q14 -29 27 -69h226v-59h-293q-46 -85 -84 -130q117 7 233 22q-20 30 -42 59l52 32q72 -96 108 -163l-53 -36q-13 23 -31 55l-60 -7v-165q0 -29 29 -29h64q10 0 20 9q9 9 12 80l60 -19q-11 -96 -26 -111q-18 -16 -49 -18h-99q-72 0 -72 77v170l-81 -7
q-9 -97 -42 -147q-39 -56 -134 -97l-39 50q81 32 116 75q30 37 37 114q-28 -2 -86 -6l-14 57q9 3 13 6q39 25 99 129h-160v59h232q-13 30 -30 58z" />
    <glyph glyph-name="certer_people1" unicode="&#xe665;" 
d="M833 107v0q0 -12 -9 -21t-21 -9h-579q-12 0 -21 9t-9 21v0v0q0 5 0.5 12.5t5 28t12 38.5t23.5 38t39 31q25 12 43.5 14.5t49.5 15.5q17 7 31.5 13t22 10t13 6.5t7.5 3.5l2 1l1 59q-3 2 -7 6t-12 23t-12 43q-9 -2 -14 7.5t-6 23.5q0 1 -1 9.5t-1 14.5t0.5 13t3.5 10t8 2
q-7 49 -5 65q3 36 35 64.5t81 31.5q55 -3 83.5 -30.5t32.5 -65.5q1 -15 -6 -65q5 1 8 -2t3.5 -10t0.5 -13t-1 -14.5t-2 -9.5q0 -13 -5 -23t-15 -8q-3 -24 -10.5 -42t-13.5 -24l-6 -6v-58q15 -9 77 -34q30 -13 48.5 -16t44.5 -15q22 -11 38.5 -31t24 -38t12 -38.5t5 -28.5
t0.5 -12v0z" />
    <glyph glyph-name="icon-tour" unicode="&#xe666;" 
d="M572 387v42q-39 6 -124.5 -19.5t-119.5 -43.5l-10 -8v-271l-2 -1q-3 -11 -12 -18t-21 -7h-0.5h-0.5v0v0q-12 0 -20.5 7.5t-11.5 17.5l-1 1v598q0 8 18 14.5t29 6.5h11.5h9h4.5q18 1 43 0t55 -4.5t55 -7t43 -6.5t17 -3q23 0 38 -16v0h1q12 -11 15 -25q1 -2 1 -5
q0 -6 2 -7.5t11 -0.5q17 -2 42.5 3.5t47.5 12t42.5 10t32 -2t11.5 -22.5v-242q0 -1 -17 -6t-44 -10t-55 -8.5t-53.5 1.5t-36.5 20zM325 677q-5 14 -7 3v-307q5 -3 7 3q21 50 25.5 114t-3.5 113.5t-22 73.5z" />
    <glyph glyph-name="icon-travel" unicode="&#xe667;" 
d="M613.5 573q-25.5 0 -43 -17.5t-17.5 -43t17.5 -43t43 -17.5t43 17.5t17.5 43t-17.5 43t-43 17.5zM737 700h-450q-25 0 -43 -17.5t-18 -43.5v-513q0 -26 18 -43.5t43 -17.5h450q26 0 43.5 17.5t17.5 43.5v513q0 26 -17.5 43.5t-43.5 17.5zM322 568q0 9 6 15t15 6h100
q9 0 15.5 -6t6.5 -15v-21q0 -9 -6.5 -15.5t-15.5 -6.5h-100q-9 0 -15 6.5t-6 15.5v21zM322 472q0 9 6 15.5t15 6.5h100q9 0 15.5 -6.5t6.5 -15.5v-21q0 -8 -6.5 -14.5t-15.5 -6.5h-100q-9 0 -15 6.5t-6 14.5v21zM703 213q0 -9 -6 -15t-15 -6h-339q-9 0 -15 6t-6 15v21
q0 9 6 15t15 6h339q9 0 15 -6t6 -15v-21zM703 324q0 -8 -6 -14.5t-15 -6.5h-339q-9 0 -15 6.5t-6 14.5v21q0 9 6 15.5t15 6.5h339q9 0 15 -6.5t6 -15.5v-21zM615.5 414q-42.5 0 -73 30.5t-30.5 73t30.5 73t73 30.5t73 -30.5t30.5 -73t-30.5 -73t-73 -30.5z" />
    <glyph glyph-name="icon-food" unicode="&#xe668;" 
d="M797 119h-576q-15 0 -25 10.5t-10 24.5v11q0 15 10 25t25 10h576q15 0 25 -10t10 -25v-11q0 -14 -10 -24.5t-25 -10.5zM797 246h-576q-15 0 -25 10t-10 25v11q0 15 10 25t25 10h14q10 82 63 144.5t131 85.5q-1 4 -1 6v12q0 31 22 53t53 22h12q31 0 53 -22t22 -53v-12
q0 -2 -1 -6q78 -23 131 -85.5t64 -144.5h13q15 0 25 -10t10 -25v-11q0 -15 -10 -25t-25 -10zM440 477q-20 -9 -46 -28q-13 -10 -25 -23t-18 -21l-5 -8q-6 -13 -2 -23l7 -10q14 -5 19 -1q24 34 54 56q11 9 26 15.5t24 8.5l9 2q5 3 5.5 9.5t-2.5 10.5l-8 11q-5 7 -38 1z
M509 615q-19 0 -32.5 -13.5t-13.5 -32.5v-2v-2q23 4 46 4t46 -4v2v2q0 19 -13.5 32.5t-32.5 13.5z" />
    <glyph glyph-name="icon-gift" unicode="&#xe669;" 
d="M513 500v0v0zM527 505h5q5 10 17 38t24 50q10 18 19.5 25t15.5 5.5t14 -6.5q9 -7 7.5 -16t-15.5 -24q-9 -9 -29 -27t-37 -32l-16 -13h41q7 0 73 56q16 13 20.5 27t0.5 21l-4 8q-2 3 -4.5 8.5t-15.5 16.5t-29 14q-18 4 -33.5 -5t-27 -27.5t-17.5 -31.5t-10 -25
q15 -47 1 -62zM756 500h-239h-4v0h-53v0v0h-191q-13 0 -22.5 -9.5t-9.5 -22.5v-85q0 -13 9.5 -22t22.5 -9v-265q0 -9 6 -15.5t15 -6.5h445q9 0 15 6.5t6 15.5v265q14 0 23 9t9 22v85q0 13 -9 22.5t-23 9.5zM470 108h-159v254h159v-254zM470 383h-191v75h191v-75zM714 108
h-159v254h159v-254zM746 383h-191v75h191v-75zM513 500v0q-80 66 -106 95q-18 21 -20.5 32.5t9.5 20.5q7 6 13 8t14 1t17.5 -11.5t19.5 -28.5q15 -30 30.5 -67t22.5 -50h4q6 1 10 5q-21 5 -3 56q0 2 2 6q-1 3 -3 7v1l-6.5 19.5t-15 34t-23.5 39.5t-31.5 27t-39.5 6
q-22 -5 -38 -18t-21 -24l-5 -11q-1 -1 -2.5 -3.5t-3.5 -10.5t-0.5 -16.5t8 -20.5t19.5 -23q4 -3 12 -10q74 -64 84 -64v0h53z" />
    <glyph glyph-name="icon-attraction" unicode="&#xe66a;" 
d="M673 635l-54 54q-7 7 -18 7t-19 -7l-318 -318q-8 -8 -8 -19t8 -19l45 -46q89 6 100 -5.5t6 -99.5l55 -55q7 -8 18 -8t19 8l318 318q8 8 8 19t-8 19l-63 63q-72 -3 -82 7t-7 82zM678 415q6 -6 6 -14t-6 -14l-113 -113q-5 -5 -13.5 -5t-14.5 5l-20 21q-6 6 -6 14t6 14
l113 113q5 5 13.5 5t14.5 -5zM574 520q5 -6 5 -14t-5 -14l-113 -113q-6 -6 -14.5 -6t-13.5 6l-21 20q-6 6 -6 14.5t6 14.5l113 112q6 6 14 6t14 -6z" />
    <glyph glyph-name="certer_car1" unicode="&#xe66b;" 
d="M753 382l-26 102q-20 64 -44.5 83t-72.5 19h-13v46q0 18 -12.5 30.5t-30.5 12.5h-82q-18 0 -30.5 -12.5t-12.5 -30.5v-46h-26q-42 0 -64.5 -23t-39.5 -79l-26 -102q-2 0 -6.5 -0.5t-15.5 -4t-19.5 -10t-15.5 -21.5t-7 -35v-61q0 -24 14.5 -43t36.5 -25v-93h78v89h350v-89
h78v93q23 6 37.5 25t14.5 43v61q0 16 -7 29.5t-16.5 21t-19 12.5t-16.5 6zM455 625q0 9 8.5 16.5t20.5 7.5h58q12 0 20.5 -7.5t8.5 -16.5v-36h-116v36zM347 462q8 29 12 40t12.5 24t19.5 16.5t29 3.5h175q38 0 56 -15.5t36 -69.5l17 -79h-382zM306 255q-19 0 -32.5 13
t-13.5 31.5t13.5 31.5t32.5 13t32 -13t13 -31.5t-13 -31.5t-32 -13zM733.5 255q-18.5 0 -32 13t-13.5 31.5t13.5 31.5t32 13t32 -13t13.5 -31.5t-13.5 -31.5t-32 -13zM564 484v0h-3h-1h-0.5h-0.5v0h-1v0h-1h-1h-3v0q-25 -2 -42 -20.5t-17 -43.5q0 -6 1 -13h127q1 7 1 13v0
q0 25 -17 43.5t-42 20.5z" />
    <glyph glyph-name="icon-hotel" unicode="&#xe66c;" 
d="M560 95h-336q-5 0 -8.5 3.5t-3.5 8.5v35q0 5 3.5 8.5t8.5 3.5h12v481q0 15 10.5 25.5t25.5 10.5h252q15 0 25.5 -10.5t10.5 -25.5v-192h217q15 0 25.5 -11t10.5 -25v-312h-253zM476 515q0 10 -7 17t-17 7h-96q-10 0 -17 -7t-7 -17v-12q0 -10 7 -17t17 -7h96q10 0 17 7
t7 17v12zM476 407q0 10 -7 17t-17 7h-96q-10 0 -17 -7t-7 -17v-12q0 -10 7 -17.5t17 -7.5h96q10 0 17 7.5t7 17.5v12zM476 286q0 10 -7 17t-17 7h-96q-10 0 -17 -7t-7 -17v-12q0 -10 7 -17t17 -7h96q10 0 17 7t7 17v12zM705 298q0 10 -7 17t-17 7h-12q-10 0 -17 -7t-7 -17
v-108q0 -10 7 -17t17 -7h12q10 0 17 7t7 17v108z" />
  </font>
</defs>
</svg>
