<?xml version="1.0" standalone="no"?>
<!DOCTYPE svg PUBLIC "-//W3C//DTD SVG 1.1//EN" "http://www.w3.org/Graphics/SVG/1.1/DTD/svg11.dtd" >
<svg xmlns="http://www.w3.org/2000/svg">
<metadata>
Created by FontForge 20120731 at Fri Jun 17 14:44:46 2016
 By admin
</metadata>
<defs>
<font id="iconfont" horiz-adv-x="1024" >
  <font-face 
    font-family="iconfont"
    font-weight="500"
    font-stretch="normal"
    units-per-em="1024"
    panose-1="2 0 6 3 0 0 0 0 0 0"
    ascent="896"
    descent="-128"
    x-height="792"
    bbox="0 -154 1170 896"
    underline-thickness="50"
    underline-position="-100"
    unicode-range="U+0078-E7BC"
  />
<missing-glyph horiz-adv-x="374" 
d="M34 0v682h272v-682h-272zM68 34h204v614h-204v-614z" />
    <glyph glyph-name=".notdef" horiz-adv-x="374" 
d="M34 0v682h272v-682h-272zM68 34h204v614h-204v-614z" />
    <glyph glyph-name=".null" horiz-adv-x="0" 
 />
    <glyph glyph-name="nonmarkingreturn" horiz-adv-x="341" 
 />
    <glyph glyph-name="x" unicode="x" horiz-adv-x="1001" 
d="M281 543q-27 -1 -53 -1h-83q-18 0 -36.5 -6t-32.5 -18.5t-23 -32t-9 -45.5v-76h912v41q0 16 -0.5 30t-0.5 18q0 13 -5 29t-17 29.5t-31.5 22.5t-49.5 9h-133v-97h-438v97zM955 310v-52q0 -23 0.5 -52t0.5 -58t-10.5 -47.5t-26 -30t-33 -16t-31.5 -4.5q-14 -1 -29.5 -0.5
t-29.5 0.5h-32l-45 128h-439l-44 -128h-29h-34q-20 0 -45 1q-25 0 -41 9.5t-25.5 23t-13.5 29.5t-4 30v167h911zM163 247q-12 0 -21 -8.5t-9 -21.5t9 -21.5t21 -8.5q13 0 22 8.5t9 21.5t-9 21.5t-22 8.5zM316 123q-8 -26 -14 -48q-5 -19 -10.5 -37t-7.5 -25t-3 -15t1 -14.5
t9.5 -10.5t21.5 -4h37h67h81h80h64h36q23 0 34 12t2 38q-5 13 -9.5 30.5t-9.5 34.5q-5 19 -11 39h-368zM336 498v228q0 11 2.5 23t10 21.5t20.5 15.5t34 6h188q31 0 51.5 -14.5t20.5 -52.5v-227h-327z" />
    <glyph glyph-name="uniE603" unicode="&#xe603;" 
d="M193 195l4 5l149 149q13 12 27 7q13 -4 16.5 -16.5t-5.5 -22.5l-5 -5l-183 -183q-4 -4 -4 -9l1 -32q0 -12 7 -19t19 -8h164h138h7q-5 5 -5 6q-136 135 -173 173q-12 12 -8 26q3 13 16 17t23 -5q2 -1 5 -5q71 -70 111 -111l3 -3q24 22 252 249l-4 3q-15 9 -12 26
q2 8 8 13.5t14 5.5q44 1 61 0q28 -3 46.5 -24t18.5 -50v-207v-87q0 -33 -21.5 -54.5t-54.5 -21.5h-589q-33 0 -54.5 21.5t-21.5 54.5v293q0 32 22 54t54 22h48q9 -1 16 -6.5t8 -14.5q1 -10 -4 -17.5t-14 -10.5q-3 -1 -9 -1h-22h-22q-27 0 -27 -27v-90v-89v-2v-4zM818 405
q-265 -264 -281 -282l36 -36q15 -15 15 -26h5h214q28 0 28 29v289q0 4 -1 5q-1 17 -16 21zM713 555q-1 -47 -22 -89q-29 -60 -73 -106q-39 -41 -69 -70q-16 -15 -35.5 -15t-35.5 15q-64 60 -98 103q-44 59 -59 112q-22 83 25 157t132 89q82 14 149.5 -33t81.5 -128
q1 -2 4 -35zM513 324l4 4q57 58 64 65q39 40 65 92q21 43 16 89q-8 63 -60.5 101.5t-114.5 26.5q-48 -9 -81 -43.5t-39.5 -78.5t12.5 -91q26 -53 61 -90q5 -5 73 -75zM513.5 506q-20.5 0 -35 14.5t-14.5 35t14.5 35t35 14.5t35 -14.5t14.5 -35t-14.5 -35t-35 -14.5z" />
    <glyph glyph-name="uniE604" unicode="&#xe604;" 
d="M513 704h320q27 -1 47.5 -17t26.5 -42q1 -8 1 -17v-491q0 -32 -21.5 -53.5t-53.5 -21.5q-314 -1 -640 0q-32 0 -53.5 21.5t-21.5 53.5v491q0 32 22 54t54 22h100h119h100zM514 654h-183h-136q-14 0 -22 -9q-5 -7 -5 -19v-486v-6q0 -11 10 -18q6 -5 19 -5h583h52
q11 0 18 6q9 7 9 22v486q0 29 -29 29h-316zM729 382h-50q-39 -1 -74 -29q-33 -27 -50 -39q-34 -23 -73 -29q-10 -1 -18 -1q-52 -1 -68 0q-27 1 -54 -14q-20 -12 -36 -28q-20 -22 -47 -49q-7 -8 -17 -8t-17.5 7t-8 16.5t6.5 17.5q45 48 62 63q39 37 91 43q7 1 17 1h66
q22 -1 45 10q33 15 57 37q38 35 76 45q24 6 43 7h102q17 0 24 -15q6 -14 -5 -26q-7 -8 -19 -8h-53v-1zM365.5 555q20.5 0 35 -14.5t14 -35t-15 -34.5t-34.5 -14t-34.5 14.5t-14.5 34.5t14.5 34.5t35 14.5z" />
    <glyph glyph-name="uniE609" unicode="&#xe609;" 
d="M513 729h294q26 0 46 -14t27 -38q4 -11 4 -22v-420q0 -30 -21.5 -51.5t-51.5 -22.5h-4h-588q-27 0 -47.5 15.5t-26.5 41.5q-2 8 -2 19v416q0 33 21.5 54.5t55.5 21.5h293zM192 334h642v6v311q0 29 -28 29h-585q-29 0 -29 -28v-312v-6zM193 284v-52q0 -8 6 -14t14 -7
q3 -1 9 -1h583h5q11 1 17.5 8t6.5 18v45v3h-641zM513 38h-242q-8 0 -11 1q-9 2 -14 9.5t-4 16.5t7.5 15t15.5 7h5h487q7 0 12 -2q19 -6 16 -27q-2 -8 -8.5 -14t-14.5 -6h-8h-241z" />
    <glyph glyph-name="uniE60B" unicode="&#xe60b;" 
d="M513 555h270q26 0 46 -14.5t26 -38.5q3 -11 3 -24q1 -139 1 -340q0 -52 -50 -72q-3 -2 -4 -5q-14 -35 -49 -45.5t-65 11.5q-17 12 -24 31q-2 4 -6 4q-149 -1 -296 0q-4 0 -6 -4q-9 -22 -28.5 -34t-42.5 -12q-22 1 -40.5 14.5t-26.5 34.5q-1 4 -5 5q-23 9 -36 27.5
t-13 43.5v84v258q0 28 15.5 48t41.5 26q9 2 20 2h269zM760 111h22q27 0 27 27v341q0 27 -27 27h-539q-5 0 -8 -1q-18 -5 -18 -26v-341v-2q0 -11 6.5 -17.5t17.5 -7.5h12h4h5h4v-26q1 -11 9.5 -18t19.5 -5q20 4 20 24v25h395q0 -22 1 -23q0 -11 7 -19t17.5 -7.5t17.5 8
t7 18.5v23zM513 704h-96q-28 0 -28 -27v-23v-23q0 -11 -7 -18.5t-17.5 -7.5t-17.5 7.5t-7 18.5v47q0 32 21.5 53.5t52.5 21.5h197q31 0 52.5 -21t22.5 -52v-49q0 -11 -7 -18.5t-17.5 -7.5t-17.5 7t-8 18v23v23q0 27 -27 28h-96zM636 309v96q0 21 18 26q11 3 20.5 -3
t10.5 -17q1 -3 1 -5v-195q0 -20 -18 -25q-11 -3 -20.5 3t-10.5 17q-1 3 -1 8v95zM389 309v-99q0 -13 -10 -20.5t-22 -3.5q-16 6 -17 22v4v193q0 13 8 20q12 11 26 5q15 -6 15 -21v-29v-71z" />
    <glyph glyph-name="uniE60C" unicode="&#xe60c;" 
d="M513 38h-293q-41 -1 -64 31q-14 18 -14 42v421q0 30 21.5 51.5t51.5 21.5h14h578q26 0 46 -14.5t27 -38.5q3 -10 3 -23v-138v-278q0 -27 -16 -47.5t-42 -25.5q-8 -2 -20 -2h-292zM192 358v-5v-239q0 -13 7 -20t20 -7h588q27 0 27 27v239v5h-124v-23q0 -14 -10 -21
q-12 -9 -25 -2q-14 6 -14 22v24h-296q0 -22 -1 -24q-1 -9 -5 -15q-9 -14 -27 -9q-16 6 -17 23v25h-123zM192 408h642v6v114q0 28 -28 28h-587q-27 0 -27 -28v-114v-6zM513 729h122q28 0 48.5 -17t25.5 -44q2 -9 1 -16q-1 -9 -8 -15.5t-16 -6.5t-16 6t-9 16q0 1 -0.5 4
t-0.5 5q-3 16 -20 18q-3 1 -7 1h-240q-26 0 -29 -27q0 -10 -7.5 -16.5t-17.5 -6.5t-17 7t-7 17q0 30 21.5 52.5t51.5 22.5h125z" />
    <glyph glyph-name="uniE60D" unicode="&#xe60d;" 
d="M441 587q-28 33 -26 72.5t31 66.5q28 27 66.5 27.5t67.5 -26.5q30 -27 32 -66.5t-26 -73.5q72 -44 76 -130h8q47 1 81 -9q52 -17 91 -55q8 -8 8.5 -18t-7 -17.5t-17.5 -7.5t-18 8q-52 50 -125 50h-161h-141q-49 -1 -59 -2q-86 -9 -130 -83q-22 -37 -24 -79t13.5 -78
t48 -63.5t74.5 -36.5q18 -4 61 -4q3 85 76 130q-30 34 -26 78q4 39 34 65q30 25 67.5 23.5t65.5 -27.5q28 -27 30 -66.5t-27 -72.5q36 -21 56 -55t21 -74l1 -1q88 -5 144 49q57 57 51 137q0 11 1 16q2 8 9.5 13t16.5 4.5t15 -7t7 -15.5q10 -142 -109 -216q-49 -30 -113 -30
q-230 -1 -307 -1q-46 1 -62 2q-108 13 -165 105q-30 48 -32.5 103.5t18.5 102.5t64 82.5t99 46.5q22 4 60 3q5 0 6 5q3 79 72 122q0 1 2 2zM612 63v4q-4 54 -51 81q-8 5 -23.5 13.5t-20.5 11.5q-4 2 -7 0q-7 -4 -22 -12t-23 -13q-29 -16 -43 -48q-8 -19 -7 -37h197zM612 458
q-3 57 -49 85q-13 7 -46 25q-4 2 -7 0q-31 -17 -46 -26q-37 -21 -47 -63q0 -1 -3 -21h198zM513 188q36 37 38 40q13 14 12 33.5t-15 33t-33 14.5t-34 -12t-17 -32.5t10 -34.5q2 -3 39 -42zM513 583q31 32 35 36q3 4 5 6q13 18 9 40q-4 15 -15 26t-26 12q-36 5 -52 -26
q-15 -31 9 -56q2 -3 15 -17l11 -12q8 -7 9 -9z" />
    <glyph glyph-name="uniE60F" unicode="&#xe60f;" 
d="M514 408h316q7 0 11 -1q9 -2 14 -10t4 -17t-7.5 -15t-15.5 -6q-1 -1 -5 -1h-635q-22 0 -27 19q-3 11 3.5 20.5t17.5 10.5h8h316zM315 729h74q17 0 23 -15q7 -14 -3 -26q-7 -8 -19 -8h-12h-14h-11h-107q-29 0 -29 -29v-144q0 -13 -10.5 -20.5t-22.5 -3.5q-16 6 -16 23v152
q0 29 21.5 49.5t50.5 21.5h75zM314 38h-73q-26 0 -45.5 16t-25.5 41q-2 8 -2 16v147q0 12 7 19t17.5 7.5t17.5 -7t7 -19.5v-72v-71q0 -28 28 -28h144q10 0 17 -6t9 -16q1 -11 -6.5 -19t-18.5 -8h-76zM713 38h-76q-11 0 -18 7.5t-7 18.5q1 9 8 16t17 7h51h94q28 0 28 28v71
v73q0 20 18 25q12 3 21.5 -4.5t9.5 -20.5v-148q0 -4 -1 -11q-3 -25 -23 -43t-45 -19h-77zM859 583v-77q0 -18 -18.5 -23t-26.5 11q-4 7 -4 15v141q0 30 -29 30h-142q-12 0 -19 6.5t-8 16.5q0 11 7 18.5t18 7.5h26h121q27 0 47.5 -16t25.5 -43q2 -7 2 -17v-70z" />
    <glyph glyph-name="uniE611" unicode="&#xe611;" 
d="M513 62h-294q-26 0 -46 14.5t-27 38.5q-3 10 -3 22v492q0 31 21 52.5t52 22.5h219h30q9 -1 15.5 -6.5t7.5 -14.5q2 -9 -2.5 -16.5t-13.5 -10.5q-5 -2 -11 -2q-182 0 -240 1q-13 0 -21 -8t-8 -21v-487q0 -28 28 -28h586q28 0 28 28v45v54v45q0 23 22 26q11 1 19.5 -6
t8.5 -18q0 -114 -1 -153q0 -29 -22 -49.5t-54 -20.5h-294zM832 620l-3 -5q-57 -58 -173 -173l-172 -173q-11 -11 -24 -9q-14 2 -19 15.5t4 24.5l5 5q29 29 153.5 153t190.5 191l5 5h-6h-130q-14 0 -21.5 10t-3.5 22q5 17 22 18h4h169q37 0 48 -34q3 -8 3 -16v-171
q0 -11 -7 -18.5t-17.5 -7.5t-18 7.5t-7.5 18.5v130v5z" />
    <glyph glyph-name="uniE613" unicode="&#xe613;" 
d="M513 -13q-138 1 -246 86.5t-139 220.5q-23 104 7.5 203.5t106 172t178.5 96.5q150 36 288 -40q19 -10 13 -29q-3 -9 -10 -14t-15 -4q-6 1 -14 5q-56 31 -115 40q-141 21 -254 -61q-115 -82 -139 -220q-25 -136 50.5 -250.5t207.5 -146.5q90 -22 178 3.5t151.5 91
t86.5 155.5q34 132 -33 255q-5 10 -5 17q2 18 20 22q17 4 27 -12q17 -30 29 -64q23 -64 23 -131.5t-21.5 -128t-59.5 -112t-94 -89t-123 -54.5q-47 -12 -98 -12zM464 317l4 6q23 23 82.5 82t91.5 91q12 12 25 9q14 -3 18 -16t-5 -24q0 -1 -3 -4q-113 -112 -193 -192
q-20 -20 -40 0l-95 95q-11 11 -7.5 24.5t17.5 17.5t25 -7q12 -13 37.5 -38t38.5 -38z" />
    <glyph glyph-name="uniE614" unicode="&#xe614;" 
d="M525 777q93 0 183 -51q18 -10 13 -29q-3 -9 -10 -14t-15 -4q-7 1 -14 5q-55 30 -112 39q-142 22 -256.5 -59t-140.5 -220q-16 -90 13.5 -175t96.5 -145t157 -80q94 -20 182.5 9.5t149 97.5t79.5 158q27 126 -36 241q-6 11 -5 19q3 18 20 21q18 3 26 -12q23 -46 28 -61
q37 -101 18 -206.5t-90 -186.5q-92 -106 -230 -131q-102 -18 -198 15.5t-164 109t-92 176.5q-24 104 7.5 205t108.5 173t182 96q43 9 99 9zM514 348l-10 -10l-12 -12l-59 -59q-11 -11 -25 -7.5t-17 18.5q-4 13 8 24q14 15 75 76q1 0 4 4l-4 4q-14 14 -39.5 40t-36.5 37
t-6.5 25.5t19.5 16.5q12 2 22 -8q14 -13 39 -39l37 -36q0 -1 4 -5l4 4l77 77q17 16 34 2q9 -7 9 -18t-8 -19l-31 -31q-36 -36 -45 -46q-1 0 -5 -3q4 -5 5 -5q72 -73 76 -76q10 -11 7 -25t-17 -17q-14 -4 -25.5 7t-24 24t-28 28t-23.5 24z" />
    <glyph glyph-name="uniE61F" unicode="&#xe61f;" 
d="M355 50q-82 0 -140 47.5t-69 121.5q-15 98 53 168q32 32 250 249q8 8 18 8t18 -7.5t7.5 -17.5t-8.5 -18q-160 -160 -245 -244q-28 -28 -40 -64q-20 -65 17 -123.5t103 -68.5q78 -11 133 44q61 61 178 177.5t173 171.5q25 25 30 59q5 38 -17 70t-60 40q-59 13 -100 -32
q-1 -2 -13 -14l-245 -243q-14 -14 -16 -32.5t9 -34.5q14 -17 36 -19.5t38 12.5q2 1 6 5l154 154q12 12 27 7q12 -3 16 -15.5t-4 -22.5q-1 -2 -3 -4q-145 -144 -159 -158q-27 -26 -62.5 -28.5t-65 18t-38.5 56.5q-15 55 27 97q9 9 97 96q137 136 158 157q22 23 37 31
q33 21 71 22.5t70 -13.5t55.5 -44.5t29.5 -68.5q12 -75 -41 -127q-136 -137 -356 -354q-57 -57 -129 -58z" />
    <glyph glyph-name="uniE624" unicode="&#xe624;" 
d="M834 357v-270q0 -27 -16 -47t-42 -26q-8 -2 -19 -2h-244h-244q-29 0 -50 17t-26 43q-1 7 -1 15v541q0 32 21.5 53.5t52.5 21.5q15 1 24 0q11 0 18 -7t7 -17.5t-7 -17.5t-18 -7h-11h-10q-28 0 -28 -28v-164v-373q0 -23 19 -27q3 -1 8 -1h490q12 0 19 7.5t7 19.5v539
q0 27 -27 27h-11h-11q-11 0 -18 7.5t-7 17.5t7.5 17t17.5 7q30 0 38 -1q27 -5 44 -25.5t17 -48.5v-271zM478 407l-5 5q-12 13 -37.5 38t-38.5 38q-11 11 -6 25q4 14 18 17q13 3 24 -8q13 -13 38 -38.5t37 -36.5q0 -1 5 -6q3 5 4 5q13 13 38 38.5t37 37.5q11 11 24 8
q14 -3 18 -17q5 -13 -5 -24l-22 -22l-55 -55l-5 -3q1 -1 1 -2h6h57q18 0 23.5 -16.5t-7.5 -27.5q-7 -5 -18 -5h-65h-6v-50h5h69q9 0 16 -6t8 -15q1 -10 -4.5 -17.5t-14.5 -9.5q-3 -1 -9 -1h-65h-6v-6v-67q0 -15 -11.5 -22.5t-24.5 -0.5t-13 24v66v6h-6h-69q-9 0 -15.5 6
t-8.5 15q-1 9 3.5 16.5t12.5 10.5q5 1 11 1h66h5v50h-5h-67q-13 0 -20.5 9.5t-4.5 22.5q5 17 25 17h56h7zM513 605h-96q-24 0 -38 14t-15 38v45q1 22 15 36.5t36 14.5h195q22 0 36.5 -14.5t14.5 -36.5v-46q0 -23 -14.5 -37t-37.5 -14h-96zM611 703h-197v-49h197v49z" />
    <glyph glyph-name="uniE625" unicode="&#xe625;" horiz-adv-x="1171" 
d="M73 750v-732q0 -27 23 -50t50 -23h878q33 0 53 20t20 53v732q0 27 -23 50t-50 23h-878q-33 0 -53 -20t-20 -53zM0 750q0 60 43 103t103 43h878q60 0 103 -43t43 -103v-732q0 -60 -43 -103t-103 -43h-878q-60 0 -103 43t-43 103v732zM37 55l285 344q22 22 46.5 22
t41.5 -22l212 -271l205 205q21 22 50 20.5t45 -28.5l212 -270l-37 -124l-987 -22zM768 567zM658 566.5q0 45.5 32.5 78t77.5 32.5t77.5 -32.5t32.5 -78t-32.5 -77.5t-77.5 -32t-77.5 32t-32.5 77.5z" />
    <glyph glyph-name="uniE626" unicode="&#xe626;" 
d="M785 234v7v433q0 29 -29 29h-486q-28 0 -28 -28v-585q0 -29 28 -29h266q24 0 27 -22q1 -10 -5.5 -18t-16.5 -9h-5h-268q-26 0 -46 15t-27 40q-2 9 -2 19q-1 283 0 593q0 30 21 52t52 22h495q30 0 51.5 -21.5t21.5 -51.5v-58q1 -305 1 -412q0 -21 -15 -35
q-100 -101 -148 -148q-10 -10 -32 -14q-12 -3 -20 5t-8 20v146q0 22 14.5 36t36.5 14h115h7zM662 89q46 47 95 95h-95v-95zM513 605h147q19 0 25 -16q4 -12 -3 -22.5t-19 -11.5h-5h-289q-7 0 -12 2q-19 6 -16 27q1 8 7 14t15 6q2 1 7 1h143zM513 407h-145q-12 0 -18 6
q-13 10 -8 26t22 17q1 1 4 1h291q21 0 26 -19q3 -11 -3 -20t-17 -11h-8h-144zM452 308h86q16 0 22 -14q7 -13 -2 -25q-8 -10 -21 -10h-141h-30q-11 0 -18 7t-7 17.5t7 17.5t18 7h86z" />
    <glyph glyph-name="uniE628" unicode="&#xe628;" 
d="M834 383v-294q0 -26 -14.5 -46t-38.5 -27q-11 -3 -23 -3h-490q-28 0 -49 16.5t-26 44.5q-1 6 -1 17v378v209q0 26 15 46t40 27q10 2 21 2q232 1 489 1q30 -1 50.5 -18.5t25.5 -46.5q1 -4 1 -13v-182v-111zM241 457v-5v-363q0 -27 27 -27h489q27 0 27 28v361v6h-72
q37 -77 15 -157q-21 -80 -91 -127q-58 -39 -128.5 -37t-127.5 44q-57 43 -78 109q-28 85 11 168h-72zM686 358q0 71 -50.5 122t-121.5 51q-72 0 -123 -50t-51 -122t50.5 -123t122.5 -51q71 0 122 51t51 122zM784 507v6v163q0 28 -27 28h-488q-28 0 -28 -27v-165l1 -5h6h61
q20 0 28 -13q70 86 175.5 86t176.5 -86q8 13 26 13h45h24zM340 655h24q11 -1 18 -7.5t7 -17t-7 -18t-18 -7.5h-48q-11 0 -18 7.5t-7 18t7 17t18 7.5h24z" />
    <glyph glyph-name="uniE629" unicode="&#xe629;" 
d="M119 382.5q0 107.5 53 198.5t144 143.5t198 52.5t198 -53t144 -143.5t53 -198t-53 -198.5t-144 -144t-198.5 -53t-198.5 53t-143.5 144t-52.5 198.5zM387 290q-31 -55 -94 -100q7 -8 23 -25q59 42 96 105q46 -49 50 -53q1 1 8.5 11.5t11.5 16.5l-26 25q-18 19 -29 29
q16 32 26.5 73t14 69t7.5 77h-80q3 15 9 49t10 52q-24 2 -37 3q0 -30 -14 -106q-12 1 -35.5 2t-28.5 1v-33q8 0 27.5 1t30.5 1q-18 -80 -47 -144q51 -31 77 -54zM507 369v-108v-108h33v29h153v-29h34q-3 96 0 216h-220zM484 438q4 -25 4 -28q1 -5 6 -5q8 1 23.5 2.5
t21.5 2.5q71 7 87 8q28 4 83 11q4 1 6 -3q3 -6 17 -35q0 -1 3 -6q4 3 14 9l15 9q-39 78 -94 150q-11 -6 -28 -15q40 -51 56 -82q-79 -11 -160 -16q42 77 78 174q-18 5 -38 11q-5 -22 -5 -23q-18 -62 -58 -141q-11 -21 -29 -22zM442 488q-13 -115 -40 -169q-39 27 -51 36
q-2 1 -1 5q3 10 13.5 41.5t15.5 49.5q2 6 5 18t4 15.5t3 3.5h51zM540 212v126h153v-126h-153z" />
    <glyph glyph-name="uniE62A" unicode="&#xe62a;" 
d="M135 561q0 14 9 23q88 81 199 117q104 35 212 26q186 -15 326 -143q17 -15 7 -32q-6 -11 -17.5 -12.5t-21.5 6.5q-47 40 -60 49q-96 66 -210 80q-227 28 -399 -126q-14 -12 -27 -8q-8 2 -13 8t-5 12zM513 38q-61 0 -104.5 43t-43.5 105q0 61 43 104.5t104 43.5
q62 0 105.5 -43t44 -104.5t-43 -105t-105.5 -43.5zM612 185.5q0 40.5 -29 69.5t-70 29.5t-70 -29t-28 -70.5q0 -40 28.5 -69t69.5 -29t70 29t29 69.5zM512 532q145 -3 247 -103q12 -12 7 -27q-5 -14 -20 -17q-12 -2 -22 9q-29 28 -62 48q-76 44 -163 40q-114 -6 -196 -88
q-10 -10 -23 -9q-14 3 -19 17t6 25q23 25 52 44q74 51 165 59q1 0 28 2z" />
    <glyph glyph-name="uniE62E" unicode="&#xe62e;" 
d="M887 896h-750q-12 0 -22.5 -1t-33.5 -8t-39 -20t-29 -41t-13 -67v-750q0 -39 15 -67t33 -41t41.5 -20t32.5 -8t15 -1h750q39 0 67 14.5t41 33t20 42t8 32.5t1 15v750q0 39 -13 67t-29 41t-39 20t-33.5 8t-22.5 1zM956 9q0 -3 -0.5 -7.5t-4 -16.5t-10 -21t-20.5 -16.5
t-34 -7.5l-257 268l-140 -121l-211 195l-211 -195v672q0 20 6 33.5t13 20.5t18 10.5t17 4t15 0.5h750q9 0 15 -0.5t17.5 -4t18 -10.5t12.5 -20.5t6 -33.5v-750zM683 623q-57 0 -97 -40t-40 -96.5t40 -97t96.5 -40.5t96.5 40.5t40 97t-40 96.5t-96 40z" />
    <glyph glyph-name="uniE631" unicode="&#xe631;" 
d="M637 86h-248q-4 -13 -4 -14q-9 -28 -34 -45t-55 -14q-30 2 -52.5 23t-26.5 50q0 4 -4 6q-46 21 -46 69v420q0 64 42.5 112.5t105.5 57.5q12 2 25 2h345q63 0 111.5 -40.5t59.5 -102.5q2 -14 2 -29v-420q0 -23 -12 -41.5t-34 -27.5q-4 -2 -4 -5q-4 -31 -27.5 -52.5
t-54.5 -22.5q-32 -1 -57 18.5t-31 50.5zM809 383v5v191q0 11 -1 19q-8 46 -42.5 76t-81.5 30q-181 0 -343 -1q-15 0 -27 -2q-43 -10 -70.5 -43.5t-27.5 -77.5v-192q0 -1 1 -5h592zM760 136h5h18q12 0 19 7t7 19v167v4h-593v-6v-88v-77q0 -12 7 -19t20 -7h9h9l5 -1v-7v-33
q1 -14 11.5 -23.5t24.5 -9.5q14 -1 24.5 8t12.5 23q0 2 1 36v7h345v-6v-31q1 -18 14 -29t30 -8q13 3 21.5 13t9.5 24v37zM512 605h-146q-12 0 -19 7t-7 18q0 9 6.5 16.5t16.5 7.5h5h289h8q10 -2 15.5 -9.5t4.5 -17.5q-1 -9 -8 -15.5t-16 -6.5h-128h-21zM685.5 284
q20.5 0 35 -14.5t14.5 -34.5q0 -21 -14.5 -35.5t-35.5 -14.5q-20 0 -34.5 14.5t-14.5 35t14.5 35t35 14.5zM340 284q21 0 35 -14.5t14 -35t-14.5 -35t-35.5 -14.5q-20 0 -34.5 14.5t-14 35t14.5 35t35 14.5z" />
    <glyph glyph-name="uniE632" unicode="&#xe632;" 
d="M216 110q-26 6 -27 7q-21 8 -33.5 26.5t-13.5 40.5q0 144 1 200q0 45 43 67q5 2 6 5q18 41 48 109q2 3 3 9q7 25 27 40.5t45 15.5h396q25 0 45.5 -16.5t25.5 -41.5q1 -3 3 -6q32 -72 48 -110q2 -3 6 -5q42 -21 44 -66v-78v-119q0 -28 -15.5 -48t-41.5 -27q-1 0 -17 -2
q-1 -49 -38 -78q-28 -22 -64 -20q-39 1 -67 29.5t-29 68.5h-197q-2 -51 -42 -80q-26 -20 -60 -18q-40 1 -68 30q-27 27 -28 67zM760 161h14h18h14q28 0 28 28v190q0 29 -28 28q-5 0 -7 5q-10 21 -62 140q-2 3 -2 4q-3 14 -9.5 19t-19.5 5h-386h-6q-9 0 -15.5 -6t-7.5 -16
l-2 -6q-7 -15 -19.5 -43.5t-23 -52t-19.5 -44.5q-2 -5 -7 -5q-28 1 -28 -28v-86v-106q0 -12 7 -19t19 -7h32h16v-6v-45q1 -21 15.5 -34.5t34.5 -13.5t34 14.5t15 34.5v44v5h296v-5v-42q0 -30 24.5 -44.5t49 -0.5t25.5 42v51zM513 753h57q27 -2 46.5 -24t19.5 -50
q0 -10 -7 -17t-17 -8q-10 0 -17 7t-8 17q-2 26 -28 26h-92q-26 0 -28 -26q-1 -11 -8.5 -17.5t-17.5 -6.5q-10 1 -17 8.5t-7 17.5q0 30 22 51.5t53 21.5h49zM513 358h-172q-11 0 -18.5 7.5t-7.5 18.5q1 9 7.5 16t15.5 7q1 1 3 1h343q23 0 26 -23q1 -9 -5.5 -17.5t-16.5 -9.5
h-7h-168zM760 259.5q0 -20.5 -14.5 -35t-35 -14.5t-35 14.5t-14.5 35t14.5 35t35 14.5t35 -14.5t14.5 -35zM365 259.5q0 -20.5 -15 -35t-35 -14.5t-34.5 14.5t-14.5 35t14.5 35t35 14.5t35 -14.5t14.5 -35z" />
    <glyph glyph-name="uniE634" unicode="&#xe634;" 
d="M414 235h198q2 30 2 32q6 36 36 63q57 52 74 105q30 92 -15 177q-6 11 -5 18q2 18 20 22q17 3 26 -13q25 -43 31 -88q21 -144 -85 -245l-18 -18q-18 -20 -16 -46q1 -4 0.5 -12t-0.5 -10v-29v-29q0 -32 -21 -53.5t-53 -21.5q-74 -1 -149 0q-32 0 -52.5 21.5t-21.5 53.5v26
v27v39q-2 22 -22 40q-68 62 -90 136q-18 57 -8.5 113t36.5 103t73.5 81t103.5 45q98 20 187 -28q13 -7 14.5 -20.5t-10.5 -22.5q-13 -9 -27 -1q-35 20 -70 25q-119 18 -200 -67q-68 -70 -60 -170q7 -88 78 -151q45 -39 45 -90zM415 185v-28q1 -9 7.5 -15t15.5 -6h151
q7 0 13.5 5t8.5 12q0 2 2 32h-198zM513 -12h-73q-19 0 -24 17q-6 19 10 28q7 4 13 4h149q10 0 17 -7t7 -17.5t-7 -17.5t-17 -7h-75z" />
    <glyph glyph-name="uniE635" unicode="&#xe635;" 
d="M538 691h7q6 1 20 0t22 0q10 1 17 -6t7 -18q1 -14 3 -69l1 -5h6q19 -1 20 -1q9 -2 14.5 -9t5.5 -17q-1 -9 -7 -15.5t-15 -6.5q-1 -1 -18 -1q4 -25 4 -26q28 -156 111 -290q3 -5 8 -5h65q10 0 17 -6.5t8 -15.5q0 -10 -5.5 -17.5t-14.5 -8.5q-2 -1 -18 -1h-24l4 -5
q50 -68 111 -123q13 -12 9 -26q-3 -14 -16.5 -18t-23.5 6q-44 43 -71 71q-34 37 -71 91q-2 4 -7 4h-389q-4 0 -7 -4q-60 -88 -139 -161q-13 -11 -27 -7q-13 5 -16 18.5t7 23.5q41 40 44 42q36 38 70 84q1 0 3 4h-5h-16h-16q-10 0 -17 7t-7 17t7 17.5t17 7.5h66q5 0 7 4
q84 136 112 290q0 5 4 25l-1 2h-13q-12 0 -19 7t-7 17.5t7 18t19 7.5h20q2 24 2 25q0 10 1 48q0 11 7.5 18.5t17.5 6.5q7 -1 19.5 0t19.5 0h10v6v21v22q0 11 7 18t17.5 7t17.5 -7t8 -19v-26v-20v-2zM681 222q-2 4 -2 5q-38 75 -40 79q-49 108 -67 231q-1 6 -8 6h-103h-6
q-24 -171 -110 -321h336zM461 593h104q0 8 -1 24t-2 25h-99q-1 -27 -2 -49zM511 124q77 -2 124 -52q16 -17 24 -38q4 -9 0.5 -18.5t-13.5 -13.5q-9 -4 -18 -0.5t-13 12.5q-21 45 -75 57q-56 12 -100 -20q-19 -14 -28 -35q-5 -10 -14 -14t-19 0.5t-13.5 14t1.5 19.5
q27 58 94 80q11 3 26 6q2 0 24 2z" />
    <glyph glyph-name="uniE637" unicode="&#xe637;" 
d="M811 162q-17 5 -18 5q-25 9 -46 -6t-21 -41q1 -8 4 -18q7 -19 1 -36.5t-24 -27.5q-41 -23 -87 -36q-19 -5 -35.5 3t-25.5 26q-9 21 -29.5 28t-40.5 -4q-14 -8 -21 -25q-7 -15 -20.5 -23.5t-30.5 -6.5q-9 2 -31 9q-33 11 -65 29q-19 10 -25 27.5t2 36.5q11 31 -12 54
q-22 22 -53 11q-42 -16 -64 23q-23 40 -36 86q-5 19 2.5 36t26.5 25q24 10 29 35q5 17 -3 33t-25 23q-24 10 -30 33q-4 13 0 26q12 47 36 89q10 18 27.5 24t36.5 -1q23 -9 43 2.5t25 35.5q2 13 -3 26q-8 20 -2 37t25 27q41 24 87 37q19 5 35.5 -3t24.5 -26q11 -26 38 -31
q17 -2 31.5 6t21.5 24q11 26 36 30q12 2 24 -1q45 -11 88 -36q18 -10 24 -27t-1 -36q-9 -24 3.5 -45t37.5 -23q11 -1 22 3q44 15 66 -24.5t35 -83.5q6 -21 -2 -37.5t-27 -25.5q-24 -10 -29.5 -35t12.5 -43q7 -8 17 -13q19 -9 27 -25.5t2 -36.5q-14 -47 -37 -87
q-14 -25 -46 -26zM847 475q-11 39 -31 76q-2 3 -6 1q-28 -10 -57 -4q-43 11 -64 49.5t-6 80.5q2 6 -3 8q-4 1 -19.5 8.5t-24.5 11.5q-2 1 -30 10q-30 -61 -92 -61q-63 0 -92 61q-42 -11 -79 -33q23 -64 -22 -108q-44 -44 -108 -22q-22 -38 -32 -78q60 -30 61 -92
q0 -63 -62 -92q12 -42 33 -79q62 22 106 -19q47 -44 24 -111q39 -22 79 -32q30 61 92 61t92 -62q41 12 78 33q-22 64 22 108.5t108 21.5q22 38 33 79q-62 30 -61 93q0 61 61 91zM514 556q32 -1 63 -13q10 -4 14 -13t0.5 -18.5t-13 -14t-19.5 -0.5q-49 19 -95.5 -1.5
t-64.5 -67.5q-22 -56 8.5 -108t89.5 -60q53 -6 94 26.5t46 84.5q2 29 -9 57q-3 10 0.5 19t12.5 13q10 5 19.5 1t13.5 -15q17 -42 11 -84q-16 -108 -117 -143q-75 -26 -144 16.5t-81 121.5q-11 71 32 129t114 68q1 0 25 2z" />
    <glyph glyph-name="uniE638" unicode="&#xe638;" 
d="M401 86h47q3 0 5 4q26 40 104 163q39 61 42 66q9 14 25 14h184q19 0 32.5 10.5t17.5 27.5q6 24 -9 42.5t-40 18.5h-100h-85q-16 0 -25 14q-22 34 -70.5 110.5t-74.5 117.5q-3 5 -9 5h-38h-6l7 -20q60 -166 70 -191q5 -13 -0.5 -23t-15.5 -12q-4 -1 -8 -1h-74h-87
q-12 0 -21 8l-29 30q-21 21 -32 33q-4 3 -8 3h-26l1 -5q24 -84 31 -108q3 -10 0 -21q-6 -19 -31 -107q0 -1 -2 -6h30q1 0 4 3l30 30q22 22 34 33q8 8 19 8t18 -9q14 -17 -1 -32l-76 -76q-6 -6 -17 -6h-36h-36q-14 0 -21.5 9.5t-3.5 23.5q27 95 37 129q3 11 0 21
q-10 33 -37 129q-4 14 3.5 23.5t21.5 9.5h35h36q12 0 20 -8q31 -31 63 -62q3 -4 6 -4h113l2 1q-2 4 -2 5q-14 38 -39 107.5t-36 97.5q-5 15 2.5 25.5t22.5 10.5h93q17 0 26 -14q25 -39 73.5 -115.5t71.5 -112.5q3 -5 9 -5h168q36 0 63 -21.5t35 -56.5q9 -42 -17 -78t-69 -40
q-7 -1 -14 -1h-166q-6 0 -9 -5q-18 -28 -67.5 -106t-76.5 -121q-10 -15 -28 -15h-93q-14 0 -21.5 10.5t-2.5 23.5q35 96 89 245q7 19 26 17q8 -1 14.5 -6.5t7.5 -14.5q0 -7 -2 -15q-15 -39 -69 -188q-1 -3 -8 -23z" />
    <glyph glyph-name="uniE639" unicode="&#xe639;" 
d="M194 422q32 -8 34 -8l256 -64q4 -1 6 -6q13 -52 72 -289q3 -12 -2.5 -21.5t-17.5 -11.5q-10 -1 -17.5 4.5t-10.5 15.5q-4 16 -11 44.5t-9 38.5q-37 145 -45 178q-1 5 -6 6q-117 29 -261 66q-36 9 -39 45q-1 16 7.5 29t24.5 20q123 52 404 171q195 83 235 100q22 9 42 -1
t26 -33q4 -16 -3 -32q-2 -5 -84 -200q-73 -172 -123 -290q-8 -19 -25 -18q-13 1 -20 11.5t-2 22.5q3 6 22 51q21 51 58 138.5t68 160.5t58 138q1 0 3 6q-315 -133 -640 -270v-2z" />
    <glyph glyph-name="uniE63A" unicode="&#xe63a;" 
d="M859 459q-41 10 -47 11q-127 30 -174 41q-3 1 -6 5q-30 48 -115 182q0 1 -3 6q-4 -5 -4 -6q-84 -133 -115 -182q-3 -4 -7 -5q-60 -14 -216 -51l-4 -1q18 -21 19 -22q99 -114 128 -147q2 -3 2 -7q-2 -25 -11 -134q-2 -36 -6 -81v-6l6 2q12 5 88.5 36t117.5 47q12 5 23 -1
t12 -19q3 -18 -17 -26q-7 -3 -80 -32q-119 -48 -131 -53q-22 -9 -42.5 1.5t-24.5 33.5q-2 8 -1 23q2 29 14 174v2v5q4 13 -9 28q-30 34 -125 142q-19 22 -10.5 48.5t36.5 33.5q56 13 199 47q5 1 8 5q29 47 106 169q16 26 43.5 26t43.5 -25q60 -96 106 -169q3 -5 8 -6
q122 -29 199 -47q28 -7 36.5 -33.5t-10.5 -48.5q-12 -13 -59.5 -67.5t-72.5 -83.5q-3 -4 -3 -9q1 -15 7.5 -97.5t8.5 -102.5q0 -10 -6 -17.5t-16 -8.5t-18 5t-9 15q-1 7 -4 46q0 5 -9 111q-4 54 -5 67q0 4 2 7q35 40 144 164z" />
    <glyph glyph-name="uniE63C" unicode="&#xe63c;" 
d="M527 608q67 34 71 36q66 32 158 64q20 7 31 8q29 3 53.5 -16t28.5 -49q6 -40 -22 -68l-534 -534q-34 -33 -78 -20q-45 13 -54 59q-8 40 22 71l144 144l5 4q-18 14 -19 15q-11 9 -47 51q-22 25 -63 72.5t-54 62.5q-15 18 -14.5 37t17.5 36q1 1 8.5 8t10.5 11q10 10 22 14
q2 0 4 4q1 1 5.5 9t7.5 12q3 3 27 26q8 9 21 13q2 1 4 5q1 1 5.5 9t7.5 11q4 6 23 23q14 14 33 15t34 -12q24 -21 69 -59.5t61 -52.5q1 0 12 -9zM253 75q16 -1 27 10q139 139 530 531l4 4q12 14 4 31q-8 18 -27 16q-6 -1 -17 -6q-101 -38 -119 -46q-69 -28 -113 -58
q-40 -27 -62 -57q-4 -5 -4 -12v-122q0 -4 -1 -5q-10 -12 -17 -18q-7 -7 -24.5 -24t-26.5 -26l-167 -167q-4 -3 -4 -5q-12 -14 -5 -30q7 -15 22 -16zM431 519q-27 22 -79 64t-59 47q-11 -10 -28 -27q46 -56 113 -139q-2 -2 -19 -18l-1 1l-1 1l-1 1h-1l-1 1l-1 1l-1 1l-1 1
l-1 1l-1 1l-1 1l-1 1l-1 1l-1 1l-1 1h-1l-1 1l-1 1l-1 1l-1 1l-1 1l-1 1l-1 1l-1 1l-1 1l-1 1h-1l-1 1l-1 1l-1 1l-1 1l-1 1l-1 1l-1 1l-1 1l-1 1l-1 1h-1l-1 1l-1 1l-1 1l-1 1l-1 1l-1 1l-1 2l-1 1l-1 1h-1l-1 1l-1 1l-1 1l-1 1l-1 1l-1 1l-1 1l-1 1l-1 1l-1 1l-1 1h-1
l-1 1l-1 1l-1 1l-1 1l-1 1l-2 1l-1 1l-1 1l-1 1l-1 1l-1 1h-1l-1 1l-1 1l-1 1l-1 1l-1 1l-1 1l-1 1l-1 1l-1 1l-1 1h-1l-1 1l-1 1l-1 1l-1 1l-1 1l-1 1l-1 1l-1 1l-1 1l-1 1l-1 1h-1l-1 1l-1 1l-1 1l-1 1l-1 1l-1 1l-1 1l-1 1l-1 1l-1 1l-1 1h-1l-1 1l-1 1l-1 1l-1 1l-1 1
l-1 1l-1 1l-1 1l-1 1l-1 1h-1l-1 1l-1 1l-1 1l-1 1l-1 1l-1 1l-1 1l-1 1l-1 1l-1 1l-1 1l-1 1l-23 -23l1 -2q119 -138 143 -166q14 -16 38 -32l36 36q3 3 3 8v107v6v8q0 2 1 5t4 6zM483 580q-120 102 -130 111q-4 -4 -11.5 -12t-11.5 -12q12 -11 116 -127q8 8 21.5 22.5
t15.5 17.5zM773 25q-43 1 -72 32q-17 20 -65.5 74t-75.5 83q-10 12 -6.5 25.5t16.5 16.5q16 5 27 -8q9 -10 19 -21.5t22.5 -25t19.5 -21.5q67 -75 80 -89q13 -16 33.5 -16.5t35.5 13.5q15 15 14.5 35.5t-15.5 33.5q-8 8 -105 94q-50 45 -54 49q-10 9 -8.5 21.5t13.5 18.5
q15 8 28 -4q23 -20 106 -95q49 -44 53 -47q45 -43 27 -101t-81 -67q-1 0 -12 -1z" />
    <glyph glyph-name="uniE63D" unicode="&#xe63d;" 
d="M118 383q0 107 53 198t144 144t198 53t198 -53t144 -144t53 -198t-53 -198t-144 -144t-198 -53t-198 53t-144 144t-53 198zM167 383q0 -94 46.5 -173.5t126 -126t173.5 -46.5t173.5 46t125.5 126t46.5 174t-46 173.5t-126 125.5t-173.5 47q-94 0 -173.5 -46.5t-126 -126
t-46.5 -173.5zM662 457q-1 -46 -27 -83.5t-69 -54.5q-9 -3 -14 -6q-14 -7 -14 -22q-1 -10 -1 -13q-2 -9 -9.5 -14t-16.5 -5q-10 2 -16 8.5t-7 16.5q-2 52 45 75q8 4 13 6q32 11 50.5 40t15 62.5t-27.5 58t-58 29.5q-44 6 -77 -22.5t-35 -72.5q0 -7 -1 -10q-2 -9 -10 -14
t-17 -4q-9 2 -15 9t-6 17q0 56 36 96q61 68 148 46t109 -112q0 -2 4 -31zM488 173v13q1 10 8 17t17 7t17 -7t7 -17q1 -12 1 -26q-1 -10 -8 -17t-17 -7t-17 7t-8 17v13z" />
    <glyph glyph-name="uniE63E" unicode="&#xe63e;" 
d="M118 382.5q0 107.5 53 198.5t144 143.5t198.5 52.5t198.5 -53t143.5 -144t52.5 -198q0 -106 -51.5 -196.5t-143 -144.5t-200.5 -54q-107 0 -198 53t-144 144t-53 198.5zM288 121q59 -54 140.5 -75t170.5 1t157.5 90t91 157t2 171t-74.5 143q-58 -58 -177 -175v-1h1h4h33
q20 -1 24 -18q4 -13 -3.5 -22.5t-20.5 -9.5h-81q-7 0 -12 -4q-6 -6 -5 -14v-17v-14h6h91q15 0 23 -12q7 -12 0 -24.5t-21 -12.5h-92h-7v-7v-91q0 -12 -7 -19q-12 -11 -27 -5t-15 23v92v7h-34q-5 0 -9 -4l-155 -155l-2 -2q-1 -1 -1 -2zM477 381v1h-6h-80q-18 0 -24 16
q-5 12 2.5 22.5t21.5 10.5q6 1 81 1h6q-4 4 -4 5q-17 16 -50 49l-48 48l-5 5q-8 10 -4.5 23t16.5 17q15 4 26 -8q18 -18 51.5 -51t48.5 -49l4 -6q4 6 5 6q36 37 98 99q12 11 23.5 9.5t19.5 -14.5h1l24 25q14 13 30 28.5t25 25.5q-63 56 -147 75.5t-172.5 -4.5t-155.5 -93
q-65 -68 -86 -156.5t-0.5 -169t74.5 -139.5l128 129h-1q-18 10 -13 28.5t25 18.5h26q12 -1 21 8q3 4 39 40z" />
    <glyph glyph-name="uniE63F" unicode="&#xe63f;" 
d="M532 777q88 -2 176 -51q16 -9 13 -26q-3 -18 -21 -21q-8 -1 -17 4q-48 27 -103 39q-115 23 -222 -31t-157 -161q-41 -86 -32 -181q11 -114 89 -199.5t191 -106.5q90 -17 175 11.5t145.5 95.5t80.5 157q29 125 -34 241q-7 14 -6 23q4 17 21 20q17 2 25 -13q22 -38 35 -80
q18 -67 17 -131.5t-25.5 -125t-63 -109t-95 -84.5t-122.5 -51q-104 -24 -204 7t-172.5 107t-97 179.5t5.5 203.5t104.5 172.5t177.5 99.5q49 12 116 11zM488 333v49h-6h-90q-13 0 -20.5 8t-6.5 20q1 10 8.5 16t17.5 6h80h7l-4 4q-5 5 -42.5 43t-57.5 58q-15 15 -5 31
q6 9 16.5 11.5t19.5 -4.5l5 -5l99 -99l3 -5h1l1 1q3 4 4 4q9 9 44.5 45t54.5 55q12 12 26 8.5t17.5 -17.5t-6.5 -24q-2 -3 -31 -31l-70 -70l-5 -3q1 -1 1 -2h6h80q22 0 26 -20q2 -10 -4 -18.5t-16 -10.5q-3 -1 -8 -1h-88h-7v-49h6h93q20 0 24 -19.5t-14 -27.5q-5 -2 -12 -2
h-91h-6v-7v-92q0 -16 -15 -23q-14 -6 -26 4q-9 8 -8 21v90v7h-6h-93q-18 0 -23 16q-6 16 7 27q7 6 17 6h91h6z" />
    <glyph glyph-name="uniE641" unicode="&#xe641;" 
d="M513 13h-170q-47 0 -69 41q-8 16 -8 36q1 29 2 34q5 27 25 44t48 18h295q10 0 17.5 -6t7.5 -15q3 -23 -18 -28q-3 -1 -10 -1h-290q-13 0 -20 -7t-7 -19v-24q0 -9 6.5 -16t15.5 -8h7h338q22 0 27 18q1 4 1 11v239q0 6 6 7q46 11 77.5 44.5t38.5 80.5q9 58 -27 107t-94 59
q-26 4 -50 0q-5 -1 -8 3q-59 80 -157 72q-76 -6 -124 -72q-3 -4 -9 -3q-61 10 -111.5 -27.5t-58.5 -99.5q-8 -57 26 -104.5t91 -59.5q5 -1 5 -6v-35v-35q0 -23 -21 -26q-9 -1 -16.5 3.5t-10.5 13.5q-1 4 -1 11q-1 16 0 31q0 5 -5 7q-94 43 -115 143q-16 78 29 146.5
t122 84.5q10 2 45 4q5 1 9 4q67 70 162 70q94 0 161 -69q4 -5 11 -5q73 0 128.5 -47t66.5 -119q11 -66 -21 -125t-94 -87q-6 -2 -6 -7q1 -87 1 -204q0 -45 -39 -68q-16 -9 -39 -9h-170z" />
    <glyph glyph-name="uniE642" unicode="&#xe642;" 
d="M143 383v294q0 26 15 46t39 27q10 3 19 3h471q29 0 50.5 -20t22.5 -49t0 -105q0 -10 -7.5 -17t-17.5 -7t-17 7.5t-7 18.5v94q0 28 -28 28h-463q-28 0 -28 -27v-587q0 -28 28 -28h84h84q22 0 26 -19q2 -11 -4.5 -20t-17.5 -10h-4h-170q-25 0 -44 13.5t-27 36.5
q-4 12 -4 27v294zM636 12q-102 0 -174 72.5t-72 174.5t72.5 174.5t175 72.5t174.5 -72.5t72 -175.5q0 -102 -72.5 -174t-175.5 -72zM637 457q-81 0 -139 -58t-59 -139q0 -82 58 -140t139 -59q82 0 140 57.5t58 138.5q1 83 -57 141t-140 59zM452 605q115 0 133 -1
q22 0 26 -18q3 -11 -3.5 -20.5t-18.5 -10.5h-4h-267q-24 0 -27 22q-1 10 5.5 18t16.5 9h7q32 1 132 1zM340 407h-27q-18 2 -21 19q-4 19 12 27q6 3 13 3q18 1 47 0q11 0 18.5 -7t7.5 -17t-7 -17t-18 -8h-25zM662 316v-43q0 -4 3 -7l19 -19l20 -20q9 -10 6 -23.5t-16 -17.5
q-14 -4 -24 5q-20 19 -51 51q-7 7 -7 17v99q0 10 7.5 17t17.5 7t17 -7t8 -17v-42z" />
    <glyph glyph-name="uniE644" unicode="&#xe644;" 
d="M118 383q0 138 86.5 246.5t220.5 138.5q148 33 282 -42q17 -9 14 -27q-3 -17 -21 -20q-8 -1 -18 4q-47 27 -102 38q-117 25 -226 -32t-157 -167q-35 -80 -29 -166q8 -106 75.5 -190t169.5 -115q69 -22 138 -12.5t127.5 40.5t102.5 85.5t64 122.5q39 137 -31 264
q-9 17 0 29q8 12 21.5 11t20.5 -13q20 -36 33 -76q25 -78 17 -159q-12 -120 -89 -213t-193 -127q-67 -17 -131 -15t-124 26.5t-108.5 63.5t-83.5 95.5t-50 121.5q-9 43 -9 88zM488 469v86q0 17 15 23t27 -5q8 -7 8 -20v-123q0 -29 -1 -32q0 -5 4 -9q45 -44 111 -111
q9 -8 9 -18.5t-7 -17.5t-16.5 -7.5t-16.5 5.5q-2 1 -5 4l-118 118q-10 10 -10 24v83z" />
    <glyph glyph-name="uniE645" unicode="&#xe645;" 
d="M908 361q1 -125 -88.5 -231t-224.5 -134q-97 -20 -190.5 6.5t-163.5 93t-102 160.5q-38 112 -7.5 227.5t119.5 193.5q85 76 195 95q138 23 262 -46q10 -6 13 -15.5t-2.5 -18.5t-15 -12t-19.5 3q-56 31 -113 40q-153 24 -273 -71q-104 -82 -125 -212q-26 -162 81 -286
q75 -86 190 -110q107 -23 208.5 22t157.5 139q56 95 48 205q-6 73 -42 138q-3 6 -3 7q-5 9 -2 18.5t12 14.5t18.5 2t14.5 -12q17 -29 30 -64q22 -64 22 -153zM612 270l5 4l75 75q15 15 32 5q9 -6 11 -16.5t-5 -19.5q-1 -2 -3 -4l-121 -121q-8 -8 -19 -8t-18 9q-6 6 -6 17v27
v314q0 20 15 26q12 5 22.5 -2t11.5 -20v-5v-274v-7zM415 495l-5 -4l-75 -75q-12 -12 -26 -8q-13 4 -17 16.5t4 22.5q2 1 4 4l120 120q9 9 21 9q9 -1 15.5 -7.5t7.5 -15.5v-6v-337q0 -7 -1 -11q-2 -9 -9.5 -14t-17.5 -4q-9 1 -15 8t-6 16v39v241v6z" />
    <glyph glyph-name="uniE647" unicode="&#xe647;" 
d="M278 211q-24 -7 -25 -8q-34 -15 -60 11l-45 45q-23 23 -23 53.5t23 53.5l382 382q23 23 53.5 23t53.5 -23l45 -45q26 -26 10 -60q-14 -32 4.5 -60.5t53.5 -27.5q11 1 24 7q34 15 60 -11l45 -45q23 -23 23 -53.5t-23 -53.5l-382 -382q-23 -23 -53.5 -23t-53.5 23l-45 45
q-26 26 -11 60q13 28 -0.5 54t-43.5 32q-1 0 -11 2h-1v1zM747 505q-17 2 -18 2q-54 10 -79 57.5t-3 97.5q2 4 -1 8q-1 0 -43 42q-20 20 -39 0l-380 -380q-20 -19 0 -39l18 -18q16 -16 24 -25q4 -3 8 -1q28 13 59 9q55 -7 82 -55.5t5 -99.5q-2 -4 1 -7l42 -42q21 -21 41 0
q66 65 199 199q155 155 181 180q19 19 -1 39l-43 43q-3 3 -7 1q-22 -10 -46 -11zM661 401q-1 -12 -8 -19l-139 -139q-8 -7 -18 -7.5t-17.5 7t-7 18t8.5 18.5l115 115l24 24q12 11 27 4q14 -6 15 -21zM391 340q-15 1 -22 14q-6 13 2 25l5 5q13 13 61 61.5t75 74.5q11 12 25 8
q13 -3 17.5 -15.5t-4.5 -23.5l-3 -3l-137 -137q-8 -9 -19 -9z" />
    <glyph glyph-name="uniE64B" unicode="&#xe64b;" 
d="M572 654h252q18 0 32 -4q17 -5 26 -19.5t7 -32.5t-11 -50q-14 -51 -40 -145t-33 -119q0 -3 -1 -8t-1 -6q-5 -26 -25.5 -43t-46.5 -17h-396q-28 0 -48.5 18.5t-24.5 46.5q-2 9 -13 48q-11 41 -110 396q-3 13 3 23t18 11q21 2 26 -18q3 -11 29 -104q71 -254 94 -336
q0 -3 2 -13q3 -21 24 -23h4h388q23 0 27 19q14 54 16 62q13 48 37 135t30 110q0 1 3 15q1 4 -4 4q-1 0 -7 0.5t-9 0.5h-507q-23 0 -27 21q-1 11 5.5 19.5t17.5 8.5h6h257zM311 89q1 32 24 52.5t54 19.5q31 -2 51 -25t19 -54q-2 -30 -25 -50.5t-52 -18.5q-31 1 -52 23.5
t-19 52.5zM360 87q0 -10 7 -17.5t18 -7.5q10 0 17 7t7.5 17t-7 17.5t-17.5 7.5t-17.5 -7t-7.5 -17zM755 86.5q0 -30.5 -21.5 -52.5t-52.5 -21.5t-52.5 22t-21.5 52t22 52.5t52 22q31 0 52.5 -22t21.5 -52.5zM706 86.5q0 10.5 -7.5 17.5t-17.5 7t-17.5 -7t-7.5 -17.5
t7.5 -17.5t17.5 -7t17.5 7t7.5 17.5z" />
    <glyph glyph-name="uniE64E" unicode="&#xe64e;" 
d="M896 197v-47q0 -2 -1 -3q-5 -5 -23 -24q-2 2 -9.5 18t-12.5 25q-3 -19 -3 -20q-2 -16 -17 -21q-15 -7 -56.5 -23.5t-64.5 -25.5l-10 -3q15 -14 16 -15q10 -9 9 -21v-12h-50q6 9 14 26t10 22l-63 21q-7 2 -12 -2q-12 -8 -57 -37q-22 -15 -37 7l-47 70q-6 8 -6 18
q1 5 0.5 14.5t0 13.5t-3.5 6q-3 1 -9 4l-9 4q-3 2 -6 0q-5 -1 -16 -7t-17 -8q-8 -4 -16 -4l-69 -1q-9 0 -18 5q-23 15 -67.5 41.5t-51.5 30.5q-21 13 -10 36q1 1 16 31q-25 24 -32 31q-23 24 -29 29q-13 14 -5 31q5 9 13 25.5t11 21.5q5 10 16 14q3 1 24.5 8.5t33.5 10.5
q5 2 7 7q12 24 17 33q5 8 11 13q15 10 71 47q16 11 32 -1q102 -82 113 -91q5 -3 11 -5l76 -19q4 -1 8 0l48 16q4 2 5 5q2 7 8.5 26t10.5 29q3 8 9 16q2 2 23 22q-15 8 -17 9q-13 7 -15 19t8 23q2 1 6 4l6 6q2 3 3 6q1 2 1 23v7v9q1 15 14 22q31 16 50 25q15 8 28 -5
q4 -5 17.5 -18t21.5 -21q3 -3 7 -3h57q27 0 27 -27v-94q0 -8 -4 -16l-22 -44q-16 -32 -24 -49q-7 -14 -20.5 -16.5t-22.5 8.5l-2 1q-1 -1 -6 -9t-8 -12q22 -8 28 -10q15 -5 16 -5q12 -5 15 -17.5t-6 -22.5q0 -1 -11 -11q3 -4 10.5 -15t11.5 -17q15 -23 16 -24q6 -9 4 -21
q-6 -35 -19 -112v-3q35 17 44 22zM716 624q16 -8 17 -9q13 -6 15 -18.5t-8 -23.5q-3 -3 -18 -17.5t-23 -22.5q-3 -4 -5 -8q-10 -30 -20 -62q-5 -14 -19 -18q-4 -2 -30 -10.5t-40 -13.5q-9 -2 -17 0q-18 4 -51.5 12.5t-41.5 10.5q-10 2 -18 9q-16 13 -50 40t-52 41q-3 3 -7 1
q-8 -6 -23.5 -16t-22.5 -16q-4 -2 -6 -5q-11 -22 -18 -38q-6 -12 -18 -16q-10 -3 -41 -13q-19 -6 -20 -8q-3 -2 -4.5 -5t-3.5 -7.5t-3 -6.5q-3 -4 1 -8l55 -55q16 -15 6 -35q-1 -2 -13 -25l2 -2q68 -40 93 -55q3 -2 7 -2h54q4 0 7 2q15 7 40 19q12 7 24 1q7 -4 23 -12
t25 -12q14 -7 14 -23v-17q-3 -25 13 -45q2 -2 18 -27q1 1 2 1q2 2 4 2q40 27 45 31q13 9 27 4q23 -8 59 -20q4 -1 7 0l96 38q3 2 4 5q3 22 10 61.5t9 54.5q1 5 -2 10q-1 1 -40 60q-9 13 -2 26q0 1 1 3q-34 11 -37 12q-11 4 -15 15.5t3 21.5q1 2 9 14q35 53 40 60
q6 9 16.5 11t19.5 -5l3 -2l29 58q2 4 2 9v58v6h-47q-13 0 -22 8q-5 6 -16 16l-16 17q-3 3 -7 1q-6 -4 -12 -6q-4 -2 -3.5 -7t0 -13t0.5 -13q0 -13 -8 -21z" />
    <glyph glyph-name="uniE64F" unicode="&#xe64f;" 
d="M222 235h-56q-20 0 -25 19q-5 18 13 28q73 43 87 129q1 6 0.5 24.5t0.5 25.5v21h-26h-25q-21 0 -25 19q-5 18 13 28q48 28 71 78q17 35 16 72q0 17 1 25q0 10 6 17t16 8q9 1 16.5 -4.5t9.5 -13.5q0 -3 1 -21v-10h395v24q0 20 19 24q11 3 20 -3.5t10 -17.5v-28
q1 -62 40 -110q20 -24 49 -41q15 -8 13 -24.5t-19 -20.5q-3 -1 -8 -1h-44h-5l-1 -3q-1 -51 -1 -58q0 -3 0.5 -6.5t1.5 -7.5t2 -6q16 -78 85 -119q16 -9 14 -26q-3 -15 -18 -20q-3 -1 -8 -1h-50h-6q3 -5 4 -6q88 -141 95 -152q6 -10 4 -20t-11 -15q-2 -2 -12 -4h-6h-732h-10
q-12 4 -16.5 15.5t2.5 22.5q6 10 54 87q3 5 18 29.5t24 37.5zM188 87h301v6v42q0 9 5 16q9 14 26 9q18 -5 18 -24v-22v-21v-5h301q-3 4 -3 5q-67 107 -86 137q-3 5 -9 5h-455q-6 0 -9 -5q-16 -25 -86 -137zM741 383h-455q-13 -55 -51 -98h557q-38 43 -51 98zM716 630h-406
q-12 -55 -50 -98h507q-38 43 -51 98zM291 433h444v49h-444v-49z" />
    <glyph glyph-name="uniE650" unicode="&#xe650;" 
d="M223 158q-5 5 -19.5 17t-21.5 19q-1 1 -7 6.5t-9 7.5q-22 19 -18 46t30 38q52 22 83 42l5 3q-28 26 -31 29q-13 11 -16 26q-4 18 4 33.5t25 23.5l62 31q1 0 4 3q-21 16 -22 17q-24 19 -19 48q5 28 33 38q1 1 10 4t14 5q17 8 41 18q31 14 67 57q1 1 1 5q1 7 0.5 13t0 13
t0.5 13q3 26 23.5 44.5t48.5 19.5q26 1 47.5 -16t25.5 -43q2 -8 2 -41q1 -6 5 -13q35 -44 106 -70q15 -6 24 -9q27 -11 31 -38q5 -28 -18 -47q-1 -1 -23 -19q46 -24 54 -27l4 -2l5 -3q3 -1 4 -2q25 -11 29.5 -37t-15.5 -45q-2 -1 -32 -29l5 -3q31 -20 83 -42
q25 -11 29.5 -38t-16.5 -45q-1 -1 -7 -6q-8 -6 -25 -21.5t-27 -23.5l7 -4l36 -18q2 -1 7 -3q27 -7 43 -30t12 -50q-4 -28 -24.5 -46.5t-48.5 -18.5h-642q-29 0 -49.5 18.5t-24.5 46t12 50.5t43 31q8 2 15.5 6t17.5 9t14 8q1 0 2 1zM705 539q-5 2 -6 3q-40 15 -42 16
q-51 22 -77 49q-10 11 -39 44q-3 3 -3 8v43q0 11 -6 18q-11 13 -27 7t-16 -24q-1 -25 0 -40q0 -9 -6 -17q-38 -46 -68 -65q-23 -14 -68 -32q-1 0 -24 -9v-2q34 -25 34 -26q10 -8 14 -11q20 -23 -4 -43q-1 0 -8 -5q-35 -24 -80 -45l-11 -5l2 -2q41 -39 47 -44t9 -12
q5 -9 2.5 -18.5t-11.5 -15.5q-42 -26 -66 -39q-3 -2 -53 -26q25 -22 26 -23q8 -7 24 -20t24 -20q3 -3 5 -6q6 -10 3 -22t-12 -19q-1 -1 -1 -2q-8 -14 -27 -24l-44 -22q-3 -1 -7 -2q-9 -1 -15 -7.5t-6 -15.5q0 -11 7 -18.5t20 -7.5h289h5v6v41q0 6 1 10q6 20 27 17
q9 -2 15 -8.5t6 -16.5v-43v-6h7h285h5q10 1 17 7.5t7 15.5q1 10 -5.5 17.5t-16.5 8.5l-6 2q-34 17 -45 23q-18 9 -26 23q0 2 -2 2q-10 6 -11 20q-2 23 13 30q1 0 3 3q35 30 54 46l13 11q-1 0 -2 1l-2 1q-56 23 -115 63q-15 9 -13 26q2 11 11 19q19 17 46 43q1 0 5 4
q-6 2 -6 3q-52 22 -88 49q-8 5 -12 10q-12 16 -1 32q5 6 10 10t42 32z" />
    <glyph glyph-name="uniE651" unicode="&#xe651;" 
d="M760 208q-5 -2 -14.5 -4t-17.5 -4t-14 -4q-389 -95 -460 -112q-37 -9 -61 -3q-31 8 -51.5 32.5t-22.5 55.5q-1 6 -1 19v406q0 63 56 91q35 18 75 5q17 -6 17 -24v-102v-6q4 1 5 1q428 106 484 119q34 9 47 10q36 4 66.5 -18.5t37.5 -58.5q2 -11 2 -23v-417
q0 -43 -31 -72.5t-73 -26.5q-11 1 -28 6q-13 4 -15 20q-1 3 -1 7v96v7zM859 257v6v248v79q0 20 -14 34.5t-33 14.5q-9 0 -30 -5q-127 -31 -471 -116q-3 -1 -45 -11v-7v-251q0 -15 -9.5 -22.5t-23.5 -3.5q-12 3 -23 2q-20 -2 -32.5 -19t-9.5 -37q4 -20 20.5 -32.5t36.5 -8.5
q11 2 23 5q239 59 479 117q40 10 47 12q34 12 62 3q2 0 23 -8zM217 645q-20 1 -34.5 -13.5t-14.5 -34.5v-331v-3q22 12 49 13v369zM810 121q29 2 43 25q15 28 -3 53q-14 20 -40 21v-99z" />
    <glyph glyph-name="uniE653" unicode="&#xe653;" 
d="M488 407v8v287q0 19 17 25q11 4 21.5 -3t11.5 -19v-6v-285v-7h7h285q7 0 11 -1q19 -5 17 -26q0 -8 -6 -14.5t-15 -7.5h-8h-284h-7v-7v-287q0 -22 -20 -27q-11 -2 -20 5t-10 18v6v284v7l-7 1h-286q-15 0 -23 10q-8 11 -3 23.5t19 15.5h8h285h7z" />
    <glyph glyph-name="uniE654" unicode="&#xe654;" 
d="M479 384l-5 4q-16 15 -118 116l-155 156q-10 11 -9 23q2 14 15 19.5t25 -3.5l5 -5l271 -271l4 -5h1h1l3 5q45 45 136 135.5t137 136.5q11 12 24 9q14 -3 18.5 -16.5t-5.5 -24.5q0 -1 -4 -4q-192 -193 -271 -271l-6 -5q6 -4 7 -5l129 -129l142 -142q10 -10 10 -20
q0 -16 -14 -22q-15 -7 -27 4q-1 0 -5 4q-172 173 -270 271l-5 5l-4 -5q-207 -206 -273 -272q-12 -12 -26 -9q-13 4 -17 17t5 23q1 1 4 5q171 170 272 271z" />
    <glyph glyph-name="uniE656" unicode="&#xe656;" 
d="M834 358v-8v-260q0 -40 -31 -63q-17 -14 -42 -15h-5h-486q-50 0 -72 45q-6 13 -6 33v261v7h-34q-20 0 -29 11q-13 16 -11 36q2 18 17 31q160 142 342 302q36 32 73 0q136 -120 341 -301q16 -15 17 -35t-13 -35q-8 -9 -20 -9h-41z" />
    <glyph glyph-name="uniE657" unicode="&#xe657;" 
d="M193 358h-32q-24 -1 -34 16q-14 23 -4 44q5 11 13 18q45 40 197 174q21 19 45.5 40.5t53.5 47.5t46 41q36 32 72 -1q160 -141 341 -301q16 -14 18 -34t-12 -35q-9 -10 -21 -10h-41v-6v-262q0 -45 -38 -68q-16 -9 -40 -9h-235h-252q-9 0 -15 1q-28 5 -45 25.5t-17 49.5
v262v7zM180 409v-1h5h34q17 -1 22 -17q1 -5 1 -12v-289q0 -28 28 -28h488q6 0 9 1q18 5 18 26v143v149q0 27 27 27h16h16h5q-226 200 -335 297q-158 -140 -334 -296z" />
    <glyph glyph-name="uniE658" unicode="&#xe658;" 
d="M712 542q-4 -109 -67 -179q-2 -2 -30 -27q-2 -2 -7 -6t-8 -7q-13 -12 -13.5 -31.5t12.5 -32.5q7 -8 17 -11q148 -42 164 -47q45 -15 73 -51t30 -86v-25q0 -11 -7 -18.5t-17 -7.5q-11 0 -18 7t-7 19q-2 36 -2 39q-11 55 -63 73q-16 6 -104 32q-8 3 -29.5 9t-33.5 9
q-54 17 -63 73q-9 53 31 89q4 3 12 9.5t10 8.5q46 38 62 103q7 26 7 64q0 30 -6 49q-14 50 -57.5 80.5t-94.5 26.5q-54 -4 -92 -39.5t-45 -88.5q-11 -91 35 -160q16 -23 46 -45q46 -35 41 -88q-4 -55 -51 -76q-6 -3 -44 -14q-5 -2 -52 -15.5t-72 -20.5q-60 -19 -74 -73
q0 -2 -3 -38v-5v-4q-1 -10 -7.5 -16.5t-16.5 -7.5q-10 0 -17.5 6t-7.5 16q-3 52 12 84q24 53 79 77q11 5 24.5 9t30.5 9t25 7q5 1 97 28q13 4 21.5 17.5t6.5 28.5q-2 21 -19 33q-88 65 -102 175q-8 68 6 110q39 119 159 138q79 13 144 -33t80 -125q1 -3 5 -51z" />
    <glyph glyph-name="uniE65A" unicode="&#xe65a;" 
d="M908 382q0 -107 -53 -198t-144 -144t-199 -53q-107 1 -198 54t-143.5 144t-52.5 198t53 198t144.5 143.5t198.5 52.5t198 -53t143.5 -144t52.5 -198zM736 580q0 14 -12 21t-25 1q-49 -22 -140 -63.5t-129 -59.5q-10 -4 -14 -14q-20 -44 -61 -134t-61 -135q-8 -16 4 -28
q12 -13 29 -5q41 18 131 59t138 63q10 5 14 14q11 24 55 120.5t67 148.5q1 1 4 12zM366 235q6 15 7 16q60 132 83 182q2 5 5 6q57 26 196 90l3 1l-2 -5q-60 -134 -88 -194q-2 -4 -5 -5q-62 -29 -195 -89zM538 382.5q0 10.5 -7.5 17.5t-17.5 7t-17 -7t-7.5 -17t7 -17.5
t17.5 -7.5t17.5 7t7.5 17.5z" />
    <glyph glyph-name="uniE65B" unicode="&#xe65b;" 
d="M513 778q108 -1 198.5 -53.5t143 -142.5t53.5 -195q1 -109 -52 -201t-144 -145.5t-199 -53.5q-107 0 -198 53t-144 143.5t-53 197.5q0 108 52.5 199.5t143.5 144.5t199 53zM513 37q94 0 173.5 46t125.5 125.5t46.5 173.5t-46 174t-126 126t-173.5 46t-173.5 -46
t-125.5 -125.5t-46 -173.5q0 -93 45 -172t125 -126.5t175 -47.5zM316 160q-14 0 -21 11.5t-2 24.5q3 7 38 83q69 151 84 184q5 12 17 18q41 18 266 121q12 5 23 0.5t14 -17.5q2 -8 -3 -18q-22 -48 -110 -241q-11 -25 -12 -26q-4 -10 -14 -15q-38 -17 -129 -58t-140 -64z
M661 530l-4 -1q-140 -64 -196 -90q-3 -1 -5 -5q-20 -44 -74 -163q-1 -1 -17 -36l6 2q136 62 193 88q4 2 6 6q10 21 50 109q3 7 41 90zM538 382.5q0 -10.5 -7.5 -17.5t-18 -7t-17.5 7t-7 17.5t7.5 17.5t17.5 7t17.5 -7t7.5 -17.5z" />
    <glyph glyph-name="uniE65D" unicode="&#xe65d;" 
d="M193 506h641v6v115q0 27 -27 27h-47q-10 1 -16.5 7t-7.5 16q-1 9 4 16.5t14 9.5q3 1 8 1h47q32 -1 53.5 -22.5t21.5 -53.5v-540q0 -32 -22 -54t-54 -22h-589q-33 0 -54.5 21.5t-21.5 54.5v380v160q0 29 18 50t47 25q3 0 27 1h31q11 -1 18 -7.5t7 -17t-7 -18t-18 -7.5h-24
h-24q-11 0 -18.5 -7t-7.5 -18v-119zM834 456h-642v-5v-361q0 -28 29 -28h585q28 0 28 28v361v5zM513 704h48q12 0 19.5 -7.5t7 -18t-8 -17.5t-18.5 -7h-97q-10 0 -17 6.5t-8 16t4.5 17t15.5 9.5q2 1 7 1h47zM686 679v-48q0 -11 -7 -18.5t-17.5 -7.5t-17.5 7.5t-7 18.5v96
q0 11 7 18.5t17.5 7.5t17.5 -7.5t7 -18.5v-48zM390 679v-49q0 -16 -14 -22q-13 -7 -25 2q-10 7 -10 19q-1 72 0 100q0 10 7 17t17.5 7t17.5 -7t7 -18v-49z" />
    <glyph glyph-name="uniE666" unicode="&#xe666;" horiz-adv-x="1025" 
d="M1025 415v-64q-1 -4 -1 -5l-4 -58q-8 -74 -30 -137q-56 -158 -201 -226q-84 -40 -199 -50q-81 -7 -163 1q-81 8 -146 31q-170 60 -236 224q-36 88 -42 207q-3 72 4 141q8 77 31 140q39 108 120 173q60 49 142 74q69 22 153 27q4 0 30 2h61l5 -1q58 -4 59 -4
q74 -7 137 -30q81 -28 138 -80q71 -63 106 -162q27 -76 34 -173q0 -6 1 -17t1 -13zM771 288h32q10 0 16.5 6t6.5 16v19q0 24 -24 24h-49q-5 0 -7 5q-18 41 -39 89q-12 27 -39 31q-17 3 -43 4q-146 6 -264 -2q-36 -2 -50 -34q-30 -66 -39 -86q-3 -7 -10 -7q-14 1 -48 0
q-9 0 -15.5 -6t-6.5 -15q-1 -11 0 -23q0 -9 6.5 -15t15.5 -6h14h13l6 -1v-6v-148v-54q0 -13 9 -22.5t22 -9.5h47q19 1 27 18q3 6 4 17v30h306v-30q0 -16 9.5 -25.5t24.5 -9.5h40q16 0 25.5 9.5t9.5 26.5v198v7zM483 617l8 -9l19 -20l24 -23q15 -15 29 -18q3 -1 15 -6
q33 -12 34 -12q4 -1 9 0q32 6 49 11q6 1 10 8q1 3 17 36l3 6q6 5 17 14t13 11q7 6 6.5 13.5t-7.5 12.5l-9 6q4 15 5 16q0 1 1 9q0 7 2 9t9 3q3 0 5 -2q10 -12 16 -20t17 -9q2 0 27 -3q-3 -24 -3 -26q-2 -16 -2 -17q-3 -5 -23 -37l-3 2q-4 4 -10 4t-10 -4q-6 -7 -16 -18
q-2 -2 -9 -11t-11 -14q-7 -7 -5.5 -15t10.5 -12q1 -1 21 -10q-6 -8 -2 -16q12 -24 22 -42q2 -4 1 -8q-4 -12 -9 -28q0 -1 -1 -7h27q6 0 7 6q5 19 7 25q4 11 -3 24q-2 2 -17 32q8 7 9 7q5 7 3.5 14.5t-9.5 11.5q-2 1 -26 11q2 3 5.5 7t5.5 6l3 -4q5 -4 12 -4t10 4q4 5 9 14
q18 28 29 46q4 6 4 10q2 16 7 61q1 16 -14 18q-14 2 -28 3t-19 9q-3 5 -17 22q-8 8 -20 4q-14 -6 -25 -9q-9 -3 -12.5 -7.5t-4.5 -14t-2 -17.5q0 -2 -2 -3q-2 -2 -10 -9q-5 -3 -5.5 -11t4.5 -11q0 -1 14 -10q-14 -11 -15 -12q-5 -5 -8 -10q-3 -6 -8 -17.5t-8 -15.5
q-1 -3 -4 -4q-2 0 -10 -2l-12 -3q-10 -3 -21 1q-4 2 -13 5t-13 5q-15 6 -20 9q-2 2 -19 18q-1 2 -19 20t-28 27q-7 7 -17 4l-10 -5q-33 -17 -41 -22q-4 -2 -7 -7q-3 -4 -7.5 -11t-6.5 -9q-2 -3 -4 -3q-17 -4 -33 -7q-12 -3 -16 -8q-10 -16 -19 -31q-6 -9 1 -17l6 -8
q3 -4 7 -9t7 -8q3 -5 9 -4h28h6q-7 10 -31 39q6 11 7 12q1 2 4 3t17.5 4t22.5 5q6 2 10 7q2 3 5.5 9t5.5 8q6 9 8 11q4 2 35 17zM297 332l2 5q38 87 44 100q3 6 8 7q40 4 42 4q103 7 215 1q8 0 17 -1t20 -2t18 -1q9 -1 13 -10q5 -14 42 -98l2 -5h-423zM689 178h-25
q-24 0 -24 24v4q0 22 19 26q24 6 57 12q8 1 15 -5t7 -15q1 -13 0 -26q0 -8 -6.5 -13.5t-14.5 -6.5h-1h-27zM328 178h-26q-10 0 -16.5 6.5t-6.5 16.5v22q1 10 8.5 16t17.5 4q45 -9 49 -10q7 -1 14 -5q10 -6 10 -17v-11q-1 -9 -7 -15.5t-15 -6.5h-1h-27zM509 211h63
q13 0 13 -14q1 -11 -2.5 -15t-15.5 -4h-121q-7 0 -10.5 3t-3.5 11q0 12 3.5 16t15.5 3h58z" />
    <glyph glyph-name="uniE667" unicode="&#xe667;" horiz-adv-x="1025" 
d="M1025 415v-64q-1 -4 -1 -5l-4 -58q-8 -74 -30 -137q-56 -158 -201 -226q-84 -40 -199 -50q-81 -7 -163 1q-81 8 -146 31q-170 60 -236 224q-36 88 -42 207q-3 72 4 141q8 77 31 140q39 108 120 173q60 49 142 74q69 22 153 27q4 0 30 2h61l5 -1q58 -4 59 -4
q74 -7 137 -30q81 -28 138 -80q71 -63 106 -162q27 -76 34 -173q0 -5 1 -15t1 -15zM495 310q-1 -24 -16 -37t-33 -13q-21 0 -34 13t-16 37h-43h-5q-7 -48 -47 -50q-18 -1 -32 9q-19 15 -20 41h-20v-245h186q-3 42 27 72.5t71 30.5q37 0 65 -24q34 -31 33 -78h186v244h-18
q-1 -23 -15 -36t-32 -14q-43 -1 -52 50h-50q-1 -23 -15.5 -36t-32.5 -14q-21 0 -34 13t-17 37h-36zM560 326v-17q0 -8 5.5 -13t12.5 -6q10 -2 17 4.5t7 17.5v197v4h-178v-7v-167v-27q1 -6 3 -11q6 -14 22 -11q16 2 17 18v18h94zM602 533q-28 51 -89 168q-83 -158 -89 -168
h178zM490 443h46v-60h-46v60z" />
    <glyph glyph-name="uniE668" unicode="&#xe668;" horiz-adv-x="1025" 
d="M1025 415v-64q-1 -4 -1 -5l-4 -58q-8 -74 -30 -137q-56 -158 -201 -226q-84 -40 -199 -50q-81 -7 -163 1q-81 8 -146 31q-170 60 -236 224q-36 88 -42 207q-3 72 4 141q8 77 31 140q39 108 120 173q60 49 142 74q69 22 153 27q4 0 30 2h61l5 -1q58 -4 59 -4
q74 -7 137 -30q81 -28 138 -80q71 -63 106 -162q27 -76 34 -173q0 -5 1 -15t1 -15zM455 574v-270h-15v48h-28v62h30v50h-47v71h36v51h-37v52h-71v-53h-50v-51h50v-70h-63v-51h88v-179q-15 11 -17 12q-2 3 -2 6q0 6 0.5 21.5t0.5 24.5q1 7 1 79v6h-56v-4v-111q0 -25 -2 -44
q-2 -25 -14 -40q-1 -2 -1 -5q-1 -16 0 -47v-4q39 25 57 58l3 -2q59 -41 138 -41h307h5v48h-7h-260q-47 0 -83 10q-6 1 -6 8v86v6h24v-51q3 0 47.5 7.5t66.5 11.5v-58h58v7v65q0 5 5 7q12 3 14 5v15v27q-13 -3 -19 -4v241h15v44h-185v-44h17zM768 211v3v53q0 5 -3 10
q-17 24 -43 62q-2 4 0 9q8 22 11 32q30 103 29 218l-1 3h-133v-44h78q-4 -82 -17 -134q-13 45 -19 109q-1 5 -6 5h-20h-21h-4v-5q6 -52 7 -57q10 -69 34 -124q3 -6 0 -11q-22 -37 -39 -68q-2 -4 -2 -7q-1 -13 -1 -50l1 -5q36 37 38.5 40t34.5 43q31 -44 76 -82zM550 318
q-22 -4 -37 -7v63h37v-56zM513 574h37v-54h-37v54zM550 473v-55h-36v55h36z" />
    <glyph glyph-name="uniE669" unicode="&#xe669;" horiz-adv-x="1025" 
d="M1025 415v-64q-1 -4 -1 -5l-4 -58q-8 -74 -30 -137q-56 -158 -201 -226q-84 -40 -199 -50q-81 -7 -163 1q-81 8 -146 31q-170 60 -236 224q-36 88 -42 207q-3 72 4 141q8 77 31 140q39 108 120 173q60 49 142 74q69 22 153 27q4 0 30 2h61l5 -1q58 -4 59 -4
q74 -7 137 -30q81 -28 138 -80q71 -63 106 -162q27 -76 34 -173q0 -5 1 -15t1 -15zM796 47v7v57q0 36 -20 61.5t-53 36.5q-16 5 -131 38q-17 4 -27 18q-15 18 -11 43.5t28 42.5q21 16 35 35q33 44 37 102q3 43 -4 66q-1 6 2 9q15 13 12 28q0 4 -3 24t-5 31q-6 29 -21 48
q-13 15 -29.5 18t-33.5 -7q-3 -2 -6 0q-13 10 -28 12q-20 3 -45 -4q-42 -11 -101 -46q-13 -8 -19 -23q-11 -27 -9 -46q1 -20 12 -29q5 -3 3 -8l-1 -3q-6 -18 -6 -51q0 -66 35 -118q12 -17 44 -43q25 -20 22 -53q-1 -16 -11.5 -29t-25.5 -17q-2 -1 -25.5 -7.5t-36.5 -10.5
q-65 -19 -79 -24q-29 -11 -46.5 -36t-17.5 -57v-59v-6h230q1 7 1 8q0 5 0.5 19t1.5 22q0 7 1 8q2 2 2.5 4.5t0.5 5.5v6q4 20 6 23q1 2 2 6.5t3 6.5q4 6 4 12q0 1 1 1q2 0 3 4q0 1 1 2q0 2 2 3q2 2 2 4.5t-2 2.5q-1 0 -9 5q-10 5 -15 13q-3 6 -2 10q2 5 5 6t4.5 5.5t4.5 5.5
l4 5q1 1 3 4t4 4q1 1 3.5 3t3.5 4q6 8 14 7h2h3q8 -1 10 -3l3 -3l3 -3q1 -1 4 -3.5t4 -3.5t6.5 -9.5t9.5 -12.5q3 -4 3 -16q0 -1 -1 -3q-6 -5 -8 -6l-10 -8q-1 0 -2 -1q-2 -1 -3 -2q0 -7 2 -9q4 -4 8 -14q0 -3 2 -7t3 -7.5t1 -7.5q2 -2 3 -4t1 -5v-5v-2q0 -3 1 -4
q3 -2 3 -11q1 -3 1 -9v-8q0 -3 1 -4q3 -2 3 -10v-29h233z" />
    <glyph glyph-name="uniE66A" unicode="&#xe66a;" horiz-adv-x="1025" 
d="M1025 415v-64q-1 -4 -1 -5l-4 -58q-8 -74 -30 -137q-56 -158 -201 -226q-84 -40 -199 -50q-81 -7 -163 1q-81 8 -146 31q-170 60 -236 224q-36 88 -42 207q-3 72 4 141q8 77 31 140q39 108 120 173q60 49 142 74q69 22 153 27q4 0 30 2h61l5 -1q58 -4 59 -4
q74 -7 137 -30q81 -28 138 -80q71 -63 106 -162q27 -76 34 -173q0 -1 1 -12.5t1 -17.5zM775 289h32q10 0 16 6t6 16q1 3 1 19q-1 24 -25 24q-38 1 -48 0q-5 0 -7 5q-25 57 -40 89q-13 29 -43 32q-27 3 -56 4q-148 4 -247 -3q-35 -2 -49 -32q-14 -31 -40 -89q-2 -6 -7 -6
q-13 1 -49 0q-11 0 -17 -6t-6 -17v-18q0 -24 24 -24h30v-7v-196q0 -5 1 -9q1 -12 10 -20t21 -9h46q13 1 22 10t9 23v28v5h307v-32q0 -15 9.5 -24.5t24.5 -9.5h38q37 0 37 37v197v7zM710 528q-5 88 -54 159l1 1h2q67 -15 106 -71q3 -5 21 -38q4 -8 11.5 -8.5t11.5 6.5
q2 5 -1 13q-23 57 -73 91.5t-110 35.5q-61 0 -112 -32.5t-76 -89.5q-16 -36 -16 -78q0 -14 12 -14h19h42h50h43h59h58h88h5v-3q-4 -48 -33 -87q-3 -4 -2 -6q2 -4 10 -24q21 24 34 53q16 37 17 78q0 14 -13 14h-21h-74h-5zM301 333q9 20 10 22q31 73 36 84q2 5 7 6q34 4 36 4
q109 7 230 1q9 0 27 -2t21 -2q8 -1 11 -9q7 -16 43 -99l2 -5h-423zM332 179h-26q-23 1 -23 24v19q0 12 8 18t20 4q44 -9 47 -10q7 -1 14 -5q9 -5 9 -16q1 -8 0 -12q0 -10 -6 -15.5t-16 -5.5q-1 -1 -27 -1zM693 179h-25q-24 1 -24 24v6q0 20 18 24q26 6 57 12q9 1 16 -5
t7 -16q1 -12 0 -24q0 -9 -6.5 -14.5t-15.5 -6.5h-1h-26zM512 212h63q14 0 14 -13t-3 -16.5t-16 -3.5h-119q-9 0 -12 3.5t-3 11.5v6q0 12 13 12h63zM684 529h-125q5 91 63 162q57 -71 62 -162zM534 529h-87q3 58 43 103t98 56q-50 -72 -54 -159z" />
    <glyph glyph-name="uniE66C" unicode="&#xe66c;" horiz-adv-x="1025" 
d="M1025 415v-64q-1 -4 -1 -5l-4 -58q-8 -74 -30 -137q-56 -158 -201 -226q-84 -40 -199 -50q-81 -7 -163 1q-81 8 -146 31q-170 60 -236 224q-36 88 -42 207q-3 72 4 141q8 77 31 140q39 108 120 173q60 49 142 74q69 22 153 27q4 0 30 2h61l5 -1q58 -4 59 -4
q74 -7 137 -30q81 -28 138 -80q71 -63 106 -162q27 -76 34 -173q0 -10 2 -30zM590 306h6q108 0 122 1q25 0 25 25v212q0 25 -25 25h-154h-7v7v48q0 17 -15 21q-4 1 -11 1h-231q-10 0 -13 -3.5t-3 -12.5v-494v-4q0 -11 12 -11h28q9 0 12 3t3 12v240v7h218v7v117q0 12 3 15
t16 3q8 0 11 -3t3 -11v-198v-7z" />
    <glyph glyph-name="uniE66F" unicode="&#xe66f;" horiz-adv-x="1025" 
d="M1025 415v-64l-1 -5l-4 -58q-8 -74 -30 -137q-56 -158 -201 -226q-84 -40 -199 -50q-81 -7 -163 1q-81 8 -146 31q-170 60 -236 224q-36 88 -42 207q-3 72 4 141q8 77 31 140q39 108 120 173q60 49 142 74q69 22 153 27q6 0 17.5 1t12.5 1h61l5 -1q58 -4 59 -4
q74 -7 137 -30q81 -28 138 -80q71 -63 106 -162q27 -76 34 -173q0 -6 1 -17t1 -13zM637 668v16q0 6 -4 9q-71 53 -152 40q-53 -9 -94 -41q-3 -2 -3 -7q0 -4 1 -21t1 -26q7 -82 27 -164q31 -132 92 -242q2 -4 7 -4q4 0 6 5q4 7 11 20.5t12.5 25t9.5 21.5q74 170 86 368z
M481 233q-109 208 -118 446q-55 -12 -79 -52q-8 -15 -15 -33q-6 -14 -14 -27q-38 -64 -23 -132q12 -49 52 -97q57 -70 153 -126l4 -1l-5 4q-77 63 -123 123q-41 53 -56 104q-21 67 1 123q0 1 2 5q1 -1 1 -3q-7 -34 -1 -70q7 -48 36 -97q54 -91 157 -170q2 -2 4 -1q4 0 24 4z
M537 233q19 -3 21 -4q5 -1 9 2q69 52 119 115q46 57 65 113q26 77 -3 146q-26 59 -87 73l-5 1q-9 -238 -119 -446zM587 86l1 3v69q0 3 -4 4q-26 10 -52 13q-48 5 -90 -12q-4 -2 -4 -6v-66l1 -5q82 27 148 0zM761 580q6 -15 7 -16q21 -54 2 -117q-17 -58 -66 -119
q-45 -56 -116 -113q-1 0 -4 -3q2 0 4 1q59 33 106 75q53 48 79 97q41 74 14 147q-9 26 -26 48zM513 30q29 0 65 11q7 2 8.5 4t1.5 9t-1.5 8.5t-7.5 4.5q-21 8 -50 9q-47 3 -80 -8q-8 -3 -9.5 -5t-1.5 -10v-5q0 -4 4 -6q37 -11 71 -12z" />
    <glyph glyph-name="uniE670" unicode="&#xe670;" horiz-adv-x="1025" 
d="M1025 415v-64q-1 -4 -1 -5l-4 -58q-8 -74 -30 -137q-56 -158 -201 -226q-84 -40 -199 -50q-81 -7 -163 1q-81 8 -146 31q-170 60 -236 224q-36 88 -42 207q-3 72 4 141q8 77 31 140q39 108 120 173q60 49 142 74q69 22 153 27q6 0 17.5 1t12.5 1h61l5 -1q58 -4 59 -4
q74 -7 137 -30q81 -28 138 -80q71 -63 106 -162q27 -76 34 -173q0 -5 1 -15t1 -15zM738 639q-9 -14 -10 -15q-33 -52 -40 -97q-4 -30 10 -52t43 -29q11 -3 12 -4v-14v-2q-2 -13 -11 -21t-22 -9h-42q-3 0 -5 2q-24 19 -54 19h-210q-31 0 -54 -19q-3 -2 -5 -2h-44
q-21 1 -29 21q-4 9 -3 26l7 1q43 9 55 46q7 20 0 48q-10 47 -46 99l-2 1q-5 -19 -16 -57.5t-16 -56.5h-1q-17 72 -27 114l-1 -1q-49 -53 -56 -115q-3 -29 11 -48.5t42 -26.5q1 0 11 -3q2 -24 3 -26q8 -39 44 -48q7 -1 23 -2h26q-1 -5 -7 -38h-23q-19 0 -20 -1q-8 0 -13 -5.5
t-5 -12.5t5.5 -12t12.5 -5h13h31v-31h-36q-6 0 -9 -1q-14 -5 -12 -19q3 -15 17 -16h45q4 0 6 -4q3 -6 20 -33l3 -4h-5q-34 0 -37 -1q-20 0 -25 -18q-3 -11 -4 -30q0 -9 10 -11q3 -1 8 -1q15 0 14 16q0 10 10 12h7h65q4 0 7 -1q24 -10 50 -10q60 1 108 0q29 0 53 10q3 1 7 1
h64h6q10 -2 10 -12q-1 -15 14 -16q2 0 7 1q11 1 11 12q0 12 -1 20q-5 28 -34 28h-16h-14l-5 1l3 4q16 26 20 32q2 5 6 4h42q8 0 13.5 5.5t5.5 13t-5.5 12.5t-12.5 5h-19h-19v31h42q8 0 13.5 5t5.5 12.5t-5.5 13t-13.5 5.5h-19h-22q-4 22 -7 38h5q30 1 32 1q41 2 53 42
q2 6 4 20v5v4q0 3 1.5 4t3.5 2t5 1t4 1q39 11 48 45q5 18 1 40q-8 46 -41 90q-1 1 -14 17q-5 -21 -14 -59.5t-13 -55.5h-1q-11 40 -33 114zM588.5 532q-12.5 0 -21.5 -9t-9 -21.5t9 -21.5t21.5 -9t21.5 9t9 21.5t-9 21.5t-21.5 9zM469 501.5q0 12.5 -8.5 21.5t-21.5 9
t-21.5 -9t-8.5 -22q0 -12 8.5 -21t21 -9t21.5 9t9 21.5z" />
    <glyph glyph-name="uniE671" unicode="&#xe671;" horiz-adv-x="1025" 
d="M1025 415v-64q-1 -4 -1 -5l-4 -58q-8 -74 -30 -137q-56 -158 -201 -226q-84 -40 -199 -50q-81 -7 -163 1q-81 8 -146 31q-170 60 -236 224q-36 88 -42 207q-3 72 4 141q8 77 31 140q39 108 120 173q60 49 142 74q69 22 153 27q6 0 17.5 1t12.5 1h61l5 -1q58 -4 59 -4
q74 -7 137 -30q81 -28 138 -80q71 -63 106 -162q27 -76 34 -173q0 -5 1 -15t1 -15zM513 154h208q51 0 76 45q24 44 -2 87q-25 43 -78 43h-406q-8 0 -16 -1q-35 -3 -58.5 -33t-18.5 -65q6 -35 30.5 -55.5t58.5 -20.5h206zM341 361h7h134q9 0 11 1.5t3 10.5q6 30 6 35
q-1 28 -20.5 49t-47.5 24t-52 -13.5t-31 -43.5q-1 -4 -1.5 -11t-0.5 -10q-1 -4 -8 -42zM691 362q6 32 6 35q2 11 1 18q-3 27 -23 45.5t-46 20.5q-28 2 -50.5 -13t-29.5 -42q-1 -5 -2.5 -13.5t-1.5 -10.5q-1 -4 -7 -40h153zM655 613q-22 0 -38.5 -16t-16.5 -38.5t16 -38.5
t38.5 -16t38.5 15.5t17 37.5q0 23 -16 39.5t-39 16.5zM458.5 613q-22.5 0 -38.5 -16t-16 -38.5t16 -38.5t38.5 -16t38.5 16t16 38.5t-16 38.5t-38.5 16z" />
    <glyph glyph-name="uniE672" unicode="&#xe672;" horiz-adv-x="1025" 
d="M483 895h61l5 -1q58 -4 59 -4q74 -7 137 -30q81 -28 138 -80q71 -63 106 -162q27 -76 34 -173q1 -10 2 -30v-64q-1 -4 -1 -5l-4 -58q-8 -74 -30 -137q-56 -158 -201 -226q-84 -40 -199 -50q-81 -7 -163 1q-81 8 -146 31q-170 60 -236 224q-36 88 -42 207q-3 72 4 141
q8 77 31 140q39 108 120 173q60 49 142 74q69 22 153 27q4 0 30 2zM512 449q-2 -3 -3 -4q-94 -131 -120 -168q-2 -4 -3 -8q-1 -8 4 -12.5t13 -4.5h148h6v-7v-111q0 -13 14 -13h38q8 0 11 3t3 11v111v6h42h112q11 0 16 9q4 8 -2 16q-48 67 -120 168l-2 4h3h43q9 0 12 6t-2 13
q-2 3 -36 50l-85 119q-14 20 -28 0q-1 -1 -13 -19q-85 -119 -108 -150q-5 -7 -1.5 -13t11.5 -6h6h41zM359 383l-2 -2q-57 -81 -73 -103q-7 -9 -3 -17q5 -9 15 -9h8h8q5 0 7 4q21 29 112 156l2 4h-72l3 5q67 94 87 123q9 12 9 13q0 2 -9 14q-14 20 -28 0q-104 -145 -118 -165
q-8 -11 -5 -17q4 -6 16 -6h43zM459 170v38q0 11 -12 11h-20q-12 0 -12 -11v-76q0 -11 12 -11h19q13 0 13 13v36z" />
    <glyph glyph-name="uniE673" unicode="&#xe673;" horiz-adv-x="1025" 
d="M1025 415v-64q-1 -4 -1 -5l-4 -58q-8 -74 -30 -137q-56 -158 -201 -226q-84 -40 -199 -50q-81 -7 -163 1q-81 8 -146 31q-170 60 -236 224q-36 88 -42 207q-3 72 4 141q8 77 31 140q39 108 120 173q60 49 142 74q69 22 153 27q6 0 17.5 1t12.5 1h61l5 -1q58 -4 59 -4
q74 -7 137 -30q81 -28 138 -80q71 -63 106 -162q27 -76 34 -173q0 -5 1 -15t1 -15zM230 434q0 -47 20 -85q23 -45 63 -62q5 -2 6 -8q9 -37 25 -70q31 -65 77 -100q42 -32 90 -32.5t91 30.5q31 22 55 59q33 48 50 113q1 6 4 7q36 14 59 51q27 44 26 100q-1 38 -15 67
q-23 44 -76 65q-5 3 -8 8q-31 59 -89.5 89t-122.5 21q-105 -16 -156 -111q-3 -4 -8 -6q-40 -16 -63 -45q-28 -37 -28 -91zM527 560q68 -3 74 -3q60 -4 86 -13q67 -25 78 -87q6 -30 -8 -73q-10 -32 -30 -51q-31 -30 -75 -27q-8 0 -22 7q-24 13 -54 47q-3 4 -9 11.5t-9 10.5
q-19 22 -45 22t-45 -22q-33 -38 -34 -38q-6 -7 -25 -23q-32 -26 -75 -10q-37 13 -56 50q-18 36 -19 76q-1 49 38 83q29 24 74 31q55 8 156 9zM513 197q24 -1 25 -1q18 -2 19 -21q0 -16 -11.5 -29.5t-27.5 -14.5q-18 -1 -32 9.5t-16 27.5q-1 4 -1 5q-1 20 19 23h7h18v1z" />
    <glyph glyph-name="uniE674" unicode="&#xe674;" 
d="M241 473q0 48 34 81.5t82 33.5t81.5 -33.5t33.5 -81.5t-33.5 -81.5t-81.5 -33.5t-82 33.5t-34 81.5zM966 680v-760q0 -30 -22 -52t-52 -22h-760q-30 0 -52 22t-22 52v760q0 30 22 52t52 22h760q30 0 52 -22t22 -52zM890 678h-756v-696l196 256q9 12 24 13.5t27 -7.5
l148 -132l294 385q10 11 24.5 12.5t26.5 -7.5l16 -14v190z" />
    <glyph glyph-name="uniE675" unicode="&#xe675;" horiz-adv-x="1025" 
d="M1025 415v-64q-1 -4 -1 -5l-4 -58q-8 -74 -30 -137q-56 -158 -201 -226q-84 -40 -199 -50q-81 -7 -163 1q-81 8 -146 31q-170 60 -236 224q-36 88 -42 207q-3 72 4 141q8 77 31 140q39 108 120 173q60 49 142 74q69 22 153 27q6 0 17.5 1t12.5 1h61l5 -1q58 -4 59 -4
q74 -7 137 -30q81 -28 138 -80q71 -63 106 -162q27 -76 34 -173q0 -1 1 -12.5t1 -17.5zM568 164h6h234h6q10 2 9 12q-1 2 -2 7q-52 148 -77 216q-1 6 3 9q11 8 26 20q3 2 2 5t-4 4q-1 1 -6 1h-504q-3 0 -4 -1q-5 -2 -6 -4q-2 -3 3 -6q4 -3 30 -22q-2 -4 -2 -5
q-30 -85 -58 -166q-19 -52 -19 -53q-2 -8 1 -12.5t11 -4.5h3h233h6v56q0 27 22.5 43t48.5 8q17 -6 27.5 -20t10.5 -33v-54zM327 460h372q-2 6 -6 17t-5 15q25 19 30 23q3 2 3 6q-1 2 -5 4h-5h-395h-4q-5 -2 -6 -4q-2 -3 3 -6q4 -3 12.5 -9.5t12.5 -10.5q5 -3 3 -7
q-1 -3 -10 -28zM375 547h277q-6 16 -6 17q-2 5 2 8q5 3 14 9.5t13 9.5t2 6q-1 2 -5 5h-4h-309h-3q-5 -3 -6 -5q-2 -3 2.5 -6t29.5 -22q-2 -5 -7 -22z" />
    <glyph glyph-name="uniE676" unicode="&#xe676;" horiz-adv-x="1025" 
d="M1025 415v-64q-1 -4 -1 -5l-4 -58q-8 -74 -30 -137q-56 -158 -201 -226q-84 -40 -199 -50q-81 -7 -163 1q-81 8 -146 31q-170 60 -236 224q-36 88 -42 207q-3 72 4 141q8 77 31 140q39 108 120 173q60 49 142 74q69 22 153 27q6 0 17.5 1t12.5 1h61l5 -1q58 -4 59 -4
q74 -7 137 -30q81 -28 138 -80q71 -63 106 -162q27 -76 34 -173q0 -5 1 -15t1 -15zM562 287q3 -5 4 -5q47 -48 132 -133q4 -4 5 -4q12 -12 28.5 -7t21.5 22q4 17 -10 32q-115 114 -217 217q-7 6 -217 216q-5 5 -11 4.5t-10 -5.5q-38 -49 -21 -110q8 -29 36 -56l63 -62
l51 -52l6 -4q-6 -4 -6 -5l-142 -142l-6 -6q-10 -13 -4.5 -29t21.5 -20q17 -4 31 10l74 74l69 69q0 1 4 6q23 -26 47 -28q28 -3 51 18zM623 399q29 1 53 25l48 48q31 31 34 35q3 2 4 3q5 7 2 15t-11 11q-9 2 -18 -6q-63 -64 -83 -83q-16 -16 -38 -14.5t-36 18.5
q-11 15 -10 33.5t15 32.5l43 43l41 41q12 12 0.5 23.5t-23.5 -0.5l-86 -86q-36 -38 -16 -89q9 -23 30.5 -36.5t50.5 -13.5zM601 484q0 -13 10 -18q10 -4 18 4l85 85q11 11 -0.5 23t-22.5 0l-85 -85z" />
    <glyph glyph-name="uniE677" unicode="&#xe677;" horiz-adv-x="1025" 
d="M1025 415v-64q-1 -4 -1 -5l-4 -58q-8 -74 -30 -137q-56 -158 -201 -226q-84 -40 -199 -50q-81 -7 -163 1q-81 8 -146 31q-170 60 -236 224q-36 88 -42 207q-3 72 4 141q8 77 31 140q39 108 120 173q60 49 142 74q69 22 153 27q6 0 17.5 1t12.5 1h61l5 -1q58 -4 59 -4
q74 -7 137 -30q81 -28 138 -80q71 -63 106 -162q27 -76 34 -173q1 -16 2 -30zM284 178q0 -22 9 -37q13 -21 36 -28.5t46 1.5q63 26 69 27q78 26 157 -6q3 -1 51 -21q21 -9 43 -3q19 6 32.5 21.5t14.5 35.5q2 22 -8.5 40t-29.5 26q-10 5 -35 15q-4 2 -4 6q3 22 -1 43
q-1 5 3 8q34 28 80 66q15 13 17.5 33t-10.5 35q-16 20 -40 19t-40 -22q-22 -31 -54 -49q-68 -38 -147 -24q-78 14 -121 74q-19 25 -48 20q-32 -5 -40 -36t18 -52q45 -37 78 -65q3 -2 2 -5q-3 -25 -1 -45q1 -4 -3 -6q-24 -9 -35 -14q-37 -18 -39 -57zM661 548q44 25 37 63
q-3 17 -15.5 29t-29.5 15t-32 -4q-21 -11 -29 -34q-79 34 -157 0q-25 45 -62 38q-18 -3 -30 -16t-15 -31q-6 -37 39 -60q-1 0 -1.5 -2t-0.5 -3q-12 -37 5 -72q19 -40 66 -61q50 -23 108 -14q52 8 87 40q41 39 34 90q0 1 -4 22zM514 514q26 -2 28 -2q14 -2 15 -18
q1 -19 -11.5 -32.5t-31.5 -13.5q-18 -1 -31 12t-13 32t19 21q5 0 13 1h11h1z" />
    <glyph glyph-name="uniE678" unicode="&#xe678;" horiz-adv-x="1025" 
d="M1025 415v-64q-1 -4 -1 -5l-4 -58q-8 -74 -30 -137q-56 -158 -201 -226q-84 -40 -199 -50q-81 -7 -163 1q-81 8 -146 31q-170 60 -236 224q-36 88 -42 207q-3 72 4 141q8 77 31 140q39 108 120 173q60 49 142 74q69 22 153 27q6 0 17.5 1t12.5 1h61l5 -1q58 -4 59 -4
q74 -7 137 -30q81 -28 138 -80q71 -63 106 -162q27 -76 34 -173q0 -5 1 -15t1 -15zM658 443q23 15 28 19q2 1 2 4q-1 21 -2 26q-6 36 -29.5 62.5t-53.5 37.5t-65 6.5t-63 -27.5l-28 -28l-1 1q0 1 -1 1q-46 61 -120 54q-64 -6 -98 -62t-11 -116q11 -26 39 -55
q23 -22 48 -47.5t55.5 -56t48.5 -47.5q20 -20 25 -26q16 -15 32 0q8 9 58 59l3 3q-26 26 -28 27q-41 42 -33 101q6 47 46.5 75.5t86.5 20.5q36 -7 61 -32zM655 403l-3 4q-31 45 -83 39q-55 -6 -72 -58q-18 -51 21 -91q7 -8 125 -126q13 -12 25 0l1 1l1 2q117 116 123 123
q28 28 26 65q-2 54 -50 76q-48 23 -91 -10q-1 -1 -23 -25z" />
    <glyph glyph-name="uniE679" unicode="&#xe679;" horiz-adv-x="1025" 
d="M483 895h61l5 -1q58 -4 59 -4q74 -7 137 -30q81 -28 138 -80q71 -63 106 -162q27 -76 34 -173q1 -10 2 -30v-64q-1 -4 -1 -5l-4 -58q-8 -74 -30 -137q-56 -158 -201 -226q-84 -40 -199 -50q-81 -7 -163 1q-81 8 -146 31q-170 60 -236 224q-36 88 -42 207q-3 72 4 141
q8 77 31 140q39 108 120 173q60 49 142 74q69 22 153 27q4 0 30 2zM776 404l1 1h13h18q10 0 16 6.5t6 16.5v18q0 24 -24 24q-33 1 -48 0q-5 0 -7 5q-25 56 -40 89q-12 28 -42 32q-16 3 -31 3q-121 2 -154 2q-45 0 -121 -4q-33 -2 -47 -33q-16 -35 -40 -89q-2 -5 -7 -5
q-26 1 -51 0q-9 0 -15 -6t-6.5 -15.5t-0.5 -21.5q1 -9 7 -15.5t16 -6.5h16h16v-8v-198q0 -15 9.5 -25t23.5 -10h43q15 1 24 10t9 24v19v12h307v-30q0 -16 9.5 -25.5t24.5 -9.5h38q18 0 27.5 9.5t9.5 27.5v196v7zM725 449h-423q10 23 11 25q30 69 35 80q2 6 8 7q43 5 48 5
q97 5 200 1q3 0 65 -6q7 0 11 -8q6 -15 42 -98q1 0 3 -6zM694 295h-26q-23 1 -23 24v4q0 23 22 27q19 4 51 10q9 2 16 -3t8 -14q2 -14 0.5 -29.5t-18.5 -17.5q-2 -1 -3 -1h-27zM333 295h-25q-24 1 -24 25v19q0 11 8.5 17.5t18.5 3.5q9 -2 26 -5t23 -5q6 -1 13 -5q9 -6 9 -17
v-12q-1 -18 -19 -20q-2 -1 -3 -1h-27zM513 295h-62q-8 0 -11 3.5t-3 11.5q0 12 3 15t16 3h119q9 0 12 -3t3 -12q0 -12 -3 -15t-15 -3h-59z" />
    <glyph glyph-name="uniE67A" unicode="&#xe67a;" horiz-adv-x="1025" 
d="M1025 415v-64q-1 -4 -1 -5l-4 -58q-8 -74 -30 -137q-56 -158 -201 -226q-84 -40 -199 -50q-81 -7 -163 1q-81 8 -146 31q-170 60 -236 224q-36 88 -42 207q-3 72 4 141q8 77 31 140q39 108 120 173q60 49 142 74q69 22 153 27q4 0 30 2h61l5 -1q58 -4 59 -4
q74 -7 137 -30q81 -28 138 -80q71 -63 106 -162q27 -76 34 -173q0 -6 1 -17t1 -13zM662 257h18q13 -1 16.5 3t3 17t-13.5 13h-346q-3 0 -6 -1q-2 -1 -4 -3.5t-2 -4.5v-5v-5q-1 -10 7 -13q2 -1 7 -1h23q-52 -86 -128 -153h169q8 38 38.5 62.5t68.5 24.5q39 0 69.5 -24.5
t38.5 -62.5h169q-76 68 -128 153zM400 323h227q-33 74 -48 153h9q13 0 13 13v5q0 8 -3 11.5t-11 3.5h-147q-14 0 -14 -15v-6q0 -12 12 -12h10q-15 -79 -48 -153zM534 596q-9 50 -10 55q-1 11 -10 11q-10 0 -11 -11q-1 -5 -10 -55h-22q-12 0 -12 -12q0 -1 -0.5 -10t-0.5 -13
q0 -1 -1 -19h113q-2 39 -2 44q-1 10 -11 10h-23z" />
    <glyph glyph-name="uniE67C" unicode="&#xe67c;" horiz-adv-x="1025" 
d="M483 895h61l5 -1q58 -4 59 -4q74 -7 137 -30q81 -28 138 -80q71 -63 106 -162q27 -76 34 -173q1 -10 2 -30v-64q-1 -4 -1 -5l-4 -58q-8 -74 -30 -137q-56 -158 -201 -226q-84 -40 -199 -50q-81 -7 -163 1q-81 8 -146 31q-170 60 -236 224q-36 88 -42 207q-3 72 4 141
q8 77 31 140q39 108 120 173q60 49 142 74q69 22 153 27q4 0 30 2zM348 381v-17v-242q0 -14 12 -14h32q7 0 9 6q2 3 2 10v394v6q1 10 11 11h5q10 0 13.5 -3.5t3.5 -13.5v-181v-7q1 -8 8 -12t15 -1q81 34 168 69q73 30 164 68q10 4 10.5 14.5t-8.5 15.5q-1 0 -7 2
q-351 144 -412 169q-12 5 -19 0.5t-7 -17.5v-257z" />
    <glyph glyph-name="uniE67D" unicode="&#xe67d;" horiz-adv-x="1025" 
d="M1025 415v-64q-1 -4 -1 -5l-4 -58q-8 -74 -30 -137q-56 -158 -201 -226q-84 -40 -199 -50q-81 -7 -163 1q-81 8 -146 31q-170 60 -236 224q-36 88 -42 207q-3 72 4 141q8 77 31 140q39 108 120 173q60 49 142 74q69 22 153 27q4 0 30 2h61l5 -1q58 -4 59 -4
q74 -7 137 -30q81 -28 138 -80q71 -63 106 -162q27 -76 34 -173q0 -5 1 -15t1 -15zM644 497v7q0 71 1 78q0 15 -9 29t-25 17q-32 7 -39 8q-52 7 -110 1q-33 -4 -53 -11q-9 -4 -13 -8q-14 -16 -14 -36v-78v-7h-7h-79q-18 0 -30 -10.5t-15 -28.5q0 -1 -0.5 -5.5t-0.5 -7.5
q-8 -46 -10 -110q-1 -72 6 -128q2 -23 6 -45q2 -18 18 -29q11 -8 27 -8h433h2q16 1 27.5 10.5t15.5 24.5q0 2 0.5 7t0.5 7q9 50 10 121q1 68 -5 119q0 5 -2.5 18.5t-2.5 20.5q-2 21 -14.5 32.5t-32.5 11.5h-78h-7zM382 323q1 3 1 4q4 17 20 17h67q16 0 21 -16l1 -6h29
q25 0 25 -24v-104q0 -25 -25 -25h-169q-24 0 -24 25v104q0 24 24 24h29zM480 246q0 18 -12.5 30.5t-30.5 13t-31 -12.5t-13 -31t13 -31t31 -13t30.5 13t12.5 31zM426 498v56q0 8 6 13.5t14 6.5h7h119q31 1 29 -29v-42v-5h-175zM655 322q-18 0 -30.5 13t-12.5 31t12.5 31
t31 13t31 -13t12.5 -31t-13 -31t-31 -13z" />
    <glyph glyph-name="uniE67E" unicode="&#xe67e;" horiz-adv-x="1025" 
d="M1025 415v-64q-1 -4 -1 -5l-4 -58q-8 -74 -30 -137q-56 -158 -201 -226q-84 -40 -199 -50q-81 -7 -163 1q-81 8 -146 31q-170 60 -236 224q-36 88 -42 207q-3 72 4 141q8 77 31 140q39 108 120 173q60 49 142 74q69 22 153 27q4 0 30 2h61l5 -1q58 -4 59 -4
q74 -7 137 -30q81 -28 138 -80q71 -63 106 -162q27 -76 34 -173q0 -1 1 -12.5t1 -17.5zM441 238l-1 -2q-3 -7 -14.5 -27.5t-18.5 -31.5q-2 -5 -3 -7q-1 -8 4 -13.5t14 -5.5h379h2q10 0 14.5 8.5t-0.5 16.5q-1 0 -2 2l-2 4q-41 74 -129 232q-45 80 -57 102q-5 11 -15 11
t-16 -11q-104 -188 -111 -200q-8 -14 -21 -12h-27l3 5q54 98 75 135q2 4 0 8q-14 25 -66 119q-18 31 -20 35q-4 7 -11.5 8.5t-13.5 -4.5q-2 -2 -6 -8q-21 -38 -65 -117t-67 -121q-7 -12 -26.5 -47t-30.5 -54q-2 -5 -1 -11q1 -14 18 -14h208h7z" />
    <glyph glyph-name="uniE67F" unicode="&#xe67f;" horiz-adv-x="1025" 
d="M1025 415v-64q-1 -4 -1 -5l-4 -58q-8 -74 -30 -137q-56 -158 -201 -226q-84 -40 -199 -50q-81 -7 -163 1q-81 8 -146 31q-170 60 -236 224q-36 88 -42 207q-3 72 4 141q8 77 31 140q39 108 120 173q60 49 142 74q69 22 153 27q4 0 30 2h61l5 -1q58 -4 59 -4
q74 -7 137 -30q81 -28 138 -80q71 -63 106 -162q27 -76 34 -173q1 -16 2 -30zM280 353q2 -8 3 -8q8 -21 28.5 -71.5t31.5 -78.5q2 -4 6 -3q20 2 36 16q8 7 15 5q9 -2 16 -7q15 -11 30 -14q31 -5 56 17q10 8 22 2q1 -1 7 -5q14 -11 29 -14q32 -5 56 17q10 8 22 2q1 -1 7 -5
q16 -13 36 -15q5 0 7 5q11 27 31.5 77.5t28.5 71.5q8 19 -10 30q-83 47 -96 54q-53 30 -116 66q-11 6 -22 0q-50 -29 -81 -46q-17 -10 -61.5 -35.5t-68.5 -38.5q-12 -7 -13 -22zM690 441v6v91q0 17 -9.5 26.5t-25.5 8.5q-9 0 -14.5 6t-5 13.5t0.5 24.5q0 10 -6.5 16t-16.5 6
h-195q-10 0 -16.5 -6t-6.5 -16v-25q0 -8 -5 -13t-13 -5q-36 -1 -36 -37q-1 -9 -1 -90v-6q6 2 6 3q118 67 135 77q23 13 45 11q4 -1 7 -2q19 -11 109 -62q8 -5 48 -27zM629 143l2 -1q2 -2 3 -2q28 -17 61 -14.5t57 24.5q13 12 2 24q-10 12 -24 1q-10 -8 -16 -11
q-38 -17 -72 11q-14 11 -27 -1q-19 -16 -43 -16t-45 17q-12 10 -26 -1q-9 -7 -16 -10q-38 -17 -72 11q-14 11 -29 -1q-26 -22 -59 -14q-13 3 -30 16q-13 10 -23 -3q-9 -12 2 -22q26 -23 59.5 -25.5t62.5 16.5q3 2 7 0q24 -16 53 -17q32 0 58 18q58 -36 115 0z" />
    <glyph glyph-name="uniE681" unicode="&#xe681;" horiz-adv-x="1025" 
d="M1025 415v-64q-1 -4 -1 -5l-4 -58q-8 -74 -30 -137q-56 -158 -201 -226q-84 -40 -199 -50q-81 -7 -163 1q-81 8 -146 31q-170 60 -236 224q-36 88 -42 207q-3 72 4 141q8 77 31 140q39 108 120 173q60 49 142 74q69 22 153 27q4 0 30 2h61l5 -1q58 -4 59 -4
q74 -7 137 -30q81 -28 138 -80q71 -63 106 -162q27 -76 34 -173q0 -1 1 -12.5t1 -17.5zM601 580v30q0 25 -24 25h-55h-73q-10 0 -16.5 -6.5t-6.5 -17.5v-12v-19h-6h-52q-19 0 -27 -17q-4 -11 -28 -63t-37 -80q-2 -4 -6 -4h-52q-18 0 -20 -16q-3 -17 0 -34q2 -15 20 -16h33
v-6v-112q0 -27 24 -34q1 0 9 -1v-33q0 -12 8 -21.5t21 -10.5q15 -1 30 0q11 1 19 9t9 20v20v16h284v-32q1 -13 9 -22.5t21 -10.5q15 -1 29 0q12 1 20 9t8 20q1 1 1 30v6l8 1q25 7 25 34v112v6h32q10 0 16 6.5t6 16.5v19q0 24 -23 24h-51q-4 0 -5 3q-13 27 -35.5 76.5
t-30.5 67.5q-7 17 -25 17h-53h-6zM514 394h-182q-12 0 -17.5 8t-0.5 19l55 121q2 5 8 5h273q6 0 8 -5l56 -124q4 -9 -1 -16.5t-16 -7.5h-183zM721 295.5q0 -13.5 -9.5 -23t-23 -9.5t-23.5 9.5t-10 23.5q0 13 10 22.5t23 10t23 -9.5t10 -23.5zM338.5 263q-13.5 0 -23 9.5
t-9.5 23t9.5 23t23 10t23 -9.5t9.5 -23.5t-9.5 -23t-23 -9.5z" />
    <glyph glyph-name="uniE683" unicode="&#xe683;" horiz-adv-x="1025" 
d="M483 895h61l5 -1q58 -4 59 -4q74 -7 137 -30q81 -28 138 -80q71 -63 106 -162q27 -76 34 -173q1 -10 2 -30v-64l-1 -5l-4 -58q-8 -74 -30 -137q-56 -158 -201 -226q-84 -40 -199 -50q-81 -7 -163 1q-81 8 -146 31q-170 60 -236 224q-36 88 -42 207q-3 72 4 141
q8 77 31 140q39 108 120 173q60 49 142 74q69 22 153 27q4 0 30 2zM513 186h18h144q30 0 49 19t19 48v303q0 31 -24 53q-13 11 -36 18q-38 11 -96 15q-112 9 -208 -7q-36 -6 -55 -16q-40 -20 -40 -61v-307q0 -21 12 -38q21 -27 57 -27h160zM514 153h-154h-7q-13 -2 -14 -15
q-1 -8 4 -13t15 -5h311q4 0 7 1q12 3 12 15q0 13 -11 16q-3 1 -10 1h-153zM513 405h-152q-15 0 -27 8.5t-16 23.5q-1 6 -1 13q-1 28 0 62q0 20 12.5 33t32.5 13h303q20 0 32.5 -13t12.5 -32v-62q0 -21 -12.5 -33.5t-33.5 -12.5h-151zM338.5 296q0.5 14 10 23t23.5 9t23 -10
t9 -23q0 -14 -10 -23.5t-23 -9.5q-14 1 -23.5 10.5t-9 23.5zM655.5 328q13.5 0 23 -9.5t9.5 -23t-9.5 -23.5t-23.5 -10q-13 0 -22.5 10t-9.5 23q-1 14 9 23.5t23.5 9.5z" />
    <glyph glyph-name="uniE684" unicode="&#xe684;" horiz-adv-x="1025" 
d="M1025 415v-64q-1 -4 -1 -5l-4 -58q-8 -74 -30 -137q-56 -158 -201 -226q-84 -40 -199 -50q-81 -7 -163 1q-81 8 -146 31q-170 60 -236 224q-36 88 -42 207q-3 72 4 141q8 77 31 140q39 108 120 173q60 49 142 74q69 22 153 27q4 0 30 2h61l5 -1q58 -4 59 -4
q74 -7 137 -30q81 -28 138 -80q71 -63 106 -162q27 -76 34 -173q0 -5 1 -15t1 -15zM513 132q33 0 35 1q97 3 134 4q36 2 40 37q7 57 10 105q4 60 -1 135q-1 13 -9 102q-1 14 -10.5 24t-25.5 12q-75 7 -138 8q-120 2 -209 -9q-32 -4 -35 -34q-7 -70 -9 -112q-7 -123 8 -230
q5 -34 39 -37q16 -2 28 -3q22 0 143 -3zM611 657v-6v-63q0 -15 12.5 -15.5t12.5 14.5v65q0 4 3 6q12 8 9 21q-3 14 -16 15q-26 4 -35 4q-68 2 -110 2q-56 0 -92 -5q-13 -2 -17 -15q-4 -14 8 -21q4 -3 4 -8v-33v-32q0 -9 7 -12t12 1t5 11q1 7 1 65v6q98 7 196 0zM407 96
q0 13 -10 15q-15 4 -36 9q-13 3 -14 -8q-1 -16 1 -25q2 -11 11.5 -17.5t20.5 -4.5q12 1 19.5 9.5t7.5 21.5zM680 102h-1v7q0 14 -14 11q-6 -2 -18.5 -5t-18.5 -4q-8 -2 -9 -10v-8q1 -11 8.5 -19t18.5 -9t20 5t12 16q0 1 2 16zM534 399q-27 9 -31 11q-7 2 -23 7t-24 8
q-9 3 -3 9q12 12 14.5 13t17.5 0q13 -2 40.5 -4t41.5 -3q4 -1 7 3q23 22 31 30q17 16 38 13q12 -2 13 -15q2 -21 -13 -37q-5 -4 -15 -14l-15 -15q-3 -3 -3 -7q2 -18 4 -51.5t3 -44.5q0 -5 -1 -7q-9 -10 -15 -15q-4 -4 -6 4q-3 8 -19 57q-1 4 -7 24l-3 -2q-35 -31 -36 -32
q-4 -4 -3 -9q1 -4 4 -22q0 -4 -4 -10t-7 -7q-2 0 -5 3q-3 5 -10.5 16t-10.5 17q-3 3 -7 6q-15 10 -31 20q-5 3 -1 7q9 10 20 8q4 -1 17 -2q4 -1 5 1q8 8 37 40z" />
    <glyph glyph-name="uniE685" unicode="&#xe685;" horiz-adv-x="1025" 
d="M1025 415v-64q-1 -4 -1 -5l-4 -58q-8 -74 -30 -137q-56 -158 -201 -226q-84 -40 -199 -50q-81 -7 -163 1q-81 8 -146 31q-170 60 -236 224q-36 88 -42 207q-3 72 4 141q8 77 31 140q39 108 120 173q60 49 142 74q69 22 153 27q4 0 30 2h61l5 -1q58 -4 59 -4
q74 -7 137 -30q81 -28 138 -80q71 -63 106 -162q27 -76 34 -173q0 -5 1 -15t1 -15zM284 383v-227q0 -17 9.5 -26.5t26.5 -9.5h387q17 0 26.5 9.5t9.5 26.5v388q0 17 -9.5 26.5t-26.5 9.5h-351h-6q-13 4 -11 19q2 13 16 13h334h6q12 1 15 13q2 8 -3.5 14t-14.5 6h-374h-7
q-27 -6 -27 -35v-227zM401 417q68 -34 77 -38q14 -6 18 -22q3 -15 27 -112l2 -4q24 50 54 109q-4 1 -65 22q9 12 43 55q-25 16 -30 20q-3 1 -6 0l-18 -9q1 6 3.5 20.5t3.5 22.5q39 2 76 -21.5t52 -67.5q15 -43 -1 -87t-56 -67.5t-86 -17.5t-77.5 40t-35 79.5t18.5 77.5z" />
    <glyph glyph-name="uniE686" unicode="&#xe686;" horiz-adv-x="1025" 
d="M1025 415v-64q-1 -4 -1 -5l-4 -58q-8 -74 -30 -137q-56 -158 -201 -226q-84 -40 -199 -50q-81 -7 -163 1q-81 8 -146 31q-170 60 -236 224q-36 88 -42 207q-3 72 4 141q8 77 31 140q39 108 120 173q60 49 142 74q69 22 153 27q4 0 30 2h61l5 -1q58 -4 59 -4
q74 -7 137 -30q81 -28 138 -80q71 -63 106 -162q27 -76 34 -173q0 -5 1 -15t1 -15zM513 273h271q14 0 14 14v75q0 5 -5 7q-50 26 -50 79q0 54 50 79q5 3 5 7v76q0 13 -14 13h-541h-1q-13 0 -13 -12v-33v-44q0 -4 4 -6q50 -26 50.5 -79.5t-50.5 -79.5q-4 -2 -4 -6v-75
q0 -9 3 -12t12 -3h269zM513 208h220h6q13 1 15 14q2 14 -11 18q-4 1 -10 1h-439h-6q-7 -1 -11.5 -6.5t-3.5 -12.5q2 -14 18 -14h222zM513 142h177h5q7 1 11.5 6.5t3.5 12.5q-2 14 -19 14h-355h-4q-12 -1 -15 -12q-2 -8 3 -14.5t14 -6.5h179zM513 390q-32 -22 -74 -51
q11 37 14 47q8 29 10 35q2 5 -2 8q-11 8 -62 47l-6 5h6q63 2 80 2q4 0 6 5q5 16 26 74l2 6q17 -47 22 -62q6 -16 7 -18q1 -5 6 -5q16 0 79 -2h6l-4 -4q-49 -37 -63 -48q-4 -3 -3 -8q5 -14 23 -76l1 -6q-37 26 -74 51z" />
    <glyph glyph-name="uniE688" unicode="&#xe688;" horiz-adv-x="1025" 
d="M1025 415v-64q-1 -4 -1 -5l-4 -58q-8 -74 -30 -137q-56 -158 -201 -226q-84 -40 -199 -50q-81 -7 -163 1q-81 8 -146 31q-170 60 -236 224q-36 88 -42 207q-3 72 4 141q8 77 31 140q39 108 120 173q60 49 142 74q69 22 153 27q4 0 30 2h61l5 -1q58 -4 59 -4
q74 -7 137 -30q81 -28 138 -80q71 -63 106 -162q27 -76 34 -173q0 -2 1 -13t1 -17zM514 673q-36 -4 -37 -4q-52 -10 -92.5 -42.5t-61 -77t-17.5 -98t34 -101.5q10 -16 159 -246q14 -22 29 0q94 144 102 157q52 81 63 100q37 62 25 137t-70 124.5t-134 50.5zM513 355
q-42 0 -73.5 29t-34.5 70q-4 43 22 77t68 41q60 10 102 -37q11 -12 -1.5 -22.5t-23.5 1.5q-17 19 -41 25q-31 7 -58.5 -10.5t-34 -49t12 -58.5t50.5 -32q33 -6 59.5 14.5t29.5 54.5q1 12 10 16q10 4 17 -3q6 -5 6 -14q-3 -43 -34.5 -72.5t-75.5 -29.5z" />
    <glyph glyph-name="uniE689" unicode="&#xe689;" horiz-adv-x="1025" 
d="M1025 415v-64q-1 -4 -1 -5l-4 -58q-8 -74 -30 -137q-56 -158 -201 -226q-84 -40 -199 -50q-81 -7 -163 1q-81 8 -146 31q-170 60 -236 224q-36 88 -42 207q-3 72 4 141q8 77 31 140q39 108 120 173q60 49 142 74q69 22 153 27q4 0 30 2h61l5 -1q58 -4 59 -4
q74 -7 137 -30q81 -28 138 -80q71 -63 106 -162q27 -76 34 -173q1 -16 2 -30zM633 553l2 -1q62 -25 87 -88q4 -11 6 -22q2 -13 13 -15q12 -2 16 11q11 36 6 71q-6 38 -28 68t-53 45.5t-68 17.5t-72 -17q-1 -1 -29 -19q-2 2 -3 2q-37 30 -80 33q-100 6 -149 -79
q-34 -59 -10 -123q4 -11 15 -10t12 13q0 4 2 10q21 71 89 101l5 2q-1 -2 -3 -3q-43 -29 -57.5 -78t5.5 -96q3 -8 10 -9.5t14 4.5q43 39 117 107l4 3q18 -54 18 -113q1 -57 -17 -112q25 -11 45 -29q2 -2 5 -1q29 9 55 9q5 0 5 4q0 3 2 15.5t3 19.5q8 104 -44 193q-1 0 -2 4
q17 -16 52 -47q50 -46 58 -53q6 -6 13.5 -4.5t10.5 8.5q28 69 -11 132q-15 26 -44 46zM523 186l-3 3q-26 33 -65.5 42.5t-77 -6.5t-57.5 -54q-8 -16 -21 -13h-2q-6 -1 -10 -7t-3 -12q3 -14 20 -14h362h59q8 0 13 5t5 12t-5 11.5t-13 4.5h-13h-15q-5 0 -8 3q-21 21 -46 30
q-60 24 -120 -5z" />
    <glyph glyph-name="uniE68A" unicode="&#xe68a;" horiz-adv-x="1025" 
d="M1025 415v-64q-1 -4 -1 -5l-4 -58q-8 -74 -30 -137q-56 -158 -201 -226q-84 -40 -199 -50q-81 -7 -163 1q-81 8 -146 31q-170 60 -236 224q-36 88 -42 207q-3 72 4 141q8 77 31 140q39 108 120 173q60 49 142 74q69 22 153 27q4 0 30 2h61l5 -1q58 -4 59 -4
q74 -7 137 -30q81 -28 138 -80q71 -63 106 -162q27 -76 34 -173q1 -16 2 -30zM612 165v7v425v8q-2 13 -11 21.5t-22 8.5h-262q-16 0 -26 -13q-7 -9 -7 -24v-426v-8h-19q-10 -1 -13 -11t5 -17q4 -4 14 -4h247h237h8q9 2 12 11q2 8 -2 14t-12 7h-18v8v263q0 25 -25 25h-68h-5
v-8v-280v-4q-2 -3 -4 -3h-29zM383 427v33h130v-33h-130zM383 252v32h130v-32h-130zM382 547h131v-33h-5h-120q-6 0 -6 6v27zM383 372h130v-32h-130v32z" />
    <glyph glyph-name="uniE68B" unicode="&#xe68b;" horiz-adv-x="1025" 
d="M1025 415v-64q-1 -4 -1 -5l-4 -58q-8 -74 -30 -137q-56 -158 -201 -226q-84 -40 -199 -50q-81 -7 -163 1q-81 8 -146 31q-170 60 -236 224q-36 88 -42 207q-3 72 4 141q8 77 31 140q39 108 120 173q60 49 142 74q69 22 153 27q4 0 30 2h61l5 -1q58 -4 59 -4
q74 -7 137 -30q81 -28 138 -80q71 -63 106 -162q27 -76 34 -173q1 -16 2 -30zM200 307q3 -3 3 -4q4 -5 13 -16t13 -16q41 -50 44 -54q22 -30 56 -18q57 21 174 63.5t177 64.5q92 34 117 43q17 6 25 21t4 31q-6 19 -23 28t-35 2q-89 -32 -180 -66q-6 -2 -10 2q-7 6 -45 36
q-138 109 -180 143q-5 3 -10 1q-1 0 -19 -7q-6 -2 -18 -6.5t-19 -6.5q23 -38 71.5 -111t70.5 -108q-3 -1 -4 -2q-79 -28 -109 -39q-3 -1 -6 1q-37 22 -47 29q-11 8 -24 3q-3 -2 -39 -14z" />
    <glyph glyph-name="uniE68C" unicode="&#xe68c;" horiz-adv-x="1025" 
d="M483 895h61l5 -1q58 -4 59 -4q74 -7 137 -30q81 -28 138 -80q71 -63 106 -162q27 -76 34 -173q1 -10 2 -30v-64q-1 -4 -1 -5l-4 -58q-8 -74 -30 -137q-56 -158 -201 -226q-84 -40 -199 -50q-81 -7 -163 1q-81 8 -146 31q-170 60 -236 224q-36 88 -42 207q-3 72 4 141
q8 77 31 140q39 108 120 173q60 49 142 74q69 22 153 27q4 0 30 2zM727 547v6v58q0 15 -9.5 24.5t-25.5 9.5h-368q-15 0 -24.5 -9.5t-9.5 -25.5v-455q0 -16 9.5 -25.5t25.5 -9.5h366h8q28 5 28 35v275v7h81q8 0 10 4q3 4 -1 10l-20 33q-5 8 0 15q5 8 20 34q3 6 1 9.5t-8 4.5
h-5h-78zM508 372h-103q-10 0 -15 8t0 16t15 8h24h179h6q7 -1 11 -6t4 -11q-1 -7 -5.5 -11t-11.5 -4h-73h-31zM508 470h-102q-14 0 -18 13q-1 7 3 13t12 7h4h202h3q7 0 12 -5t5 -12t-5 -11.5t-12 -4.5h-104zM476 273h-71q-11 0 -15 9q-5 9 2 18q4 6 14 6h19h117q5 0 8 -1
q6 -1 9.5 -6t3.5 -11q-1 -14 -15 -15h-16h-56z" />
    <glyph glyph-name="uniE68D" unicode="&#xe68d;" horiz-adv-x="1025" 
d="M1025 415v-64l-1 -5l-4 -58q-8 -74 -30 -137q-56 -158 -201 -226q-84 -40 -199 -50q-81 -7 -163 1q-81 8 -146 31q-170 60 -236 224q-36 88 -42 207q-3 72 4 141q8 77 31 140q39 108 120 173q60 49 142 74q69 22 153 27q4 0 30 2h61l5 -1q58 -4 59 -4q74 -7 137 -30
q81 -28 138 -80q71 -63 106 -162q27 -76 34 -173q0 -5 1 -15t1 -15zM659 153h8q35 -13 60 11q24 24 12 59q-1 4 1 7q30 44 41 97q1 3 4 5q34 16 34 51t-34 51q-3 1 -4 4q-10 49 -37 91q-2 3 0 7q13 35 -11.5 60t-59.5 13q-3 -2 -6 0q-40 27 -86 39q-4 1 -5 5
q-6 16 -19.5 25.5t-29.5 10.5q-36 2 -53 -32q-1 -4 -5 -4q-58 -10 -109 -44q-2 -1 -7 -1q-1 1 -8 2.5t-10 1.5q-31 1 -47.5 -23.5t-4.5 -52.5q1 -4 -1 -8q-26 -41 -36 -89q-1 -4 -4 -5q-34 -16 -34 -51q-1 -36 34 -51q3 -1 4 -5q11 -53 40 -96q3 -4 1 -9q-11 -33 13 -58
q24 -23 58 -12l11 1q4 8 5 8q14 13 18 31t-4 35q-9 17 -25.5 25t-36.5 4q-4 -1 -6 3q-21 32 -30 71q-1 5 3 8q21 14 23.5 39t-15.5 44l-12 10q5 31 27 69q3 5 8 4q29 -5 48.5 15.5t13.5 49.5q-1 4 3 7q38 24 82 33q5 1 7 -4q15 -23 43 -25t45 19q0 1 5 6q36 -9 67 -29
q3 -2 2 -6q-6 -30 14 -50.5t50 -15.5q4 1 6 -2q19 -31 27 -67q1 -4 -2 -7q-25 -16 -25 -44.5t24 -45.5q4 -3 3 -8q-9 -37 -30 -70q-2 -5 -8 -4q-17 4 -33.5 -3.5t-25 -23.5t-6 -34t14.5 -31q1 0 10 -11zM513 77h92q10 -1 12 6q2 5 0 11q-17 57 -60 205q-18 61 -28 93
q-4 14 -17 12q-11 -1 -15 -13q-4 -14 -25 -87q-46 -156 -62 -211q-2 -5 0 -9q2 -7 12 -7h91zM625 263q36 33 48 81.5t-7 99.5q-20 50 -67.5 79t-104.5 23q-52 -6 -91.5 -42t-49.5 -89q-9 -45 6 -87t43 -64q11 38 13 44q1 4 -1 8q-28 41 -19 88q15 74 86 94q71 21 122 -36
q28 -30 30.5 -71t-20.5 -75q-2 -4 -2 -6q3 -10 14 -47z" />
    <glyph glyph-name="uniE68E" unicode="&#xe68e;" horiz-adv-x="1025" 
d="M1025 415v-64q-1 -4 -1 -5l-4 -58q-8 -74 -30 -137q-56 -158 -201 -226q-84 -40 -199 -50q-81 -7 -163 1q-81 8 -146 31q-170 60 -236 224q-36 88 -42 207q-3 72 4 141q8 77 31 140q39 108 120 173q60 49 142 74q69 22 153 27q4 0 30 2h61l5 -1q58 -4 59 -4
q74 -7 137 -30q81 -28 138 -80q71 -63 106 -162q27 -76 34 -173q0 -6 1 -16.5t1 -13.5zM281 355h171v-1l-21 -21q-70 -69 -102 -100q-16 -17 -21 -37q-9 -33 19 -49q9 -5 15 -7q27 -4 38 -4q100 -1 277 0q27 0 47 13q36 25 31 69q-5 40 -43 55q-20 8 -47 5q-5 0 -7 5
q-3 13 -14 22q-16 14 -39 11.5t-39 -21.5q-1 0 -1 -1.5t1 -2.5q3 -6 5.5 -7t9.5 1q2 1 5 2q20 4 32 -5.5t12 -29.5q0 -8 8 -7q2 0 5.5 0.5t4.5 0.5q24 3 35 -9q13 -15 4.5 -33t-28.5 -18q-115 -1 -217 -1q-8 0 -15 3q-14 5 -8 18q4 7 10 13q9 10 34.5 34.5t38.5 38.5
q19 19 55 59q4 4 9 4h194h6v18q-1 14 -14 17q-23 5 -37 8q-52 11 -115 14q-5 0 -10.5 0.5t-12.5 0.5t-11 1v84h186v13q0 15 -15 19q-53 15 -137 21q-2 0 -34 2v6v57q-1 18 -17 14q-14 -3 -35 -11q-15 -5 -19 -10.5t-4 -21.5v-33l-5 -1q-85 -8 -93 -9q-9 -2 -65 -13
q-12 -2 -13 -13v-21h176v-84h-4q-70 -3 -131 -15q-21 -3 -40 -8q-14 -4 -15 -17v-18z" />
    <glyph glyph-name="uniE68F" unicode="&#xe68f;" horiz-adv-x="1025" 
d="M1025 415v-64q-1 -4 -1 -5l-4 -58q-8 -74 -30 -137q-56 -158 -201 -226q-84 -40 -199 -50q-81 -7 -163 1q-81 8 -146 31q-170 60 -236 224q-36 88 -42 207q-3 72 4 141q8 77 31 140q39 108 120 173q60 49 142 74q69 22 153 27q4 0 30 2h61l5 -1q58 -4 59 -4
q74 -7 137 -30q81 -28 138 -80q71 -63 106 -162q27 -76 34 -173q0 -5 1 -15t1 -15zM512 136h210q14 0 21.5 8.5t6.5 21.5q-4 34 -19 157q-3 25 -9.5 77.5t-9.5 79.5q-2 17 -20 17h-359q-17 0 -19 -16q-5 -42 -13 -106q-5 -40 -13.5 -113t-11.5 -94q-2 -14 6 -23t22 -9h208z
M621 530q-4 44 -39.5 74t-83.5 24q-44 -6 -72 -42q-19 -25 -22 -55h33l1 4q8 39 44.5 54.5t70.5 -5.5q28 -17 35 -49q1 -5 3 -5h30zM436 432v-6q0 -7 -4.5 -11.5t-11.5 -4.5t-11.5 4.5t-4.5 11.5q-1 6 0 12q0 7 5 11.5t11.5 4t11 -5t4.5 -11.5v-5zM590 432v7q0 6 4.5 10
t10.5 4.5t11 -3.5t6 -10q1 -7 0 -15q-1 -7 -5.5 -11t-11 -4t-11 4.5t-5.5 11.5v6h1z" />
    <glyph glyph-name="uniE690" unicode="&#xe690;" 
d="M1024 415v-64l-1 -5l-4 -58q-8 -74 -30 -137q-56 -158 -201 -226q-84 -40 -199 -50q-81 -7 -163 1q-81 8 -146 31q-170 60 -236 224q-36 88 -42 207q-3 72 4 141q8 77 31 140q39 107 120 173q60 49 142 74q69 22 153 27q3 0 30 2h61l5 -1q58 -4 59 -4q74 -7 137 -30
q81 -28 138 -80q71 -63 106 -162q27 -76 34 -173q1 -20 2 -30zM548 325v1l-2 1q-21 13 -23.5 38.5t15.5 42.5q2 2 6.5 5.5t6.5 5.5q19 16 21 20q50 59 38 145q-6 43 -37 71.5t-74 32.5q-46 5 -84 -21.5t-50 -71.5q-7 -30 -1 -71q8 -60 49 -97q5 -6 19 -16q17 -14 19 -37
q2 -18 -8 -32.5t-26 -18.5q-49 -14 -54 -16q-58 -17 -70 -22q-26 -9 -41.5 -31.5t-15.5 -50.5v-52v-6h243v7v145q0 6 1 10q4 17 24 18h44zM640 297h-60h-59q-14 -1 -14 -14v-30q0 -3 3 -5q62 -35 127 -71q3 -1 6 1q66 36 127 70q3 2 3 6v26q0 10 -3.5 13.5t-12.5 3.5h-117z
M507 220v-3v-104q0 -13 14 -13h238q14 0 14 14v102v4l-6 -3q-95 -53 -121 -67q-6 -4 -12 0q-28 15 -122 67z" />
    <glyph glyph-name="uniE692" unicode="&#xe692;" 
d="M237 145v17v41q0 28 15.5 50.5t41.5 31.5q11 4 81 25q5 2 43 13q16 4 26 18.5t8 31.5q-2 24 -19 38q-27 22 -36 34q-34 46 -35 110q0 36 12 61q17 38 53 57.5t78 14.5q40 -5 70 -34t36 -69q12 -87 -38 -146q-2 -4 -21 -20q-2 -2 -6 -5.5t-7 -5.5q-18 -17 -15.5 -42.5
t24.5 -39.5l3 -1h-6h-38q-27 0 -27 -27v-146v-7h-243zM641 297h117q9 0 12.5 -3.5t3.5 -13.5v-26q0 -4 -3 -7q-64 -34 -126 -69q-4 -2 -8 0q-62 34 -125 69q-4 3 -4 7v14v15q0 13 14 13q9 1 119 1zM774 220v-5v-100q0 -15 -14 -15h-238q-14 0 -14 15v100v5l5 -3
q93 -51 122 -68q6 -3 12 0q29 17 122 68z" />
    <glyph glyph-name="uniE693" unicode="&#xe693;" 
d="M771 287v-6v-198q0 -17 -9.5 -26.5t-25.5 -9.5h-40q-15 0 -24.5 9.5t-9.5 24.5v31h-306v-5q0 -29 -1 -31q0 -12 -9 -20.5t-21 -8.5h-47q-13 0 -22 9t-9 22v50v153v7h-13h-20q-9 0 -15.5 6t-6.5 15q-1 11 0 22q0 10 6.5 16t16.5 6h49q5 0 8 5q10 25 39 88q14 32 50 34
q118 8 265 2q26 -1 42 -4q27 -4 39 -31q20 -45 39 -89q2 -5 7 -5h49q24 0 24 -23v-20q0 -10 -6.5 -16t-16.5 -6h-17h-13zM720 332l-2 5q-36 84 -42 97q-4 10 -14 11q-9 0 -25.5 1.5t-30 2.5t-25.5 1q-96 4 -188 -2q-2 0 -43 -5q-4 0 -7 -5q-3 -8 -44 -102l-1 -4h422z
M689 178h28q9 0 15 6t6 14q1 13 0 26q0 9 -7.5 15t-15.5 4q-31 -5 -55 -11q-20 -4 -20 -26v-5q0 -10 6.5 -16.5t16.5 -6.5h26zM328 178h27h1q9 0 15 6t7 15v12q0 11 -10 17q-7 4 -14 5q-6 2 -49 10q-10 2 -17.5 -4t-8.5 -17v-21q1 -10 7 -16.5t16 -6.5h26zM509 178h58
q12 0 15.5 3t3.5 16q-1 14 -15 14h-120q-12 0 -15.5 -4t-3.5 -15q1 -14 14 -14h63zM482 617l-34 -17q-2 -2 -8 -11q-2 -3 -5.5 -9t-5.5 -8q-3 -5 -10 -7q-16 -3 -40 -9q-3 -1 -4 -3q-1 -1 -7 -12q1 -1 31 -39h-5h-29q-6 -1 -9 4q-17 20 -20 25q-7 8 -1 17q9 15 19 30
q4 6 16 9q14 2 33 7q2 0 3.5 2.5t6.5 9.5t7 11q5 5 9 8q8 4 41 21l10 5q9 3 16 -4q6 -5 16 -15l13 -13q31 -32 37 -37q3 -3 20 -9q4 -2 13 -5t13 -5q11 -4 21 -1l12 3q8 2 10 2q3 1 4 3q3 5 8.5 17t8.5 19q2 3 7 8q1 1 15 12q-13 9 -14 10q-5 3 -4.5 11t5.5 12q6 4 11 8
q1 1 1 3q1 9 2 17q1 10 4.5 14.5t12.5 7.5q12 4 25 9q12 4 20 -5q14 -17 17 -21q5 -8 19 -9t27 -3q16 -2 15 -18q-5 -47 -7 -60q0 -5 -4 -11q-10 -16 -29 -47q-5 -8 -9 -13q-3 -4 -10 -4t-12 5l-3 3q-1 -2 -5 -6t-6 -7q24 -10 26 -11q8 -4 9.5 -11.5t-3.5 -14.5l-9 -7
q15 -29 17 -32q7 -13 3 -25q-2 -5 -7 -24q-1 -6 -7 -6h-27q1 6 1 7q5 16 9 27q1 5 -2 9l-21 42q-4 8 2 16q-20 9 -21 10q-9 4 -10.5 12t5.5 15q4 5 11 14t9 11q11 12 17 18q3 4 9 4t10 -4l3 -2q20 32 23 37q1 1 2 17q0 1 3 26q-25 3 -27 3q-11 1 -17 9t-16 20q-2 2 -5 2
q-6 -1 -8.5 -3t-2.5 -9q-1 -8 -1 -9q-1 -1 -5 -16q8 -6 9 -6q7 -5 7.5 -12.5t-6.5 -13.5q-2 -2 -13 -11t-17 -14l-3 -6q-15 -33 -17 -36q-4 -7 -10 -8q-17 -5 -49 -11q-5 -1 -9 0q-3 1 -34 12q-23 9 -24 9q-7 3 -11 8q-2 1 -55 54z" />
    <glyph glyph-name="uniE694" unicode="&#xe694;" 
d="M229 65v245h20q1 -26 20 -40q14 -11 32 -10q40 2 47 50h48q3 -24 16.5 -37t33.5 -13q18 0 33 13t16 37h18h18q3 -24 16.5 -37t34.5 -13q17 0 32 13t16 37h26h24q9 -51 52 -50q18 1 32 14t16 36h18v-245h-187q1 48 -33 78q-27 25 -64 25q-42 0 -71 -30t-28 -73h-186z
M560 326h-94v-18q-1 -17 -18 -18.5t-22 13.5q-2 4 -2 9v197q0 1 1 4h177v-4v-197q0 -11 -7 -17.5t-17 -4.5q-7 1 -12.5 6.5t-5.5 12.5v17zM536 443h-46v-60h46v60zM513 701q7 -14 89 -168h-177q74 141 88 168z" />
    <glyph glyph-name="uniE6BD" unicode="&#xe6bd;" 
d="M284 172q2 46 41 63q9 4 33 14q4 2 4 5q-3 22 1 46q0 3 -3 5q-13 11 -39.5 33t-39.5 33q-24 20 -18 49q7 30 36 37q32 8 53 -19q43 -59 120 -74q80 -15 149 24q31 19 53 48q17 23 43.5 22.5t40.5 -24.5q9 -15 6 -33t-17 -30q-52 -43 -79 -65q-4 -3 -4 -8q2 -20 1 -42
q0 -6 5 -7q20 -8 34 -15q20 -9 30 -26.5t8 -39.5q-1 -20 -14.5 -35.5t-32.5 -21.5q-22 -6 -43 3q-6 2 -24 9.5t-28 11.5q-78 32 -156 6q-5 -1 -69 -27q-27 -11 -53 1t-34 39q-1 1 -4 18zM660 548q11 -31 3 -61q-12 -41 -53 -67q-49 -31 -112 -26q-49 4 -86 30q-42 29 -50 72
q-5 26 5 52q-25 9 -35 31q-7 16 -3 33q3 17 16 29t30 14q18 3 35 -6.5t25 -31.5q78 34 157 0q9 25 32 35q16 6 34 2q16 -4 27.5 -17t13.5 -31q4 -37 -39 -58zM513 514h-11q-8 -1 -13 -1q-18 -2 -19 -17q-2 -19 10.5 -33.5t32.5 -14.5q19 -1 32 13t12 33q-1 16 -15 18
q-2 0 -29 2z" />
    <glyph glyph-name="uniE6C0" unicode="&#xe6c0;" 
d="M368 342q-7 4 -13 6q-8 2 -24.5 5t-24.5 5q-11 2 -19 -4t-8 -17v-10v-10q0 -24 24 -24h25v1h29q9 0 14.5 6t5.5 15v11q0 11 -9 16zM657 446h63q0 1 -1 3.5t-2 3.5q-34 79 -42 98q-3 7 -11 8q-58 6 -65 6q-105 4 -199 -1q-7 -1 -48 -5q-7 0 -10 -7q-4 -11 -44 -101
q0 -1 -0.5 -2.5t-0.5 -2.5h244q23 26 58 26t58 -26zM599 484q-14 0 -23.5 9.5t-9.5 23.5t9.5 24t23.5 10t23.5 -10t9.5 -24t-9.5 -23.5t-23.5 -9.5zM570 326h-119q-13 0 -16 -3t-3 -16q0 -8 3.5 -11t10.5 -3h62h59q12 0 15 3t3 15q0 9 -3 12t-12 3zM713 358q-8 -2 -25.5 -5
t-25.5 -5q-22 -5 -22 -27v-4q0 -24 24 -24h24h31q7 1 12.5 5.5t5.5 11.5q2 16 0 31q0 9 -7.5 14t-16.5 3zM1022 445q-7 99 -34 174q-36 98 -106 162q-57 51 -138 80q-64 23 -137 30q-11 1 -31 2t-28 2q-1 0 -2.5 0.5t-2.5 0.5h-61q-5 -1 -15 -1.5t-15 -0.5q-85 -6 -153 -27
q-82 -25 -142 -74q-82 -66 -120 -174q-23 -63 -32 -139q-7 -67 -4 -141q6 -119 42 -208q66 -163 236 -224q67 -23 147 -31q81 -7 163 -1q114 10 199 50q145 68 201 226q23 65 30 137q1 11 2 31t2 27q0 1 0.5 3t0.5 3v63q-1 5 -1.5 15t-0.5 15zM826 425q0 -10 -6.5 -16
t-16.5 -7h-9h-12h-9h-2v-6v-197q0 -37 -37 -37h-37q-16 0 -25.5 9.5t-9.5 25.5v30h-306v-30q0 -16 -9.5 -25.5t-25.5 -9.5h-39q-16 0 -26 9.5t-10 25.5v199v7h-10h-11h-9q-6 0 -11 2q-12 5 -13 19v6v8v6q0 24 24 24h48q6 0 7 5q8 16 40 88q14 31 48 34q81 6 193 4
q33 -1 98 -3q30 -2 45 -17q9 -10 12 -17q13 -30 39 -89q2 -5 7 -5h49q24 0 24 -24v-19z" />
    <glyph glyph-name="uniE6C2" unicode="&#xe6c2;" 
d="M356 227v-30q0 -16 -9.5 -25.5t-25.5 -9.5h-39q-16 0 -26 9.5t-10 25.5v199v6h-30q-6 0 -11 2q-12 6 -13 19v7v8v6q0 24 24 24h48q6 0 7 4q8 17 40 89q14 31 48 34q81 6 193 4q33 -1 98 -4q30 -1 45 -17q9 -10 12 -17q13 -29 39 -89q2 -4 7 -4h15h18h16q24 0 24 -24v-19
q0 -10 -6.5 -16.5t-16.5 -6.5h-9h-12h-9h-2v-6v-197q0 -37 -37 -37h-37q-16 0 -25.5 9.5t-9.5 25.5v30h-306zM720 446q0 1 -1 3.5t-2 3.5q-34 79 -42 98q-3 7 -11 8q-58 6 -65 6q-105 4 -199 -1q-7 -1 -48 -5q-7 0 -10 -7q-4 -11 -44 -101q0 -1 -0.5 -2.5t-0.5 -2.5h423z
M328 293h14q11 0 15 1q9 0 14.5 6t5.5 15v11q0 11 -9 16q-7 4 -14 6q-8 2 -24 5t-24 5q-11 2 -19 -4t-8 -17v-10v-10q0 -24 24 -24h25zM688 293h16q11 0 15 1q7 0 12.5 5t5.5 12q2 15 0 30q-1 9 -8.5 14t-15.5 3q-9 -2 -26 -5t-26 -5q-21 -5 -21 -27v-4q0 -24 23 -24h13h12z
M508 293h59q12 0 15 3t3 15q0 9 -3 12t-12 3h-119q-13 0 -16 -3t-3 -16q0 -8 3.5 -11t10.5 -3h62zM599 517zM566 517q0 14 9.5 24t23.5 10t23.5 -10t9.5 -24t-9.5 -23.5t-23.5 -9.5t-23.5 9.5t-9.5 23.5zM677 395q0 -10 -3.5 -17t-7.5 -10t-12.5 -4t-15 -1t-19 1t-20.5 1
t-20.5 -1t-19 -1t-15 1t-12.5 4t-7 9.5t-3 17.5q0 32 22.5 54.5t54.5 22.5t55 -22.5t23 -54.5z" />
    <glyph glyph-name="uniE6C3" unicode="&#xe6c3;" horiz-adv-x="1026" 
d="M570 594h-184q-9 0 -16 -7t-7 -17v-144q0 -10 7 -17t16 -7h184q10 0 17 7t7 17v144q-1 10 -7.5 17t-16.5 7zM726 525zM705 525q0 9 6 15t15 6t15.5 -6t6.5 -15t-6.5 -15.5t-15.5 -6.5t-15 6.5t-6 15.5zM1023 445q-6 97 -34 174q-35 98 -106 162q-56 51 -138 80
q-64 23 -136 30q-11 1 -31 2t-28 2q-1 0 -3 0.5t-3 0.5h-60q-5 -1 -15 -1.5t-15 -0.5q-85 -6 -154 -27q-82 -25 -142 -74q-81 -65 -120 -174q-23 -63 -31 -139q-7 -67 -4 -141q6 -119 42 -208q66 -163 236 -224q66 -23 147 -31q81 -7 163 -1q114 10 199 50q145 68 201 226
q22 65 29 137q1 11 2.5 31t2.5 27v3v3v63q-1 11 -2 30zM796 230q0 -19 -14 -33t-33 -14h-27q-19 0 -33 14t-14 33v154q0 5 -3.5 9t-8.5 4h-23v-218h33q10 0 17 -7t7 -16q0 -10 -7 -17t-17 -7h-390q-9 0 -16 7t-7 17q0 9 7 16t16 7h33v412q0 19 13.5 33t32.5 14h232
q19 0 32.5 -14t13.5 -33v-147h35q20 0 33.5 -14t13.5 -33v-153q0 -6 4 -10t9.5 -4t9.5 4t4 10v215q-11 -3 -23 -3q-28 0 -48.5 20t-20.5 49q0 28 19.5 48t47.5 21l-23 22q-10 10 -10 24.5t10 24.5q9 8 18 0l32 -32q44 -45 44 -107v-296h1z" />
    <glyph glyph-name="uniE6C4" unicode="&#xe6c4;" 
d="M751 632l-31 32q-9 9 -18 0q-10 -10 -10 -24t10 -24l23 -22q-29 -1 -48.5 -21t-19.5 -48q0 -29 20.5 -49.5t49.5 -20.5q11 0 22 4v-216q0 -5 -3.5 -9t-9.5 -4t-9.5 4t-3.5 9v154q0 19 -14 32.5t-33 13.5h-35v148q0 19 -14 33t-33 14h-231q-19 0 -33 -14t-14 -33v-412h-33
q-9 0 -16 -7t-7 -16.5t7 -16.5t16 -7h390q10 0 17 7t7 16.5t-7 16.5t-17 7h-32v218h22q6 0 9.5 -4t3.5 -9v-154q0 -19 13.5 -33t33.5 -14h26q20 0 33.5 14t13.5 33v295q-1 63 -45 107zM726 503q-9 0 -15 6t-6 15t6 15.5t15 6.5t15.5 -6.5t6.5 -15.5q0 -8 -6.5 -14.5
t-15.5 -6.5zM594 426q0 -10 -7 -17t-17 -7h-184q-9 0 -16 7t-7 17v144q0 10 7 17t16 7h184q10 0 17 -7t7 -17v-144z" />
    <glyph glyph-name="uniE6EE" unicode="&#xe6ee;" 
d="M329 457q30 0 51.5 21.5t21.5 52t-21.5 51.5t-51.5 21t-51.5 -21t-21.5 -51.5t21.5 -52t51.5 -21.5zM658 503l-216 -306l-113 156l-183 -262h732zM951 805h-878q-15 0 -25.5 -11t-10.5 -26v-768q0 -15 10.5 -26t25.5 -11h878q15 0 25.5 11t10.5 26v768q0 15 -10.5 26
t-25.5 11zM914 37h-804v694h804v-694z" />
    <glyph glyph-name="uniE71E" unicode="&#xe71e;" 
d="M512 830q-91 0 -173.5 -35.5t-142 -95t-95 -142t-35.5 -173.5t35.5 -173.5t95 -142t142 -95t173.5 -35.5t173.5 35.5t142 95t95 142t35.5 173.5t-35.5 173.5t-95 142t-142 95t-173.5 35.5zM512 224q-66 0 -113 47t-47 113t47 113t113 47t113 -47t47 -113t-47 -113
t-113 -47z" />
    <glyph glyph-name="uniE71F" unicode="&#xe71f;" 
d="M512 830q-91 0 -173.5 -35.5t-142 -95t-95 -142t-35.5 -173.5t35.5 -173.5t95 -142t142 -95t173.5 -35.5t173.5 35.5t142 95t95 142t35.5 173.5t-35.5 173.5t-95 142t-142 95t-173.5 35.5zM512 2q-104 0 -192 51t-139 139t-51 192t51 192t139 139t192 51t192 -51
t139 -139t51 -192t-51 -192t-139 -139t-192 -51zM512 544q-66 0 -113 -47t-47 -113t47 -113t113 -47t113 47t47 113t-47 113t-113 47z" />
    <glyph glyph-name="uniE721" unicode="&#xe721;" 
d="M832 800h-640q-40 0 -68 -28t-28 -68v-640q0 -40 28 -68t68 -28h640q40 0 68 28t28 68v640q0 40 -28 68t-68 28zM727 458l-256 -259v-1q-2 -1 -7 -4q-1 -1 -2 -1.5t-2 -1.5q-6 -2 -12 -2t-12 2q-1 1 -2 1.5t-1 1.5q-6 3 -7 4v1h-1l-126 129q-9 10 -9 23t9.5 22.5t23 9
t22.5 -9.5l103 -106l234 236q9 9 22.5 9t22.5 -9.5t9.5 -22.5t-9.5 -22z" />
    <glyph glyph-name="uniE722" unicode="&#xe722;" 
d="M727 502.5q-9 9.5 -22.5 9.5t-22.5 -9l-234 -236l-103 106q-9 9 -22.5 9.5t-23 -9t-9.5 -22.5t9 -23l126 -129h1v-1q1 -1 7 -4q0 -1 1 -1.5t2 -1.5q6 -2 12 -2t12 2q1 1 2 1.5t2 1.5q5 3 7 4v1l256 259q10 9 9.5 22t-9.5 22.5zM832 -32h-640q-40 0 -68 28t-28 68v640
q0 40 28 68t68 28h640q40 0 68 -28t28 -68v-640q0 -40 -28 -68t-68 -28zM192 736q-13 0 -22.5 -9.5t-9.5 -22.5v-640q0 -13 9.5 -22.5t22.5 -9.5h640q13 0 22.5 9.5t9.5 22.5v640q0 13 -9.5 22.5t-22.5 9.5h-640z" />
    <glyph glyph-name="uniE723" unicode="&#xe723;" 
d="M557 383l266 264q9 9 9 22t-9.5 22.5t-22.5 9.5t-23 -9l-265 -264l-263 264q-9 9 -22.5 9t-23 -9t-9.5 -22.5t10 -22.5l263 -264l-265 -264q-10 -9 -10 -22.5t9.5 -22.5t22.5 -9t23 9l265 264l265 -267q10 -9 23 -9t22.5 9.5t9.5 22.5t-9 23z" />
    <glyph glyph-name="uniE724" unicode="&#xe724;" 
d="M512 832q-185 0 -316.5 -131.5t-131.5 -316.5t131.5 -316.5t316.5 -131.5t316.5 131.5t131.5 316.5t-131.5 316.5t-316.5 131.5zM695 246q9 -9 9 -22.5t-9.5 -23t-22.5 -9.5t-23 10l-137 138l-138 -137q-10 -9 -23 -9t-22.5 9.5t-9.5 22.5t10 23l138 136l-138 138
q-9 9 -9 22.5t9.5 23t22.5 9.5t23 -10l137 -138l138 137q10 9 23 9t22.5 -9.5t9.5 -22.5t-10 -23l-138 -136z" />
    <glyph glyph-name="uniE725" unicode="&#xe725;" 
d="M512 -64q-185 0 -316.5 131.5t-131.5 316.5t131.5 316.5t316.5 131.5t316.5 -131.5t131.5 -316.5t-131.5 -316.5t-316.5 -131.5zM512 768q-104 0 -192.5 -51.5t-140 -140t-51.5 -192.5t51.5 -192.5t140 -140t192.5 -51.5t192.5 51.5t140 140t51.5 192.5t-51.5 192.5
t-140 140t-192.5 51.5zM557 383l138 136q10 10 10 23t-9.5 22.5t-22.5 9.5t-23 -9l-138 -137l-137 137q-9 9 -22 9t-22.5 -9t-9.5 -22.5t9 -22.5l136 -137l-137 -136q-9 -9 -9.5 -22.5t9 -23t22.5 -9.5q14 0 23 10l138 136l138 -140q10 -9 23 -9t22.5 9.5t9.5 22.5t-9 23z
" />
    <glyph glyph-name="uniE726" unicode="&#xe726;" 
d="M512 -62q-90 0 -171.5 33.5t-145 97t-97.5 145t-34 170.5t34 170.5t97.5 145t145 97t171.5 33.5t171.5 -33.5t145 -97t97.5 -145t34 -170.5t-34 -170.5t-97.5 -145t-145 -97t-171.5 -33.5zM512 766q-77 0 -147 -29t-124.5 -83t-83.5 -123.5t-29 -146.5t29 -146.5
t83.5 -123.5t124.5 -83t147 -29t147 29t124.5 83t83.5 124t29 146.5t-29 146t-83.5 123.5t-124.5 83t-147 29zM736 416h-192v192q0 13 -9.5 22.5t-22.5 9.5t-22.5 -9.5t-9.5 -22.5v-192h-192q-13 0 -22.5 -9.5t-9.5 -22.5t9.5 -22.5t22.5 -9.5h192v-192q0 -13 9.5 -22.5
t22.5 -9.5t22.5 9.5t9.5 22.5v192h192q13 0 22.5 9.5t9.5 22.5t-9.5 22.5t-22.5 9.5z" />
    <glyph glyph-name="uniE727" unicode="&#xe727;" 
d="M863 415h-317v318q0 13 -9.5 22.5t-22.5 9.5t-22.5 -9.5t-9.5 -22.5v-318h-322q-14 0 -23 -9.5t-9.5 -22.5t9 -22.5t22.5 -9.5h323v-319q0 -14 9.5 -23t22.5 -9t22.5 9t9.5 23v319h317q13 0 22.5 9t9.5 22.5t-9 23t-23 9.5z" />
    <glyph glyph-name="uniE728" unicode="&#xe728;" 
d="M828.5 699.5q-63.5 63.5 -145 97t-171.5 33.5t-171.5 -33.5t-145 -97t-97.5 -145t-34 -170.5t34 -170.5t97.5 -145t145 -97t171.5 -33.5t171.5 33.5t145 97t97.5 145t34 170.5t-34 170.5t-97.5 145zM736 352h-192v-192q0 -13 -9.5 -22.5t-22.5 -9.5t-22.5 9.5t-9.5 22.5
v192h-192q-13 0 -22.5 9.5t-9.5 22.5t9.5 22.5t22.5 9.5h192v192q0 13 9.5 22.5t22.5 9.5t22.5 -9.5t9.5 -22.5v-192h192q13 0 22.5 -9.5t9.5 -22.5t-9.5 -22.5t-22.5 -9.5z" />
    <glyph glyph-name="uniE729" unicode="&#xe729;" 
d="M864 352h-701q-13 0 -22.5 9.5t-9.5 22.5t9.5 22.5t22.5 9.5h701q13 0 22.5 -9.5t9.5 -22.5t-9.5 -22.5t-22.5 -9.5z" />
    <glyph glyph-name="uniE72A" unicode="&#xe72a;" 
d="M512 830q-91 0 -173.5 -35.5t-142 -95t-95 -142t-35.5 -173.5t35.5 -173.5t95 -142t142 -95t173.5 -35.5t173.5 35.5t142 95t95 142t35.5 173.5t-35.5 173.5t-95 142t-142 95t-173.5 35.5zM544 160q0 -13 -9.5 -22.5t-22.5 -9.5t-22.5 9.5t-9.5 22.5v288q0 13 9.5 22.5
t22.5 9.5t22.5 -9.5t9.5 -22.5v-288zM512 544q-20 0 -34 14t-14 34t14 34t34 14t34 -14t14 -34t-14 -34t-34 -14z" />
    <glyph glyph-name="uniE72B" unicode="&#xe72b;" 
d="M512 -62q-91 0 -173.5 35.5t-142 95t-95 142t-35.5 173.5t35.5 173.5t95 142t142 95t173.5 35.5t173.5 -35.5t142 -95t95 -142t35.5 -173.5t-35.5 -173.5t-95 -142t-142 -95t-173.5 -35.5zM512 766q-104 0 -192 -51t-139 -139t-51 -192t51 -192t139 -139t192 -51t192 51
t139 139t51 192t-51 192t-139 139t-192 51zM464 592q0 -20 14 -34t34 -14t34 14t14 34t-14 34t-34 14t-34 -14t-14 -34zM512 128q-13 0 -22.5 9.5t-9.5 22.5v288q0 13 9.5 22.5t22.5 9.5t22.5 -9.5t9.5 -22.5v-288q0 -13 -9.5 -22.5t-22.5 -9.5z" />
    <glyph glyph-name="uniE72C" unicode="&#xe72c;" 
d="M512 832q-185 0 -316.5 -131.5t-131.5 -316.5t131.5 -316.5t316.5 -131.5t316.5 131.5t131.5 316.5t-131.5 316.5t-316.5 131.5zM512 64q-20 0 -34 14t-14 34t14 34t34 14t34 -14t14 -34t-14 -34t-34 -14zM601 391q-19 -19 -28.5 -29t-19 -26t-9.5 -28v-54
q0 -13 -9.5 -22.5t-22.5 -9.5t-22.5 9.5t-9.5 22.5v54q0 25 13 50t25.5 39.5t36.5 38.5q18 17 26.5 26.5t17.5 23.5t9 24q0 40 -28 68.5t-68 28.5t-68 -27.5t-28 -67.5q0 -13 -9.5 -22.5t-22.5 -9.5t-22.5 9.5t-9.5 22.5q0 66 47 112.5t113 46.5t113 -47t47 -114
q0 -22 -12 -45.5t-24 -37t-35 -36.5z" />
    <glyph glyph-name="uniE72D" unicode="&#xe72d;" 
d="M464 112q0 -20 14 -34t34 -14t34 14t14 34t-14 34t-34 14t-34 -14t-14 -34zM512 -64q-185 0 -316.5 131.5t-131.5 316.5t131.5 316.5t316.5 131.5t316.5 -131.5t131.5 -316.5t-131.5 -316.5t-316.5 -131.5zM512 768q-104 0 -192.5 -51.5t-140 -140t-51.5 -192.5
t51.5 -192.5t140 -140t192.5 -51.5t192.5 51.5t140 140t51.5 192.5t-51.5 192.5t-140 140t-192.5 51.5zM512 222q-13 0 -22.5 9.5t-9.5 22.5v54q0 25 13 50t25.5 39.5t36.5 38.5q18 18 26.5 27t17.5 23t9 24q0 40 -28 68.5t-68 28.5t-68 -27.5t-28 -67.5q0 -13 -9.5 -22.5
t-22.5 -9.5t-22.5 9.5t-9.5 22.5q0 66 47 112.5t113 46.5t113 -47t47 -114q0 -22 -12 -45.5t-24 -37t-35 -36.5q-19 -19 -28.5 -29t-19 -26t-9.5 -28v-54q0 -13 -9.5 -22.5t-22.5 -9.5z" />
    <glyph glyph-name="uniE72E" unicode="&#xe72e;" 
d="M888 598q-10 9 -23 8.5t-22 -10.5l-427 -454l-233 230q-10 9 -23 9t-22.5 -9.5t-9.5 -23t10 -22.5l256 -253h1q1 -1 7 -4q0 -1 1 -1.5t2 -1.5q6 -2 12 -2t12 3q1 0 2 1t2 1q5 3 7 5v0l449 479q9 9 9 22.5t-10 22.5z" />
    <glyph glyph-name="uniE72F" unicode="&#xe72f;" 
d="M512 -64q-185 0 -316.5 131.5t-131.5 316.5t131.5 316.5t316.5 131.5t316.5 -131.5t131.5 -316.5t-131.5 -316.5t-316.5 -131.5zM512 768q-159 0 -271.5 -112.5t-112.5 -271.5t112.5 -271.5t271.5 -112.5t271.5 112.5t112.5 271.5t-112.5 271.5t-271.5 112.5z" />
    <glyph glyph-name="uniE730" unicode="&#xe730;" 
d="M512 830q-91 0 -173.5 -35.5t-142 -95t-95 -142t-35.5 -173.5t35.5 -173.5t95 -142t142 -95t173.5 -35.5t173.5 35.5t142 95t95 142t35.5 173.5t-35.5 173.5t-95 142t-142 95t-173.5 35.5zM727 458l-256 -259v-1q-2 -1 -7 -4q-1 -1 -2 -1.5t-2 -1.5q-6 -2 -12 -2t-12 2
q-1 1 -2 1.5t-1 1.5q-6 3 -7 4v1h-1l-126 129q-9 10 -9 23t9.5 22.5t23 9t22.5 -9.5l103 -106l234 236q9 9 22.5 9t22.5 -9t9.5 -22.5t-9.5 -22.5z" />
    <glyph glyph-name="uniE731" unicode="&#xe731;" 
d="M512 -64q-185 0 -316.5 131.5t-131.5 316.5t131.5 316.5t316.5 131.5t316.5 -131.5t131.5 -316.5t-131.5 -316.5t-316.5 -131.5zM512 768q-104 0 -192.5 -51.5t-140 -140t-51.5 -192.5t51.5 -192.5t140 -140t192.5 -51.5t192.5 51.5t140 140t51.5 192.5t-51.5 192.5
t-140 140t-192.5 51.5zM727 502.5q-9 9.5 -22.5 9.5t-22.5 -9l-234 -236l-103 106q-9 9 -22.5 9.5t-23 -9t-9.5 -22.5t9 -23l126 -129h1v-1q1 -1 7 -4q0 -1 1 -1.5t2 -1.5q6 -2 12 -2t12 2q1 1 2 1.5t2 1.5q5 3 7 4v1l256 259q10 9 9.5 22t-9.5 22.5z" />
    <glyph glyph-name="uniE732" unicode="&#xe732;" 
d="M957 491.5q-6 18.5 -25 21.5l-271 42l-120 259q-9 18 -29 18q-21 0 -29 -18l-122 -258l-271 -41q-19 -3 -25.5 -21.5t7.5 -32.5l196 -202l-47 -285q-3 -20 13.5 -31.5t33.5 -1.5l242 133l242 -134q7 -4 15 -4h1q13 0 22.5 9.5t9.5 22.5q0 6 -2 11l-45 279l197 201
q13 14 7 32.5z" />
    <glyph glyph-name="uniE733" unicode="&#xe733;" 
d="M767 -64q-8 0 -15 4l-242 134l-242 -133q-17 -10 -33.5 1.5t-13.5 31.5l47 285l-196 202q-14 14 -7 32q5 18 24 22l155 26q14 3 24.5 -5t13 -21t-5.5 -23.5t-21 -13.5l-95 -16l165 -170q12 -12 9 -28l-39 -235l200 109q15 9 31 0l199 -110l-38 236q-3 16 9 27l164 169
l-225 34q-17 3 -24 18l-100 213l-100 -212q-5 -12 -17.5 -16.5t-24.5 1t-16.5 18t0.5 24.5l129 274q9 18 29 18q21 0 29 -18l121 -259l270 -41q20 -3 26 -21.5t-8 -32.5l-197 -202l46 -285q3 -19 -13 -31q-7 -6 -18 -6z" />
    <glyph glyph-name="uniE734" unicode="&#xe734;" 
d="M570 800h-6q-118 0 -197 -75t-79 -187v-122v-64v-243l-105 106q-9 10 -22.5 10t-23 -9.5t-9.5 -22.5t10 -23l158 -160q9 -9 23 -9q13 0 22 9v0l160 159q9 9 9 22.5t-9 23t-22.5 9.5t-22.5 -10l-104 -103v241v64v122q0 85 60.5 141.5t151.5 56.5h6q87 0 142.5 -55
t55.5 -143v-506q0 -13 9.5 -22.5t22.5 -9.5t22.5 9.5t9.5 22.5v506q0 114 -74 188t-188 74z" />
    <glyph glyph-name="uniE737" unicode="&#xe737;" 
d="M800 -32h-576q-40 0 -68 28t-28 68v640q0 40 28 68t68 28h576q40 0 68 -28t28 -68v-640q0 -40 -28 -68t-68 -28zM224 736q-13 0 -22.5 -9.5t-9.5 -22.5v-640q0 -13 9.5 -22.5t22.5 -9.5h576q13 0 22.5 9.5t9.5 22.5v640q0 13 -9.5 22.5t-22.5 9.5h-576zM641 351h-353
q-14 0 -23 9.5t-9 23t9 22.5t23 9h353q13 0 22.5 -9t9.5 -22.5t-9.5 -23t-22.5 -9.5zM735 160h-447q-14 0 -23 9.5t-9 23t9 22.5t23 9h447q13 0 22.5 -9t9.5 -22.5t-9.5 -23t-22.5 -9.5zM256 591q0 -20 14 -34t34 -14t34 14t14 34t-14 34t-34 14t-34 -14t-14 -34zM463 591
q0 -20 14 -34t34 -14t34 14t14 34t-14 34t-34 14t-34 -14t-14 -34zM671 591q0 -20 14 -34t34 -14t34 14t14 34t-14 34t-34 14t-34 -14t-14 -34z" />
    <glyph glyph-name="uniE738" unicode="&#xe738;" 
d="M800 -64h-576q-40 0 -68 28t-28 68v640q0 40 28 68t68 28h448q13 0 22.5 -9.5t9.5 -22.5t-9.5 -22.5t-22.5 -9.5h-448q-13 0 -22.5 -9.5t-9.5 -22.5v-640q0 -13 9.5 -22.5t22.5 -9.5h576q13 0 22.5 9.5t9.5 22.5v512q0 13 9.5 22.5t22.5 9.5t22.5 -9.5t9.5 -22.5v-512
q0 -40 -28 -68t-68 -28zM612 448q-13 0 -22.5 9.5t-9.5 22.5t9 23l318 318q10 9 23 9t22.5 -9.5t9.5 -22.5t-9 -23l-318 -318q-10 -9 -23 -9zM480 448h-192q-13 0 -22.5 9.5t-9.5 22.5t9.5 22.5t22.5 9.5h192q13 0 22.5 -9.5t9.5 -22.5t-9.5 -22.5t-22.5 -9.5zM672 256h-384
q-13 0 -22.5 9.5t-9.5 22.5t9.5 22.5t22.5 9.5h384q13 0 22.5 -9.5t9.5 -22.5t-9.5 -22.5t-22.5 -9.5z" />
    <glyph glyph-name="uniE739" unicode="&#xe739;" 
d="M769 192q-54 0 -91 -38l-310 172q15 28 15 58q0 16 -6 36l305 189q37 -33 85 -33q53 0 90.5 37.5t37.5 90.5t-37.5 90.5t-90.5 37.5t-90.5 -37.5t-37.5 -90.5q0 -20 8 -41l-302 -188q-38 37 -90 37q-53 0 -90.5 -37.5t-37.5 -90.5t37.5 -90.5t90.5 -37.5q38 0 69 21
l322 -178q-6 -19 -6 -34q0 -53 37.5 -90.5t90.5 -37.5t90.5 37.5t37.5 90.5t-37 90t-90 37zM767.5 768q26.5 0 45 -19t18.5 -45t-18.5 -45t-45 -19t-45.5 19t-19 45t19 45t45.5 19zM191 384.5q0 26.5 19 45t45.5 18.5t45 -18.5t18.5 -45t-18.5 -45.5t-45 -19t-45.5 19
t-19 45.5zM768.5 0q-26.5 0 -45 19t-18.5 45.5t18.5 45t45 18.5t45.5 -18.5t19 -45t-19 -45.5t-45.5 -19z" />
    </font>
</defs>
</svg>
